<?xml version="1.0" encoding="utf-8" standalone="no"?>
<!DOCTYPE svg PUBLIC "-//W3C//DTD SVG 1.1//EN"
  "http://www.w3.org/Graphics/SVG/1.1/DTD/svg11.dtd">
<svg xmlns:xlink="http://www.w3.org/1999/xlink" width="944.39952pt" height="512.39952pt" viewBox="0 0 944.39952 512.39952" xmlns="http://www.w3.org/2000/svg" version="1.1">
 <metadata>
  <rdf:RDF xmlns:dc="http://purl.org/dc/elements/1.1/" xmlns:cc="http://creativecommons.org/ns#" xmlns:rdf="http://www.w3.org/1999/02/22-rdf-syntax-ns#">
   <cc:Work>
    <dc:type rdf:resource="http://purl.org/dc/dcmitype/StillImage"/>
    <dc:date>2026-06-24T15:12:32.781521</dc:date>
    <dc:format>image/svg+xml</dc:format>
    <dc:creator>
     <cc:Agent>
      <dc:title>Matplotlib v3.10.9, https://matplotlib.org/</dc:title>
     </cc:Agent>
    </dc:creator>
   </cc:Work>
  </rdf:RDF>
 </metadata>
 <defs>
  <style type="text/css">*{stroke-linejoin: round; stroke-linecap: butt}</style>
 </defs>
 <g id="figure_1">
  <g id="patch_1">
   <path d="M 0 512.39952 
L 944.39952 512.39952 
L 944.39952 0 
L 0 0 
z
" style="fill: #ffffff"/>
  </g>
  <g id="axes_1">
   <g id="patch_2">
    <path d="M 48.4875 421.395403 
L 937.19952 421.395403 
L 937.19952 23.837812 
L 48.4875 23.837812 
z
" style="fill: #ffffff"/>
   </g>
   <g id="patch_3">
    <path d="M 92.988786 421.395403 
L 153.746998 421.395403 
L 153.746998 282.547934 
L 92.988786 282.547934 
z
" clip-path="url(#p3511d2c0d1)" style="fill: #d73027"/>
   </g>
   <g id="patch_4">
    <path d="M 175.094478 421.395403 
L 235.852691 421.395403 
L 235.852691 280.639959 
L 175.094478 280.639959 
z
" clip-path="url(#p3511d2c0d1)" style="fill: #d73027"/>
   </g>
   <g id="patch_5">
    <path d="M 257.200171 421.395403 
L 317.958384 421.395403 
L 317.958384 280.655984 
L 257.200171 280.655984 
z
" clip-path="url(#p3511d2c0d1)" style="fill: #d73027"/>
   </g>
   <g id="patch_6">
    <path d="M 339.305864 421.395403 
L 400.064077 421.395403 
L 400.064077 289.779288 
L 339.305864 289.779288 
z
" clip-path="url(#p3511d2c0d1)" style="fill: #d73027"/>
   </g>
   <g id="patch_7">
    <path d="M 421.411557 421.395403 
L 482.16977 421.395403 
L 482.16977 287.726097 
L 421.411557 287.726097 
z
" clip-path="url(#p3511d2c0d1)" style="fill: #d73027"/>
   </g>
   <g id="patch_8">
    <path d="M 503.51725 421.395403 
L 564.275463 421.395403 
L 564.275463 284.292537 
L 503.51725 284.292537 
z
" clip-path="url(#p3511d2c0d1)" style="fill: #d73027"/>
   </g>
   <g id="patch_9">
    <path d="M 585.622943 421.395403 
L 646.381156 421.395403 
L 646.381156 276.242706 
L 585.622943 276.242706 
z
" clip-path="url(#p3511d2c0d1)" style="fill: #d73027"/>
   </g>
   <g id="patch_10">
    <path d="M 667.728636 421.395403 
L 728.486849 421.395403 
L 728.486849 274.871771 
L 667.728636 274.871771 
z
" clip-path="url(#p3511d2c0d1)" style="fill: #d73027"/>
   </g>
   <g id="patch_11">
    <path d="M 749.834329 421.395403 
L 810.592542 421.395403 
L 810.592542 275.671816 
L 749.834329 275.671816 
z
" clip-path="url(#p3511d2c0d1)" style="fill: #d73027"/>
   </g>
   <g id="patch_12">
    <path d="M 831.940022 421.395403 
L 892.698234 421.395403 
L 892.698234 268.075711 
L 831.940022 268.075711 
z
" clip-path="url(#p3511d2c0d1)" style="fill: #d73027"/>
   </g>
   <g id="patch_13">
    <path d="M 92.988786 282.547934 
L 153.746998 282.547934 
L 153.746998 228.117234 
L 92.988786 228.117234 
z
" clip-path="url(#p3511d2c0d1)" style="fill: #1a9850"/>
   </g>
   <g id="patch_14">
    <path d="M 175.094478 280.639959 
L 235.852691 280.639959 
L 235.852691 226.480487 
L 175.094478 226.480487 
z
" clip-path="url(#p3511d2c0d1)" style="fill: #1a9850"/>
   </g>
   <g id="patch_15">
    <path d="M 257.200171 280.655984 
L 317.958384 280.655984 
L 317.958384 226.169358 
L 257.200171 226.169358 
z
" clip-path="url(#p3511d2c0d1)" style="fill: #1a9850"/>
   </g>
   <g id="patch_16">
    <path d="M 339.305864 289.779288 
L 400.064077 289.779288 
L 400.064077 250.407439 
L 339.305864 250.407439 
z
" clip-path="url(#p3511d2c0d1)" style="fill: #1a9850"/>
   </g>
   <g id="patch_17">
    <path d="M 421.411557 287.726097 
L 482.16977 287.726097 
L 482.16977 248.202072 
L 421.411557 248.202072 
z
" clip-path="url(#p3511d2c0d1)" style="fill: #1a9850"/>
   </g>
   <g id="patch_18">
    <path d="M 503.51725 284.292537 
L 564.275463 284.292537 
L 564.275463 238.490566 
L 503.51725 238.490566 
z
" clip-path="url(#p3511d2c0d1)" style="fill: #1a9850"/>
   </g>
   <g id="patch_19">
    <path d="M 585.622943 276.242706 
L 646.381156 276.242706 
L 646.381156 235.808208 
L 585.622943 235.808208 
z
" clip-path="url(#p3511d2c0d1)" style="fill: #1a9850"/>
   </g>
   <g id="patch_20">
    <path d="M 667.728636 274.871771 
L 728.486849 274.871771 
L 728.486849 228.276085 
L 667.728636 228.276085 
z
" clip-path="url(#p3511d2c0d1)" style="fill: #1a9850"/>
   </g>
   <g id="patch_21">
    <path d="M 749.834329 275.671816 
L 810.592542 275.671816 
L 810.592542 235.087343 
L 749.834329 235.087343 
z
" clip-path="url(#p3511d2c0d1)" style="fill: #1a9850"/>
   </g>
   <g id="patch_22">
    <path d="M 831.940022 268.075711 
L 892.698234 268.075711 
L 892.698234 220.976063 
L 831.940022 220.976063 
z
" clip-path="url(#p3511d2c0d1)" style="fill: #1a9850"/>
   </g>
   <g id="patch_23">
    <path d="M 92.988786 228.117234 
L 153.746998 228.117234 
L 153.746998 42.798296 
L 92.988786 42.798296 
z
" clip-path="url(#p3511d2c0d1)" style="fill: #fdae61"/>
   </g>
   <g id="patch_24">
    <path d="M 175.094478 226.480487 
L 235.852691 226.480487 
L 235.852691 42.798296 
L 175.094478 42.798296 
z
" clip-path="url(#p3511d2c0d1)" style="fill: #fdae61"/>
   </g>
   <g id="patch_25">
    <path d="M 257.200171 226.169358 
L 317.958384 226.169358 
L 317.958384 42.798296 
L 257.200171 42.798296 
z
" clip-path="url(#p3511d2c0d1)" style="fill: #fdae61"/>
   </g>
   <g id="patch_26">
    <path d="M 339.305864 250.407439 
L 400.064077 250.407439 
L 400.064077 44.608399 
L 339.305864 44.608399 
z
" clip-path="url(#p3511d2c0d1)" style="fill: #fdae61"/>
   </g>
   <g id="patch_27">
    <path d="M 421.411557 248.202072 
L 482.16977 248.202072 
L 482.16977 44.608399 
L 421.411557 44.608399 
z
" clip-path="url(#p3511d2c0d1)" style="fill: #fdae61"/>
   </g>
   <g id="patch_28">
    <path d="M 503.51725 238.490566 
L 564.275463 238.490566 
L 564.275463 42.769126 
L 503.51725 42.769126 
z
" clip-path="url(#p3511d2c0d1)" style="fill: #fdae61"/>
   </g>
   <g id="patch_29">
    <path d="M 585.622943 235.808208 
L 646.381156 235.808208 
L 646.381156 44.608399 
L 585.622943 44.608399 
z
" clip-path="url(#p3511d2c0d1)" style="fill: #fdae61"/>
   </g>
   <g id="patch_30">
    <path d="M 667.728636 228.276085 
L 728.486849 228.276085 
L 728.486849 42.769126 
L 667.728636 42.769126 
z
" clip-path="url(#p3511d2c0d1)" style="fill: #fdae61"/>
   </g>
   <g id="patch_31">
    <path d="M 749.834329 235.087343 
L 810.592542 235.087343 
L 810.592542 44.608399 
L 749.834329 44.608399 
z
" clip-path="url(#p3511d2c0d1)" style="fill: #fdae61"/>
   </g>
   <g id="patch_32">
    <path d="M 831.940022 220.976063 
L 892.698234 220.976063 
L 892.698234 42.769126 
L 831.940022 42.769126 
z
" clip-path="url(#p3511d2c0d1)" style="fill: #fdae61"/>
   </g>
   <g id="patch_33">
    <path d="M 88.883501 421.395403 
L 157.852283 421.395403 
L 157.852283 42.798296 
L 88.883501 42.798296 
L 88.883501 421.395403 
z
" clip-path="url(#p3511d2c0d1)" style="fill: none; stroke: #006d2c; stroke-width: 2.3; stroke-linejoin: miter"/>
   </g>
   <g id="patch_34">
    <path d="M 827.834737 421.395403 
L 896.803519 421.395403 
L 896.803519 42.769126 
L 827.834737 42.769126 
L 827.834737 421.395403 
z
" clip-path="url(#p3511d2c0d1)" style="fill: none; stroke: #111111; stroke-width: 2.3; stroke-linejoin: miter"/>
   </g>
   <g id="matplotlib.axis_1">
    <g id="xtick_1">
     <g id="line2d_1">
      <defs>
       <path id="m859195b5f0" d="M 0 0 
L 0 3.5 
" style="stroke: #000000; stroke-width: 0.8"/>
      </defs>
      <g>
       <use xlink:href="#m859195b5f0" x="123.367892" y="421.395403" style="stroke: #000000; stroke-width: 0.8"/>
      </g>
     </g>
     <g id="text_1">
      <!-- Jade Gardens -->
      <g transform="translate(64.976131 478.618787) rotate(-42) scale(0.1 -0.1)">
       <defs>
        <path id="DejaVuSans-4a" d="M 628 4666 
L 1259 4666 
L 1259 325 
Q 1259 -519 939 -900 
Q 619 -1281 -91 -1281 
L -331 -1281 
L -331 -750 
L -134 -750 
Q 284 -750 456 -515 
Q 628 -281 628 325 
L 628 4666 
z
" transform="scale(0.015625)"/>
        <path id="DejaVuSans-61" d="M 2194 1759 
Q 1497 1759 1228 1600 
Q 959 1441 959 1056 
Q 959 750 1161 570 
Q 1363 391 1709 391 
Q 2188 391 2477 730 
Q 2766 1069 2766 1631 
L 2766 1759 
L 2194 1759 
z
M 3341 1997 
L 3341 0 
L 2766 0 
L 2766 531 
Q 2569 213 2275 61 
Q 1981 -91 1556 -91 
Q 1019 -91 701 211 
Q 384 513 384 1019 
Q 384 1609 779 1909 
Q 1175 2209 1959 2209 
L 2766 2209 
L 2766 2266 
Q 2766 2663 2505 2880 
Q 2244 3097 1772 3097 
Q 1472 3097 1187 3025 
Q 903 2953 641 2809 
L 641 3341 
Q 956 3463 1253 3523 
Q 1550 3584 1831 3584 
Q 2591 3584 2966 3190 
Q 3341 2797 3341 1997 
z
" transform="scale(0.015625)"/>
        <path id="DejaVuSans-64" d="M 2906 2969 
L 2906 4863 
L 3481 4863 
L 3481 0 
L 2906 0 
L 2906 525 
Q 2725 213 2448 61 
Q 2172 -91 1784 -91 
Q 1150 -91 751 415 
Q 353 922 353 1747 
Q 353 2572 751 3078 
Q 1150 3584 1784 3584 
Q 2172 3584 2448 3432 
Q 2725 3281 2906 2969 
z
M 947 1747 
Q 947 1113 1208 752 
Q 1469 391 1925 391 
Q 2381 391 2643 752 
Q 2906 1113 2906 1747 
Q 2906 2381 2643 2742 
Q 2381 3103 1925 3103 
Q 1469 3103 1208 2742 
Q 947 2381 947 1747 
z
" transform="scale(0.015625)"/>
        <path id="DejaVuSans-65" d="M 3597 1894 
L 3597 1613 
L 953 1613 
Q 991 1019 1311 708 
Q 1631 397 2203 397 
Q 2534 397 2845 478 
Q 3156 559 3463 722 
L 3463 178 
Q 3153 47 2828 -22 
Q 2503 -91 2169 -91 
Q 1331 -91 842 396 
Q 353 884 353 1716 
Q 353 2575 817 3079 
Q 1281 3584 2069 3584 
Q 2775 3584 3186 3129 
Q 3597 2675 3597 1894 
z
M 3022 2063 
Q 3016 2534 2758 2815 
Q 2500 3097 2075 3097 
Q 1594 3097 1305 2825 
Q 1016 2553 972 2059 
L 3022 2063 
z
" transform="scale(0.015625)"/>
        <path id="DejaVuSans-20" transform="scale(0.015625)"/>
        <path id="DejaVuSans-47" d="M 3809 666 
L 3809 1919 
L 2778 1919 
L 2778 2438 
L 4434 2438 
L 4434 434 
Q 4069 175 3628 42 
Q 3188 -91 2688 -91 
Q 1594 -91 976 548 
Q 359 1188 359 2328 
Q 359 3472 976 4111 
Q 1594 4750 2688 4750 
Q 3144 4750 3555 4637 
Q 3966 4525 4313 4306 
L 4313 3634 
Q 3963 3931 3569 4081 
Q 3175 4231 2741 4231 
Q 1884 4231 1454 3753 
Q 1025 3275 1025 2328 
Q 1025 1384 1454 906 
Q 1884 428 2741 428 
Q 3075 428 3337 486 
Q 3600 544 3809 666 
z
" transform="scale(0.015625)"/>
        <path id="DejaVuSans-72" d="M 2631 2963 
Q 2534 3019 2420 3045 
Q 2306 3072 2169 3072 
Q 1681 3072 1420 2755 
Q 1159 2438 1159 1844 
L 1159 0 
L 581 0 
L 581 3500 
L 1159 3500 
L 1159 2956 
Q 1341 3275 1631 3429 
Q 1922 3584 2338 3584 
Q 2397 3584 2469 3576 
Q 2541 3569 2628 3553 
L 2631 2963 
z
" transform="scale(0.015625)"/>
        <path id="DejaVuSans-6e" d="M 3513 2113 
L 3513 0 
L 2938 0 
L 2938 2094 
Q 2938 2591 2744 2837 
Q 2550 3084 2163 3084 
Q 1697 3084 1428 2787 
Q 1159 2491 1159 1978 
L 1159 0 
L 581 0 
L 581 3500 
L 1159 3500 
L 1159 2956 
Q 1366 3272 1645 3428 
Q 1925 3584 2291 3584 
Q 2894 3584 3203 3211 
Q 3513 2838 3513 2113 
z
" transform="scale(0.015625)"/>
        <path id="DejaVuSans-73" d="M 2834 3397 
L 2834 2853 
Q 2591 2978 2328 3040 
Q 2066 3103 1784 3103 
Q 1356 3103 1142 2972 
Q 928 2841 928 2578 
Q 928 2378 1081 2264 
Q 1234 2150 1697 2047 
L 1894 2003 
Q 2506 1872 2764 1633 
Q 3022 1394 3022 966 
Q 3022 478 2636 193 
Q 2250 -91 1575 -91 
Q 1294 -91 989 -36 
Q 684 19 347 128 
L 347 722 
Q 666 556 975 473 
Q 1284 391 1588 391 
Q 1994 391 2212 530 
Q 2431 669 2431 922 
Q 2431 1156 2273 1281 
Q 2116 1406 1581 1522 
L 1381 1569 
Q 847 1681 609 1914 
Q 372 2147 372 2553 
Q 372 3047 722 3315 
Q 1072 3584 1716 3584 
Q 2034 3584 2315 3537 
Q 2597 3491 2834 3397 
z
" transform="scale(0.015625)"/>
       </defs>
       <use xlink:href="#DejaVuSans-4a"/>
       <use xlink:href="#DejaVuSans-61" transform="translate(29.492188 0)"/>
       <use xlink:href="#DejaVuSans-64" transform="translate(90.771484 0)"/>
       <use xlink:href="#DejaVuSans-65" transform="translate(154.248047 0)"/>
       <use xlink:href="#DejaVuSans-20" transform="translate(215.771484 0)"/>
       <use xlink:href="#DejaVuSans-47" transform="translate(247.558594 0)"/>
       <use xlink:href="#DejaVuSans-61" transform="translate(325.048828 0)"/>
       <use xlink:href="#DejaVuSans-72" transform="translate(386.328125 0)"/>
       <use xlink:href="#DejaVuSans-64" transform="translate(425.691406 0)"/>
       <use xlink:href="#DejaVuSans-65" transform="translate(489.167969 0)"/>
       <use xlink:href="#DejaVuSans-6e" transform="translate(550.691406 0)"/>
       <use xlink:href="#DejaVuSans-73" transform="translate(614.070312 0)"/>
      </g>
      <!-- refuge, bldg 0.05 -->
      <g transform="translate(58.049598 499.923608) rotate(-42) scale(0.1 -0.1)">
       <defs>
        <path id="DejaVuSans-66" d="M 2375 4863 
L 2375 4384 
L 1825 4384 
Q 1516 4384 1395 4259 
Q 1275 4134 1275 3809 
L 1275 3500 
L 2222 3500 
L 2222 3053 
L 1275 3053 
L 1275 0 
L 697 0 
L 697 3053 
L 147 3053 
L 147 3500 
L 697 3500 
L 697 3744 
Q 697 4328 969 4595 
Q 1241 4863 1831 4863 
L 2375 4863 
z
" transform="scale(0.015625)"/>
        <path id="DejaVuSans-75" d="M 544 1381 
L 544 3500 
L 1119 3500 
L 1119 1403 
Q 1119 906 1312 657 
Q 1506 409 1894 409 
Q 2359 409 2629 706 
Q 2900 1003 2900 1516 
L 2900 3500 
L 3475 3500 
L 3475 0 
L 2900 0 
L 2900 538 
Q 2691 219 2414 64 
Q 2138 -91 1772 -91 
Q 1169 -91 856 284 
Q 544 659 544 1381 
z
M 1991 3584 
L 1991 3584 
z
" transform="scale(0.015625)"/>
        <path id="DejaVuSans-67" d="M 2906 1791 
Q 2906 2416 2648 2759 
Q 2391 3103 1925 3103 
Q 1463 3103 1205 2759 
Q 947 2416 947 1791 
Q 947 1169 1205 825 
Q 1463 481 1925 481 
Q 2391 481 2648 825 
Q 2906 1169 2906 1791 
z
M 3481 434 
Q 3481 -459 3084 -895 
Q 2688 -1331 1869 -1331 
Q 1566 -1331 1297 -1286 
Q 1028 -1241 775 -1147 
L 775 -588 
Q 1028 -725 1275 -790 
Q 1522 -856 1778 -856 
Q 2344 -856 2625 -561 
Q 2906 -266 2906 331 
L 2906 616 
Q 2728 306 2450 153 
Q 2172 0 1784 0 
Q 1141 0 747 490 
Q 353 981 353 1791 
Q 353 2603 747 3093 
Q 1141 3584 1784 3584 
Q 2172 3584 2450 3431 
Q 2728 3278 2906 2969 
L 2906 3500 
L 3481 3500 
L 3481 434 
z
" transform="scale(0.015625)"/>
        <path id="DejaVuSans-2c" d="M 750 794 
L 1409 794 
L 1409 256 
L 897 -744 
L 494 -744 
L 750 256 
L 750 794 
z
" transform="scale(0.015625)"/>
        <path id="DejaVuSans-62" d="M 3116 1747 
Q 3116 2381 2855 2742 
Q 2594 3103 2138 3103 
Q 1681 3103 1420 2742 
Q 1159 2381 1159 1747 
Q 1159 1113 1420 752 
Q 1681 391 2138 391 
Q 2594 391 2855 752 
Q 3116 1113 3116 1747 
z
M 1159 2969 
Q 1341 3281 1617 3432 
Q 1894 3584 2278 3584 
Q 2916 3584 3314 3078 
Q 3713 2572 3713 1747 
Q 3713 922 3314 415 
Q 2916 -91 2278 -91 
Q 1894 -91 1617 61 
Q 1341 213 1159 525 
L 1159 0 
L 581 0 
L 581 4863 
L 1159 4863 
L 1159 2969 
z
" transform="scale(0.015625)"/>
        <path id="DejaVuSans-6c" d="M 603 4863 
L 1178 4863 
L 1178 0 
L 603 0 
L 603 4863 
z
" transform="scale(0.015625)"/>
        <path id="DejaVuSans-30" d="M 2034 4250 
Q 1547 4250 1301 3770 
Q 1056 3291 1056 2328 
Q 1056 1369 1301 889 
Q 1547 409 2034 409 
Q 2525 409 2770 889 
Q 3016 1369 3016 2328 
Q 3016 3291 2770 3770 
Q 2525 4250 2034 4250 
z
M 2034 4750 
Q 2819 4750 3233 4129 
Q 3647 3509 3647 2328 
Q 3647 1150 3233 529 
Q 2819 -91 2034 -91 
Q 1250 -91 836 529 
Q 422 1150 422 2328 
Q 422 3509 836 4129 
Q 1250 4750 2034 4750 
z
" transform="scale(0.015625)"/>
        <path id="DejaVuSans-2e" d="M 684 794 
L 1344 794 
L 1344 0 
L 684 0 
L 684 794 
z
" transform="scale(0.015625)"/>
        <path id="DejaVuSans-35" d="M 691 4666 
L 3169 4666 
L 3169 4134 
L 1269 4134 
L 1269 2991 
Q 1406 3038 1543 3061 
Q 1681 3084 1819 3084 
Q 2600 3084 3056 2656 
Q 3513 2228 3513 1497 
Q 3513 744 3044 326 
Q 2575 -91 1722 -91 
Q 1428 -91 1123 -41 
Q 819 9 494 109 
L 494 744 
Q 775 591 1075 516 
Q 1375 441 1709 441 
Q 2250 441 2565 725 
Q 2881 1009 2881 1497 
Q 2881 1984 2565 2268 
Q 2250 2553 1709 2553 
Q 1456 2553 1204 2497 
Q 953 2441 691 2322 
L 691 4666 
z
" transform="scale(0.015625)"/>
       </defs>
       <use xlink:href="#DejaVuSans-72"/>
       <use xlink:href="#DejaVuSans-65" transform="translate(38.863281 0)"/>
       <use xlink:href="#DejaVuSans-66" transform="translate(100.386719 0)"/>
       <use xlink:href="#DejaVuSans-75" transform="translate(135.591797 0)"/>
       <use xlink:href="#DejaVuSans-67" transform="translate(198.970703 0)"/>
       <use xlink:href="#DejaVuSans-65" transform="translate(262.447266 0)"/>
       <use xlink:href="#DejaVuSans-2c" transform="translate(323.970703 0)"/>
       <use xlink:href="#DejaVuSans-20" transform="translate(355.757812 0)"/>
       <use xlink:href="#DejaVuSans-62" transform="translate(387.544922 0)"/>
       <use xlink:href="#DejaVuSans-6c" transform="translate(451.021484 0)"/>
       <use xlink:href="#DejaVuSans-64" transform="translate(478.804688 0)"/>
       <use xlink:href="#DejaVuSans-67" transform="translate(542.28125 0)"/>
       <use xlink:href="#DejaVuSans-20" transform="translate(605.757812 0)"/>
       <use xlink:href="#DejaVuSans-30" transform="translate(637.544922 0)"/>
       <use xlink:href="#DejaVuSans-2e" transform="translate(701.167969 0)"/>
       <use xlink:href="#DejaVuSans-30" transform="translate(732.955078 0)"/>
       <use xlink:href="#DejaVuSans-35" transform="translate(796.578125 0)"/>
      </g>
     </g>
    </g>
    <g id="xtick_2">
     <g id="line2d_2">
      <g>
       <use xlink:href="#m859195b5f0" x="205.473585" y="421.395403" style="stroke: #000000; stroke-width: 0.8"/>
      </g>
     </g>
     <g id="text_2">
      <!-- Serendib Rise -->
      <g transform="translate(145.594373 479.958093) rotate(-42) scale(0.1 -0.1)">
       <defs>
        <path id="DejaVuSans-53" d="M 3425 4513 
L 3425 3897 
Q 3066 4069 2747 4153 
Q 2428 4238 2131 4238 
Q 1616 4238 1336 4038 
Q 1056 3838 1056 3469 
Q 1056 3159 1242 3001 
Q 1428 2844 1947 2747 
L 2328 2669 
Q 3034 2534 3370 2195 
Q 3706 1856 3706 1288 
Q 3706 609 3251 259 
Q 2797 -91 1919 -91 
Q 1588 -91 1214 -16 
Q 841 59 441 206 
L 441 856 
Q 825 641 1194 531 
Q 1563 422 1919 422 
Q 2459 422 2753 634 
Q 3047 847 3047 1241 
Q 3047 1584 2836 1778 
Q 2625 1972 2144 2069 
L 1759 2144 
Q 1053 2284 737 2584 
Q 422 2884 422 3419 
Q 422 4038 858 4394 
Q 1294 4750 2059 4750 
Q 2388 4750 2728 4690 
Q 3069 4631 3425 4513 
z
" transform="scale(0.015625)"/>
        <path id="DejaVuSans-69" d="M 603 3500 
L 1178 3500 
L 1178 0 
L 603 0 
L 603 3500 
z
M 603 4863 
L 1178 4863 
L 1178 4134 
L 603 4134 
L 603 4863 
z
" transform="scale(0.015625)"/>
        <path id="DejaVuSans-52" d="M 2841 2188 
Q 3044 2119 3236 1894 
Q 3428 1669 3622 1275 
L 4263 0 
L 3584 0 
L 2988 1197 
Q 2756 1666 2539 1819 
Q 2322 1972 1947 1972 
L 1259 1972 
L 1259 0 
L 628 0 
L 628 4666 
L 2053 4666 
Q 2853 4666 3247 4331 
Q 3641 3997 3641 3322 
Q 3641 2881 3436 2590 
Q 3231 2300 2841 2188 
z
M 1259 4147 
L 1259 2491 
L 2053 2491 
Q 2509 2491 2742 2702 
Q 2975 2913 2975 3322 
Q 2975 3731 2742 3939 
Q 2509 4147 2053 4147 
L 1259 4147 
z
" transform="scale(0.015625)"/>
       </defs>
       <use xlink:href="#DejaVuSans-53"/>
       <use xlink:href="#DejaVuSans-65" transform="translate(63.476562 0)"/>
       <use xlink:href="#DejaVuSans-72" transform="translate(125 0)"/>
       <use xlink:href="#DejaVuSans-65" transform="translate(163.863281 0)"/>
       <use xlink:href="#DejaVuSans-6e" transform="translate(225.386719 0)"/>
       <use xlink:href="#DejaVuSans-64" transform="translate(288.765625 0)"/>
       <use xlink:href="#DejaVuSans-69" transform="translate(352.242188 0)"/>
       <use xlink:href="#DejaVuSans-62" transform="translate(380.025391 0)"/>
       <use xlink:href="#DejaVuSans-20" transform="translate(443.501953 0)"/>
       <use xlink:href="#DejaVuSans-52" transform="translate(475.289062 0)"/>
       <use xlink:href="#DejaVuSans-69" transform="translate(544.771484 0)"/>
       <use xlink:href="#DejaVuSans-73" transform="translate(572.554688 0)"/>
       <use xlink:href="#DejaVuSans-65" transform="translate(624.654297 0)"/>
      </g>
      <!-- refuge, bldg 0.07 -->
      <g transform="translate(140.155291 499.923608) rotate(-42) scale(0.1 -0.1)">
       <defs>
        <path id="DejaVuSans-37" d="M 525 4666 
L 3525 4666 
L 3525 4397 
L 1831 0 
L 1172 0 
L 2766 4134 
L 525 4134 
L 525 4666 
z
" transform="scale(0.015625)"/>
       </defs>
       <use xlink:href="#DejaVuSans-72"/>
       <use xlink:href="#DejaVuSans-65" transform="translate(38.863281 0)"/>
       <use xlink:href="#DejaVuSans-66" transform="translate(100.386719 0)"/>
       <use xlink:href="#DejaVuSans-75" transform="translate(135.591797 0)"/>
       <use xlink:href="#DejaVuSans-67" transform="translate(198.970703 0)"/>
       <use xlink:href="#DejaVuSans-65" transform="translate(262.447266 0)"/>
       <use xlink:href="#DejaVuSans-2c" transform="translate(323.970703 0)"/>
       <use xlink:href="#DejaVuSans-20" transform="translate(355.757812 0)"/>
       <use xlink:href="#DejaVuSans-62" transform="translate(387.544922 0)"/>
       <use xlink:href="#DejaVuSans-6c" transform="translate(451.021484 0)"/>
       <use xlink:href="#DejaVuSans-64" transform="translate(478.804688 0)"/>
       <use xlink:href="#DejaVuSans-67" transform="translate(542.28125 0)"/>
       <use xlink:href="#DejaVuSans-20" transform="translate(605.757812 0)"/>
       <use xlink:href="#DejaVuSans-30" transform="translate(637.544922 0)"/>
       <use xlink:href="#DejaVuSans-2e" transform="translate(701.167969 0)"/>
       <use xlink:href="#DejaVuSans-30" transform="translate(732.955078 0)"/>
       <use xlink:href="#DejaVuSans-37" transform="translate(796.578125 0)"/>
      </g>
     </g>
    </g>
    <g id="xtick_3">
     <g id="line2d_3">
      <g>
       <use xlink:href="#m859195b5f0" x="287.579278" y="421.395403" style="stroke: #000000; stroke-width: 0.8"/>
      </g>
     </g>
     <g id="text_3">
      <!-- Taman Melati -->
      <g transform="translate(229.382592 478.44314) rotate(-42) scale(0.1 -0.1)">
       <defs>
        <path id="DejaVuSans-54" d="M -19 4666 
L 3928 4666 
L 3928 4134 
L 2272 4134 
L 2272 0 
L 1638 0 
L 1638 4134 
L -19 4134 
L -19 4666 
z
" transform="scale(0.015625)"/>
        <path id="DejaVuSans-6d" d="M 3328 2828 
Q 3544 3216 3844 3400 
Q 4144 3584 4550 3584 
Q 5097 3584 5394 3201 
Q 5691 2819 5691 2113 
L 5691 0 
L 5113 0 
L 5113 2094 
Q 5113 2597 4934 2840 
Q 4756 3084 4391 3084 
Q 3944 3084 3684 2787 
Q 3425 2491 3425 1978 
L 3425 0 
L 2847 0 
L 2847 2094 
Q 2847 2600 2669 2842 
Q 2491 3084 2119 3084 
Q 1678 3084 1418 2786 
Q 1159 2488 1159 1978 
L 1159 0 
L 581 0 
L 581 3500 
L 1159 3500 
L 1159 2956 
Q 1356 3278 1631 3431 
Q 1906 3584 2284 3584 
Q 2666 3584 2933 3390 
Q 3200 3197 3328 2828 
z
" transform="scale(0.015625)"/>
        <path id="DejaVuSans-4d" d="M 628 4666 
L 1569 4666 
L 2759 1491 
L 3956 4666 
L 4897 4666 
L 4897 0 
L 4281 0 
L 4281 4097 
L 3078 897 
L 2444 897 
L 1241 4097 
L 1241 0 
L 628 0 
L 628 4666 
z
" transform="scale(0.015625)"/>
        <path id="DejaVuSans-74" d="M 1172 4494 
L 1172 3500 
L 2356 3500 
L 2356 3053 
L 1172 3053 
L 1172 1153 
Q 1172 725 1289 603 
Q 1406 481 1766 481 
L 2356 481 
L 2356 0 
L 1766 0 
Q 1100 0 847 248 
Q 594 497 594 1153 
L 594 3053 
L 172 3053 
L 172 3500 
L 594 3500 
L 594 4494 
L 1172 4494 
z
" transform="scale(0.015625)"/>
       </defs>
       <use xlink:href="#DejaVuSans-54"/>
       <use xlink:href="#DejaVuSans-61" transform="translate(44.583984 0)"/>
       <use xlink:href="#DejaVuSans-6d" transform="translate(105.863281 0)"/>
       <use xlink:href="#DejaVuSans-61" transform="translate(203.275391 0)"/>
       <use xlink:href="#DejaVuSans-6e" transform="translate(264.554688 0)"/>
       <use xlink:href="#DejaVuSans-20" transform="translate(327.933594 0)"/>
       <use xlink:href="#DejaVuSans-4d" transform="translate(359.720703 0)"/>
       <use xlink:href="#DejaVuSans-65" transform="translate(446 0)"/>
       <use xlink:href="#DejaVuSans-6c" transform="translate(507.523438 0)"/>
       <use xlink:href="#DejaVuSans-61" transform="translate(535.306641 0)"/>
       <use xlink:href="#DejaVuSans-74" transform="translate(596.585938 0)"/>
       <use xlink:href="#DejaVuSans-69" transform="translate(635.794922 0)"/>
      </g>
      <!-- refuge, bldg 0.07 -->
      <g transform="translate(222.260984 499.923608) rotate(-42) scale(0.1 -0.1)">
       <use xlink:href="#DejaVuSans-72"/>
       <use xlink:href="#DejaVuSans-65" transform="translate(38.863281 0)"/>
       <use xlink:href="#DejaVuSans-66" transform="translate(100.386719 0)"/>
       <use xlink:href="#DejaVuSans-75" transform="translate(135.591797 0)"/>
       <use xlink:href="#DejaVuSans-67" transform="translate(198.970703 0)"/>
       <use xlink:href="#DejaVuSans-65" transform="translate(262.447266 0)"/>
       <use xlink:href="#DejaVuSans-2c" transform="translate(323.970703 0)"/>
       <use xlink:href="#DejaVuSans-20" transform="translate(355.757812 0)"/>
       <use xlink:href="#DejaVuSans-62" transform="translate(387.544922 0)"/>
       <use xlink:href="#DejaVuSans-6c" transform="translate(451.021484 0)"/>
       <use xlink:href="#DejaVuSans-64" transform="translate(478.804688 0)"/>
       <use xlink:href="#DejaVuSans-67" transform="translate(542.28125 0)"/>
       <use xlink:href="#DejaVuSans-20" transform="translate(605.757812 0)"/>
       <use xlink:href="#DejaVuSans-30" transform="translate(637.544922 0)"/>
       <use xlink:href="#DejaVuSans-2e" transform="translate(701.167969 0)"/>
       <use xlink:href="#DejaVuSans-30" transform="translate(732.955078 0)"/>
       <use xlink:href="#DejaVuSans-37" transform="translate(796.578125 0)"/>
      </g>
     </g>
    </g>
    <g id="xtick_4">
     <g id="line2d_4">
      <g>
       <use xlink:href="#m859195b5f0" x="369.684971" y="421.395403" style="stroke: #000000; stroke-width: 0.8"/>
      </g>
     </g>
     <g id="text_4">
      <!-- Kampong Lama -->
      <g transform="translate(302.72266 486.335744) rotate(-42) scale(0.1 -0.1)">
       <defs>
        <path id="DejaVuSans-4b" d="M 628 4666 
L 1259 4666 
L 1259 2694 
L 3353 4666 
L 4166 4666 
L 1850 2491 
L 4331 0 
L 3500 0 
L 1259 2247 
L 1259 0 
L 628 0 
L 628 4666 
z
" transform="scale(0.015625)"/>
        <path id="DejaVuSans-70" d="M 1159 525 
L 1159 -1331 
L 581 -1331 
L 581 3500 
L 1159 3500 
L 1159 2969 
Q 1341 3281 1617 3432 
Q 1894 3584 2278 3584 
Q 2916 3584 3314 3078 
Q 3713 2572 3713 1747 
Q 3713 922 3314 415 
Q 2916 -91 2278 -91 
Q 1894 -91 1617 61 
Q 1341 213 1159 525 
z
M 3116 1747 
Q 3116 2381 2855 2742 
Q 2594 3103 2138 3103 
Q 1681 3103 1420 2742 
Q 1159 2381 1159 1747 
Q 1159 1113 1420 752 
Q 1681 391 2138 391 
Q 2594 391 2855 752 
Q 3116 1113 3116 1747 
z
" transform="scale(0.015625)"/>
        <path id="DejaVuSans-6f" d="M 1959 3097 
Q 1497 3097 1228 2736 
Q 959 2375 959 1747 
Q 959 1119 1226 758 
Q 1494 397 1959 397 
Q 2419 397 2687 759 
Q 2956 1122 2956 1747 
Q 2956 2369 2687 2733 
Q 2419 3097 1959 3097 
z
M 1959 3584 
Q 2709 3584 3137 3096 
Q 3566 2609 3566 1747 
Q 3566 888 3137 398 
Q 2709 -91 1959 -91 
Q 1206 -91 779 398 
Q 353 888 353 1747 
Q 353 2609 779 3096 
Q 1206 3584 1959 3584 
z
" transform="scale(0.015625)"/>
        <path id="DejaVuSans-4c" d="M 628 4666 
L 1259 4666 
L 1259 531 
L 3531 531 
L 3531 0 
L 628 0 
L 628 4666 
z
" transform="scale(0.015625)"/>
       </defs>
       <use xlink:href="#DejaVuSans-4b"/>
       <use xlink:href="#DejaVuSans-61" transform="translate(63.826172 0)"/>
       <use xlink:href="#DejaVuSans-6d" transform="translate(125.105469 0)"/>
       <use xlink:href="#DejaVuSans-70" transform="translate(222.517578 0)"/>
       <use xlink:href="#DejaVuSans-6f" transform="translate(285.994141 0)"/>
       <use xlink:href="#DejaVuSans-6e" transform="translate(347.175781 0)"/>
       <use xlink:href="#DejaVuSans-67" transform="translate(410.554688 0)"/>
       <use xlink:href="#DejaVuSans-20" transform="translate(474.03125 0)"/>
       <use xlink:href="#DejaVuSans-4c" transform="translate(505.818359 0)"/>
       <use xlink:href="#DejaVuSans-61" transform="translate(561.53125 0)"/>
       <use xlink:href="#DejaVuSans-6d" transform="translate(622.810547 0)"/>
       <use xlink:href="#DejaVuSans-61" transform="translate(720.222656 0)"/>
      </g>
      <!-- hotspot, bldg 0.14 -->
      <g transform="translate(300.223644 503.654011) rotate(-42) scale(0.1 -0.1)">
       <defs>
        <path id="DejaVuSans-68" d="M 3513 2113 
L 3513 0 
L 2938 0 
L 2938 2094 
Q 2938 2591 2744 2837 
Q 2550 3084 2163 3084 
Q 1697 3084 1428 2787 
Q 1159 2491 1159 1978 
L 1159 0 
L 581 0 
L 581 4863 
L 1159 4863 
L 1159 2956 
Q 1366 3272 1645 3428 
Q 1925 3584 2291 3584 
Q 2894 3584 3203 3211 
Q 3513 2838 3513 2113 
z
" transform="scale(0.015625)"/>
        <path id="DejaVuSans-31" d="M 794 531 
L 1825 531 
L 1825 4091 
L 703 3866 
L 703 4441 
L 1819 4666 
L 2450 4666 
L 2450 531 
L 3481 531 
L 3481 0 
L 794 0 
L 794 531 
z
" transform="scale(0.015625)"/>
        <path id="DejaVuSans-34" d="M 2419 4116 
L 825 1625 
L 2419 1625 
L 2419 4116 
z
M 2253 4666 
L 3047 4666 
L 3047 1625 
L 3713 1625 
L 3713 1100 
L 3047 1100 
L 3047 0 
L 2419 0 
L 2419 1100 
L 313 1100 
L 313 1709 
L 2253 4666 
z
" transform="scale(0.015625)"/>
       </defs>
       <use xlink:href="#DejaVuSans-68"/>
       <use xlink:href="#DejaVuSans-6f" transform="translate(63.378906 0)"/>
       <use xlink:href="#DejaVuSans-74" transform="translate(124.560547 0)"/>
       <use xlink:href="#DejaVuSans-73" transform="translate(163.769531 0)"/>
       <use xlink:href="#DejaVuSans-70" transform="translate(215.869141 0)"/>
       <use xlink:href="#DejaVuSans-6f" transform="translate(279.345703 0)"/>
       <use xlink:href="#DejaVuSans-74" transform="translate(340.527344 0)"/>
       <use xlink:href="#DejaVuSans-2c" transform="translate(379.736328 0)"/>
       <use xlink:href="#DejaVuSans-20" transform="translate(411.523438 0)"/>
       <use xlink:href="#DejaVuSans-62" transform="translate(443.310547 0)"/>
       <use xlink:href="#DejaVuSans-6c" transform="translate(506.787109 0)"/>
       <use xlink:href="#DejaVuSans-64" transform="translate(534.570312 0)"/>
       <use xlink:href="#DejaVuSans-67" transform="translate(598.046875 0)"/>
       <use xlink:href="#DejaVuSans-20" transform="translate(661.523438 0)"/>
       <use xlink:href="#DejaVuSans-30" transform="translate(693.310547 0)"/>
       <use xlink:href="#DejaVuSans-2e" transform="translate(756.933594 0)"/>
       <use xlink:href="#DejaVuSans-31" transform="translate(788.720703 0)"/>
       <use xlink:href="#DejaVuSans-34" transform="translate(852.34375 0)"/>
      </g>
     </g>
    </g>
    <g id="xtick_5">
     <g id="line2d_5">
      <g>
       <use xlink:href="#m859195b5f0" x="451.790664" y="421.395403" style="stroke: #000000; stroke-width: 0.8"/>
      </g>
     </g>
     <g id="text_5">
      <!-- Dhobi Lines -->
      <g transform="translate(399.424181 473.193601) rotate(-42) scale(0.1 -0.1)">
       <defs>
        <path id="DejaVuSans-44" d="M 1259 4147 
L 1259 519 
L 2022 519 
Q 2988 519 3436 956 
Q 3884 1394 3884 2338 
Q 3884 3275 3436 3711 
Q 2988 4147 2022 4147 
L 1259 4147 
z
M 628 4666 
L 1925 4666 
Q 3281 4666 3915 4102 
Q 4550 3538 4550 2338 
Q 4550 1131 3912 565 
Q 3275 0 1925 0 
L 628 0 
L 628 4666 
z
" transform="scale(0.015625)"/>
       </defs>
       <use xlink:href="#DejaVuSans-44"/>
       <use xlink:href="#DejaVuSans-68" transform="translate(77.001953 0)"/>
       <use xlink:href="#DejaVuSans-6f" transform="translate(140.380859 0)"/>
       <use xlink:href="#DejaVuSans-62" transform="translate(201.5625 0)"/>
       <use xlink:href="#DejaVuSans-69" transform="translate(265.039062 0)"/>
       <use xlink:href="#DejaVuSans-20" transform="translate(292.822266 0)"/>
       <use xlink:href="#DejaVuSans-4c" transform="translate(324.609375 0)"/>
       <use xlink:href="#DejaVuSans-69" transform="translate(380.322266 0)"/>
       <use xlink:href="#DejaVuSans-6e" transform="translate(408.105469 0)"/>
       <use xlink:href="#DejaVuSans-65" transform="translate(471.484375 0)"/>
       <use xlink:href="#DejaVuSans-73" transform="translate(533.007812 0)"/>
      </g>
      <!-- hotspot, bldg 0.17 -->
      <g transform="translate(382.329337 503.654011) rotate(-42) scale(0.1 -0.1)">
       <use xlink:href="#DejaVuSans-68"/>
       <use xlink:href="#DejaVuSans-6f" transform="translate(63.378906 0)"/>
       <use xlink:href="#DejaVuSans-74" transform="translate(124.560547 0)"/>
       <use xlink:href="#DejaVuSans-73" transform="translate(163.769531 0)"/>
       <use xlink:href="#DejaVuSans-70" transform="translate(215.869141 0)"/>
       <use xlink:href="#DejaVuSans-6f" transform="translate(279.345703 0)"/>
       <use xlink:href="#DejaVuSans-74" transform="translate(340.527344 0)"/>
       <use xlink:href="#DejaVuSans-2c" transform="translate(379.736328 0)"/>
       <use xlink:href="#DejaVuSans-20" transform="translate(411.523438 0)"/>
       <use xlink:href="#DejaVuSans-62" transform="translate(443.310547 0)"/>
       <use xlink:href="#DejaVuSans-6c" transform="translate(506.787109 0)"/>
       <use xlink:href="#DejaVuSans-64" transform="translate(534.570312 0)"/>
       <use xlink:href="#DejaVuSans-67" transform="translate(598.046875 0)"/>
       <use xlink:href="#DejaVuSans-20" transform="translate(661.523438 0)"/>
       <use xlink:href="#DejaVuSans-30" transform="translate(693.310547 0)"/>
       <use xlink:href="#DejaVuSans-2e" transform="translate(756.933594 0)"/>
       <use xlink:href="#DejaVuSans-31" transform="translate(788.720703 0)"/>
       <use xlink:href="#DejaVuSans-37" transform="translate(852.34375 0)"/>
      </g>
     </g>
    </g>
    <g id="xtick_6">
     <g id="line2d_6">
      <g>
       <use xlink:href="#m859195b5f0" x="533.896356" y="421.395403" style="stroke: #000000; stroke-width: 0.8"/>
      </g>
     </g>
     <g id="text_6">
      <!-- Lusitano Square -->
      <g transform="translate(465.109857 487.978251) rotate(-42) scale(0.1 -0.1)">
       <defs>
        <path id="DejaVuSans-71" d="M 947 1747 
Q 947 1113 1208 752 
Q 1469 391 1925 391 
Q 2381 391 2643 752 
Q 2906 1113 2906 1747 
Q 2906 2381 2643 2742 
Q 2381 3103 1925 3103 
Q 1469 3103 1208 2742 
Q 947 2381 947 1747 
z
M 2906 525 
Q 2725 213 2448 61 
Q 2172 -91 1784 -91 
Q 1150 -91 751 415 
Q 353 922 353 1747 
Q 353 2572 751 3078 
Q 1150 3584 1784 3584 
Q 2172 3584 2448 3432 
Q 2725 3281 2906 2969 
L 2906 3500 
L 3481 3500 
L 3481 -1331 
L 2906 -1331 
L 2906 525 
z
" transform="scale(0.015625)"/>
       </defs>
       <use xlink:href="#DejaVuSans-4c"/>
       <use xlink:href="#DejaVuSans-75" transform="translate(53.962891 0)"/>
       <use xlink:href="#DejaVuSans-73" transform="translate(117.341797 0)"/>
       <use xlink:href="#DejaVuSans-69" transform="translate(169.441406 0)"/>
       <use xlink:href="#DejaVuSans-74" transform="translate(197.224609 0)"/>
       <use xlink:href="#DejaVuSans-61" transform="translate(236.433594 0)"/>
       <use xlink:href="#DejaVuSans-6e" transform="translate(297.712891 0)"/>
       <use xlink:href="#DejaVuSans-6f" transform="translate(361.091797 0)"/>
       <use xlink:href="#DejaVuSans-20" transform="translate(422.273438 0)"/>
       <use xlink:href="#DejaVuSans-53" transform="translate(454.060547 0)"/>
       <use xlink:href="#DejaVuSans-71" transform="translate(517.537109 0)"/>
       <use xlink:href="#DejaVuSans-75" transform="translate(581.013672 0)"/>
       <use xlink:href="#DejaVuSans-61" transform="translate(644.392578 0)"/>
       <use xlink:href="#DejaVuSans-72" transform="translate(705.671875 0)"/>
       <use xlink:href="#DejaVuSans-65" transform="translate(744.535156 0)"/>
      </g>
      <!-- core, bldg 0.20 -->
      <g transform="translate(476.561064 492.735681) rotate(-42) scale(0.1 -0.1)">
       <defs>
        <path id="DejaVuSans-63" d="M 3122 3366 
L 3122 2828 
Q 2878 2963 2633 3030 
Q 2388 3097 2138 3097 
Q 1578 3097 1268 2742 
Q 959 2388 959 1747 
Q 959 1106 1268 751 
Q 1578 397 2138 397 
Q 2388 397 2633 464 
Q 2878 531 3122 666 
L 3122 134 
Q 2881 22 2623 -34 
Q 2366 -91 2075 -91 
Q 1284 -91 818 406 
Q 353 903 353 1747 
Q 353 2603 823 3093 
Q 1294 3584 2113 3584 
Q 2378 3584 2631 3529 
Q 2884 3475 3122 3366 
z
" transform="scale(0.015625)"/>
        <path id="DejaVuSans-32" d="M 1228 531 
L 3431 531 
L 3431 0 
L 469 0 
L 469 531 
Q 828 903 1448 1529 
Q 2069 2156 2228 2338 
Q 2531 2678 2651 2914 
Q 2772 3150 2772 3378 
Q 2772 3750 2511 3984 
Q 2250 4219 1831 4219 
Q 1534 4219 1204 4116 
Q 875 4013 500 3803 
L 500 4441 
Q 881 4594 1212 4672 
Q 1544 4750 1819 4750 
Q 2544 4750 2975 4387 
Q 3406 4025 3406 3419 
Q 3406 3131 3298 2873 
Q 3191 2616 2906 2266 
Q 2828 2175 2409 1742 
Q 1991 1309 1228 531 
z
" transform="scale(0.015625)"/>
       </defs>
       <use xlink:href="#DejaVuSans-63"/>
       <use xlink:href="#DejaVuSans-6f" transform="translate(54.980469 0)"/>
       <use xlink:href="#DejaVuSans-72" transform="translate(116.162109 0)"/>
       <use xlink:href="#DejaVuSans-65" transform="translate(155.025391 0)"/>
       <use xlink:href="#DejaVuSans-2c" transform="translate(216.548828 0)"/>
       <use xlink:href="#DejaVuSans-20" transform="translate(248.335938 0)"/>
       <use xlink:href="#DejaVuSans-62" transform="translate(280.123047 0)"/>
       <use xlink:href="#DejaVuSans-6c" transform="translate(343.599609 0)"/>
       <use xlink:href="#DejaVuSans-64" transform="translate(371.382812 0)"/>
       <use xlink:href="#DejaVuSans-67" transform="translate(434.859375 0)"/>
       <use xlink:href="#DejaVuSans-20" transform="translate(498.335938 0)"/>
       <use xlink:href="#DejaVuSans-30" transform="translate(530.123047 0)"/>
       <use xlink:href="#DejaVuSans-2e" transform="translate(593.746094 0)"/>
       <use xlink:href="#DejaVuSans-32" transform="translate(625.533203 0)"/>
       <use xlink:href="#DejaVuSans-30" transform="translate(689.15625 0)"/>
      </g>
     </g>
    </g>
    <g id="xtick_7">
     <g id="line2d_7">
      <g>
       <use xlink:href="#m859195b5f0" x="616.002049" y="421.395403" style="stroke: #000000; stroke-width: 0.8"/>
      </g>
     </g>
     <g id="text_7">
      <!-- Mlima Moto -->
      <g transform="translate(564.002495 472.863218) rotate(-42) scale(0.1 -0.1)">
       <use xlink:href="#DejaVuSans-4d"/>
       <use xlink:href="#DejaVuSans-6c" transform="translate(86.279297 0)"/>
       <use xlink:href="#DejaVuSans-69" transform="translate(114.0625 0)"/>
       <use xlink:href="#DejaVuSans-6d" transform="translate(141.845703 0)"/>
       <use xlink:href="#DejaVuSans-61" transform="translate(239.257812 0)"/>
       <use xlink:href="#DejaVuSans-20" transform="translate(300.537109 0)"/>
       <use xlink:href="#DejaVuSans-4d" transform="translate(332.324219 0)"/>
       <use xlink:href="#DejaVuSans-6f" transform="translate(418.603516 0)"/>
       <use xlink:href="#DejaVuSans-74" transform="translate(479.785156 0)"/>
       <use xlink:href="#DejaVuSans-6f" transform="translate(518.994141 0)"/>
      </g>
      <!-- hotspot, bldg 0.34 -->
      <g transform="translate(546.540723 503.654011) rotate(-42) scale(0.1 -0.1)">
       <defs>
        <path id="DejaVuSans-33" d="M 2597 2516 
Q 3050 2419 3304 2112 
Q 3559 1806 3559 1356 
Q 3559 666 3084 287 
Q 2609 -91 1734 -91 
Q 1441 -91 1130 -33 
Q 819 25 488 141 
L 488 750 
Q 750 597 1062 519 
Q 1375 441 1716 441 
Q 2309 441 2620 675 
Q 2931 909 2931 1356 
Q 2931 1769 2642 2001 
Q 2353 2234 1838 2234 
L 1294 2234 
L 1294 2753 
L 1863 2753 
Q 2328 2753 2575 2939 
Q 2822 3125 2822 3475 
Q 2822 3834 2567 4026 
Q 2313 4219 1838 4219 
Q 1578 4219 1281 4162 
Q 984 4106 628 3988 
L 628 4550 
Q 988 4650 1302 4700 
Q 1616 4750 1894 4750 
Q 2613 4750 3031 4423 
Q 3450 4097 3450 3541 
Q 3450 3153 3228 2886 
Q 3006 2619 2597 2516 
z
" transform="scale(0.015625)"/>
       </defs>
       <use xlink:href="#DejaVuSans-68"/>
       <use xlink:href="#DejaVuSans-6f" transform="translate(63.378906 0)"/>
       <use xlink:href="#DejaVuSans-74" transform="translate(124.560547 0)"/>
       <use xlink:href="#DejaVuSans-73" transform="translate(163.769531 0)"/>
       <use xlink:href="#DejaVuSans-70" transform="translate(215.869141 0)"/>
       <use xlink:href="#DejaVuSans-6f" transform="translate(279.345703 0)"/>
       <use xlink:href="#DejaVuSans-74" transform="translate(340.527344 0)"/>
       <use xlink:href="#DejaVuSans-2c" transform="translate(379.736328 0)"/>
       <use xlink:href="#DejaVuSans-20" transform="translate(411.523438 0)"/>
       <use xlink:href="#DejaVuSans-62" transform="translate(443.310547 0)"/>
       <use xlink:href="#DejaVuSans-6c" transform="translate(506.787109 0)"/>
       <use xlink:href="#DejaVuSans-64" transform="translate(534.570312 0)"/>
       <use xlink:href="#DejaVuSans-67" transform="translate(598.046875 0)"/>
       <use xlink:href="#DejaVuSans-20" transform="translate(661.523438 0)"/>
       <use xlink:href="#DejaVuSans-30" transform="translate(693.310547 0)"/>
       <use xlink:href="#DejaVuSans-2e" transform="translate(756.933594 0)"/>
       <use xlink:href="#DejaVuSans-33" transform="translate(788.720703 0)"/>
       <use xlink:href="#DejaVuSans-34" transform="translate(852.34375 0)"/>
      </g>
     </g>
    </g>
    <g id="xtick_8">
     <g id="line2d_8">
      <g>
       <use xlink:href="#m859195b5f0" x="698.107742" y="421.395403" style="stroke: #000000; stroke-width: 0.8"/>
      </g>
     </g>
     <g id="text_8">
      <!-- Victoria Exchange -->
      <g transform="translate(622.346132 494.258669) rotate(-42) scale(0.1 -0.1)">
       <defs>
        <path id="DejaVuSans-56" d="M 1831 0 
L 50 4666 
L 709 4666 
L 2188 738 
L 3669 4666 
L 4325 4666 
L 2547 0 
L 1831 0 
z
" transform="scale(0.015625)"/>
        <path id="DejaVuSans-45" d="M 628 4666 
L 3578 4666 
L 3578 4134 
L 1259 4134 
L 1259 2753 
L 3481 2753 
L 3481 2222 
L 1259 2222 
L 1259 531 
L 3634 531 
L 3634 0 
L 628 0 
L 628 4666 
z
" transform="scale(0.015625)"/>
        <path id="DejaVuSans-78" d="M 3513 3500 
L 2247 1797 
L 3578 0 
L 2900 0 
L 1881 1375 
L 863 0 
L 184 0 
L 1544 1831 
L 300 3500 
L 978 3500 
L 1906 2253 
L 2834 3500 
L 3513 3500 
z
" transform="scale(0.015625)"/>
       </defs>
       <use xlink:href="#DejaVuSans-56"/>
       <use xlink:href="#DejaVuSans-69" transform="translate(66.158203 0)"/>
       <use xlink:href="#DejaVuSans-63" transform="translate(93.941406 0)"/>
       <use xlink:href="#DejaVuSans-74" transform="translate(148.921875 0)"/>
       <use xlink:href="#DejaVuSans-6f" transform="translate(188.130859 0)"/>
       <use xlink:href="#DejaVuSans-72" transform="translate(249.3125 0)"/>
       <use xlink:href="#DejaVuSans-69" transform="translate(290.425781 0)"/>
       <use xlink:href="#DejaVuSans-61" transform="translate(318.208984 0)"/>
       <use xlink:href="#DejaVuSans-20" transform="translate(379.488281 0)"/>
       <use xlink:href="#DejaVuSans-45" transform="translate(411.275391 0)"/>
       <use xlink:href="#DejaVuSans-78" transform="translate(474.458984 0)"/>
       <use xlink:href="#DejaVuSans-63" transform="translate(531.888672 0)"/>
       <use xlink:href="#DejaVuSans-68" transform="translate(586.869141 0)"/>
       <use xlink:href="#DejaVuSans-61" transform="translate(650.248047 0)"/>
       <use xlink:href="#DejaVuSans-6e" transform="translate(711.527344 0)"/>
       <use xlink:href="#DejaVuSans-67" transform="translate(774.90625 0)"/>
       <use xlink:href="#DejaVuSans-65" transform="translate(838.382812 0)"/>
      </g>
      <!-- core, bldg 0.34 -->
      <g transform="translate(640.772449 492.735681) rotate(-42) scale(0.1 -0.1)">
       <use xlink:href="#DejaVuSans-63"/>
       <use xlink:href="#DejaVuSans-6f" transform="translate(54.980469 0)"/>
       <use xlink:href="#DejaVuSans-72" transform="translate(116.162109 0)"/>
       <use xlink:href="#DejaVuSans-65" transform="translate(155.025391 0)"/>
       <use xlink:href="#DejaVuSans-2c" transform="translate(216.548828 0)"/>
       <use xlink:href="#DejaVuSans-20" transform="translate(248.335938 0)"/>
       <use xlink:href="#DejaVuSans-62" transform="translate(280.123047 0)"/>
       <use xlink:href="#DejaVuSans-6c" transform="translate(343.599609 0)"/>
       <use xlink:href="#DejaVuSans-64" transform="translate(371.382812 0)"/>
       <use xlink:href="#DejaVuSans-67" transform="translate(434.859375 0)"/>
       <use xlink:href="#DejaVuSans-20" transform="translate(498.335938 0)"/>
       <use xlink:href="#DejaVuSans-30" transform="translate(530.123047 0)"/>
       <use xlink:href="#DejaVuSans-2e" transform="translate(593.746094 0)"/>
       <use xlink:href="#DejaVuSans-33" transform="translate(625.533203 0)"/>
       <use xlink:href="#DejaVuSans-34" transform="translate(689.15625 0)"/>
      </g>
     </g>
    </g>
    <g id="xtick_9">
     <g id="line2d_9">
      <g>
       <use xlink:href="#m859195b5f0" x="780.213435" y="421.395403" style="stroke: #000000; stroke-width: 0.8"/>
      </g>
     </g>
     <g id="text_9">
      <!-- Fuzhou Lanes -->
      <g transform="translate(720.676767 479.649666) rotate(-42) scale(0.1 -0.1)">
       <defs>
        <path id="DejaVuSans-46" d="M 628 4666 
L 3309 4666 
L 3309 4134 
L 1259 4134 
L 1259 2759 
L 3109 2759 
L 3109 2228 
L 1259 2228 
L 1259 0 
L 628 0 
L 628 4666 
z
" transform="scale(0.015625)"/>
        <path id="DejaVuSans-7a" d="M 353 3500 
L 3084 3500 
L 3084 2975 
L 922 459 
L 3084 459 
L 3084 0 
L 275 0 
L 275 525 
L 2438 3041 
L 353 3041 
L 353 3500 
z
" transform="scale(0.015625)"/>
       </defs>
       <use xlink:href="#DejaVuSans-46"/>
       <use xlink:href="#DejaVuSans-75" transform="translate(52.019531 0)"/>
       <use xlink:href="#DejaVuSans-7a" transform="translate(115.398438 0)"/>
       <use xlink:href="#DejaVuSans-68" transform="translate(167.888672 0)"/>
       <use xlink:href="#DejaVuSans-6f" transform="translate(231.267578 0)"/>
       <use xlink:href="#DejaVuSans-75" transform="translate(292.449219 0)"/>
       <use xlink:href="#DejaVuSans-20" transform="translate(355.828125 0)"/>
       <use xlink:href="#DejaVuSans-4c" transform="translate(387.615234 0)"/>
       <use xlink:href="#DejaVuSans-61" transform="translate(443.328125 0)"/>
       <use xlink:href="#DejaVuSans-6e" transform="translate(504.607422 0)"/>
       <use xlink:href="#DejaVuSans-65" transform="translate(567.986328 0)"/>
       <use xlink:href="#DejaVuSans-73" transform="translate(629.509766 0)"/>
      </g>
      <!-- hotspot, bldg 0.35 -->
      <g transform="translate(710.752109 503.654011) rotate(-42) scale(0.1 -0.1)">
       <use xlink:href="#DejaVuSans-68"/>
       <use xlink:href="#DejaVuSans-6f" transform="translate(63.378906 0)"/>
       <use xlink:href="#DejaVuSans-74" transform="translate(124.560547 0)"/>
       <use xlink:href="#DejaVuSans-73" transform="translate(163.769531 0)"/>
       <use xlink:href="#DejaVuSans-70" transform="translate(215.869141 0)"/>
       <use xlink:href="#DejaVuSans-6f" transform="translate(279.345703 0)"/>
       <use xlink:href="#DejaVuSans-74" transform="translate(340.527344 0)"/>
       <use xlink:href="#DejaVuSans-2c" transform="translate(379.736328 0)"/>
       <use xlink:href="#DejaVuSans-20" transform="translate(411.523438 0)"/>
       <use xlink:href="#DejaVuSans-62" transform="translate(443.310547 0)"/>
       <use xlink:href="#DejaVuSans-6c" transform="translate(506.787109 0)"/>
       <use xlink:href="#DejaVuSans-64" transform="translate(534.570312 0)"/>
       <use xlink:href="#DejaVuSans-67" transform="translate(598.046875 0)"/>
       <use xlink:href="#DejaVuSans-20" transform="translate(661.523438 0)"/>
       <use xlink:href="#DejaVuSans-30" transform="translate(693.310547 0)"/>
       <use xlink:href="#DejaVuSans-2e" transform="translate(756.933594 0)"/>
       <use xlink:href="#DejaVuSans-33" transform="translate(788.720703 0)"/>
       <use xlink:href="#DejaVuSans-35" transform="translate(852.34375 0)"/>
      </g>
     </g>
    </g>
    <g id="xtick_10">
     <g id="line2d_10">
      <g>
       <use xlink:href="#m859195b5f0" x="862.319128" y="421.395403" style="stroke: #000000; stroke-width: 0.8"/>
      </g>
     </g>
     <g id="text_10">
      <!-- Zheng He Towers -->
      <g transform="translate(789.350117 491.744202) rotate(-42) scale(0.1 -0.1)">
       <defs>
        <path id="DejaVuSans-5a" d="M 359 4666 
L 4025 4666 
L 4025 4184 
L 1075 531 
L 4097 531 
L 4097 0 
L 288 0 
L 288 481 
L 3238 4134 
L 359 4134 
L 359 4666 
z
" transform="scale(0.015625)"/>
        <path id="DejaVuSans-48" d="M 628 4666 
L 1259 4666 
L 1259 2753 
L 3553 2753 
L 3553 4666 
L 4184 4666 
L 4184 0 
L 3553 0 
L 3553 2222 
L 1259 2222 
L 1259 0 
L 628 0 
L 628 4666 
z
" transform="scale(0.015625)"/>
        <path id="DejaVuSans-77" d="M 269 3500 
L 844 3500 
L 1563 769 
L 2278 3500 
L 2956 3500 
L 3675 769 
L 4391 3500 
L 4966 3500 
L 4050 0 
L 3372 0 
L 2619 2869 
L 1863 0 
L 1184 0 
L 269 3500 
z
" transform="scale(0.015625)"/>
       </defs>
       <use xlink:href="#DejaVuSans-5a"/>
       <use xlink:href="#DejaVuSans-68" transform="translate(68.505859 0)"/>
       <use xlink:href="#DejaVuSans-65" transform="translate(131.884766 0)"/>
       <use xlink:href="#DejaVuSans-6e" transform="translate(193.408203 0)"/>
       <use xlink:href="#DejaVuSans-67" transform="translate(256.787109 0)"/>
       <use xlink:href="#DejaVuSans-20" transform="translate(320.263672 0)"/>
       <use xlink:href="#DejaVuSans-48" transform="translate(352.050781 0)"/>
       <use xlink:href="#DejaVuSans-65" transform="translate(427.246094 0)"/>
       <use xlink:href="#DejaVuSans-20" transform="translate(488.769531 0)"/>
       <use xlink:href="#DejaVuSans-54" transform="translate(520.556641 0)"/>
       <use xlink:href="#DejaVuSans-6f" transform="translate(564.640625 0)"/>
       <use xlink:href="#DejaVuSans-77" transform="translate(625.822266 0)"/>
       <use xlink:href="#DejaVuSans-65" transform="translate(707.609375 0)"/>
       <use xlink:href="#DejaVuSans-72" transform="translate(769.132812 0)"/>
       <use xlink:href="#DejaVuSans-73" transform="translate(810.246094 0)"/>
      </g>
      <!-- core, bldg 0.44 -->
      <g transform="translate(804.983835 492.735681) rotate(-42) scale(0.1 -0.1)">
       <use xlink:href="#DejaVuSans-63"/>
       <use xlink:href="#DejaVuSans-6f" transform="translate(54.980469 0)"/>
       <use xlink:href="#DejaVuSans-72" transform="translate(116.162109 0)"/>
       <use xlink:href="#DejaVuSans-65" transform="translate(155.025391 0)"/>
       <use xlink:href="#DejaVuSans-2c" transform="translate(216.548828 0)"/>
       <use xlink:href="#DejaVuSans-20" transform="translate(248.335938 0)"/>
       <use xlink:href="#DejaVuSans-62" transform="translate(280.123047 0)"/>
       <use xlink:href="#DejaVuSans-6c" transform="translate(343.599609 0)"/>
       <use xlink:href="#DejaVuSans-64" transform="translate(371.382812 0)"/>
       <use xlink:href="#DejaVuSans-67" transform="translate(434.859375 0)"/>
       <use xlink:href="#DejaVuSans-20" transform="translate(498.335938 0)"/>
       <use xlink:href="#DejaVuSans-30" transform="translate(530.123047 0)"/>
       <use xlink:href="#DejaVuSans-2e" transform="translate(593.746094 0)"/>
       <use xlink:href="#DejaVuSans-34" transform="translate(625.533203 0)"/>
       <use xlink:href="#DejaVuSans-34" transform="translate(689.15625 0)"/>
      </g>
     </g>
    </g>
   </g>
   <g id="matplotlib.axis_2">
    <g id="ytick_1">
     <g id="line2d_11">
      <path d="M 48.4875 421.395403 
L 937.19952 421.395403 
" clip-path="url(#p3511d2c0d1)" style="fill: none; stroke: #d9d9d9; stroke-opacity: 0.8; stroke-width: 0.8; stroke-linecap: square"/>
     </g>
     <g id="line2d_12">
      <defs>
       <path id="md75ec6f35a" d="M 0 0 
L -3.5 0 
" style="stroke: #000000; stroke-width: 0.8"/>
      </defs>
      <g>
       <use xlink:href="#md75ec6f35a" x="48.4875" y="421.395403" style="stroke: #000000; stroke-width: 0.8"/>
      </g>
     </g>
     <g id="text_11">
      <!-- 0 -->
      <g transform="translate(35.125 425.194621) scale(0.1 -0.1)">
       <use xlink:href="#DejaVuSans-30"/>
      </g>
     </g>
    </g>
    <g id="ytick_2">
     <g id="line2d_13">
      <path d="M 48.4875 372.193504 
L 937.19952 372.193504 
" clip-path="url(#p3511d2c0d1)" style="fill: none; stroke: #d9d9d9; stroke-opacity: 0.8; stroke-width: 0.8; stroke-linecap: square"/>
     </g>
     <g id="line2d_14">
      <g>
       <use xlink:href="#md75ec6f35a" x="48.4875" y="372.193504" style="stroke: #000000; stroke-width: 0.8"/>
      </g>
     </g>
     <g id="text_12">
      <!-- 50 -->
      <g transform="translate(28.7625 375.992723) scale(0.1 -0.1)">
       <use xlink:href="#DejaVuSans-35"/>
       <use xlink:href="#DejaVuSans-30" transform="translate(63.623047 0)"/>
      </g>
     </g>
    </g>
    <g id="ytick_3">
     <g id="line2d_15">
      <path d="M 48.4875 322.991605 
L 937.19952 322.991605 
" clip-path="url(#p3511d2c0d1)" style="fill: none; stroke: #d9d9d9; stroke-opacity: 0.8; stroke-width: 0.8; stroke-linecap: square"/>
     </g>
     <g id="line2d_16">
      <g>
       <use xlink:href="#md75ec6f35a" x="48.4875" y="322.991605" style="stroke: #000000; stroke-width: 0.8"/>
      </g>
     </g>
     <g id="text_13">
      <!-- 100 -->
      <g transform="translate(22.4 326.790824) scale(0.1 -0.1)">
       <use xlink:href="#DejaVuSans-31"/>
       <use xlink:href="#DejaVuSans-30" transform="translate(63.623047 0)"/>
       <use xlink:href="#DejaVuSans-30" transform="translate(127.246094 0)"/>
      </g>
     </g>
    </g>
    <g id="ytick_4">
     <g id="line2d_17">
      <path d="M 48.4875 273.789707 
L 937.19952 273.789707 
" clip-path="url(#p3511d2c0d1)" style="fill: none; stroke: #d9d9d9; stroke-opacity: 0.8; stroke-width: 0.8; stroke-linecap: square"/>
     </g>
     <g id="line2d_18">
      <g>
       <use xlink:href="#md75ec6f35a" x="48.4875" y="273.789707" style="stroke: #000000; stroke-width: 0.8"/>
      </g>
     </g>
     <g id="text_14">
      <!-- 150 -->
      <g transform="translate(22.4 277.588926) scale(0.1 -0.1)">
       <use xlink:href="#DejaVuSans-31"/>
       <use xlink:href="#DejaVuSans-35" transform="translate(63.623047 0)"/>
       <use xlink:href="#DejaVuSans-30" transform="translate(127.246094 0)"/>
      </g>
     </g>
    </g>
    <g id="ytick_5">
     <g id="line2d_19">
      <path d="M 48.4875 224.587808 
L 937.19952 224.587808 
" clip-path="url(#p3511d2c0d1)" style="fill: none; stroke: #d9d9d9; stroke-opacity: 0.8; stroke-width: 0.8; stroke-linecap: square"/>
     </g>
     <g id="line2d_20">
      <g>
       <use xlink:href="#md75ec6f35a" x="48.4875" y="224.587808" style="stroke: #000000; stroke-width: 0.8"/>
      </g>
     </g>
     <g id="text_15">
      <!-- 200 -->
      <g transform="translate(22.4 228.387027) scale(0.1 -0.1)">
       <use xlink:href="#DejaVuSans-32"/>
       <use xlink:href="#DejaVuSans-30" transform="translate(63.623047 0)"/>
       <use xlink:href="#DejaVuSans-30" transform="translate(127.246094 0)"/>
      </g>
     </g>
    </g>
    <g id="ytick_6">
     <g id="line2d_21">
      <path d="M 48.4875 175.38591 
L 937.19952 175.38591 
" clip-path="url(#p3511d2c0d1)" style="fill: none; stroke: #d9d9d9; stroke-opacity: 0.8; stroke-width: 0.8; stroke-linecap: square"/>
     </g>
     <g id="line2d_22">
      <g>
       <use xlink:href="#md75ec6f35a" x="48.4875" y="175.38591" style="stroke: #000000; stroke-width: 0.8"/>
      </g>
     </g>
     <g id="text_16">
      <!-- 250 -->
      <g transform="translate(22.4 179.185129) scale(0.1 -0.1)">
       <use xlink:href="#DejaVuSans-32"/>
       <use xlink:href="#DejaVuSans-35" transform="translate(63.623047 0)"/>
       <use xlink:href="#DejaVuSans-30" transform="translate(127.246094 0)"/>
      </g>
     </g>
    </g>
    <g id="ytick_7">
     <g id="line2d_23">
      <path d="M 48.4875 126.184011 
L 937.19952 126.184011 
" clip-path="url(#p3511d2c0d1)" style="fill: none; stroke: #d9d9d9; stroke-opacity: 0.8; stroke-width: 0.8; stroke-linecap: square"/>
     </g>
     <g id="line2d_24">
      <g>
       <use xlink:href="#md75ec6f35a" x="48.4875" y="126.184011" style="stroke: #000000; stroke-width: 0.8"/>
      </g>
     </g>
     <g id="text_17">
      <!-- 300 -->
      <g transform="translate(22.4 129.98323) scale(0.1 -0.1)">
       <use xlink:href="#DejaVuSans-33"/>
       <use xlink:href="#DejaVuSans-30" transform="translate(63.623047 0)"/>
       <use xlink:href="#DejaVuSans-30" transform="translate(127.246094 0)"/>
      </g>
     </g>
    </g>
    <g id="ytick_8">
     <g id="line2d_25">
      <path d="M 48.4875 76.982113 
L 937.19952 76.982113 
" clip-path="url(#p3511d2c0d1)" style="fill: none; stroke: #d9d9d9; stroke-opacity: 0.8; stroke-width: 0.8; stroke-linecap: square"/>
     </g>
     <g id="line2d_26">
      <g>
       <use xlink:href="#md75ec6f35a" x="48.4875" y="76.982113" style="stroke: #000000; stroke-width: 0.8"/>
      </g>
     </g>
     <g id="text_18">
      <!-- 350 -->
      <g transform="translate(22.4 80.781332) scale(0.1 -0.1)">
       <use xlink:href="#DejaVuSans-33"/>
       <use xlink:href="#DejaVuSans-35" transform="translate(63.623047 0)"/>
       <use xlink:href="#DejaVuSans-30" transform="translate(127.246094 0)"/>
      </g>
     </g>
    </g>
    <g id="ytick_9">
     <g id="line2d_27">
      <path d="M 48.4875 27.780214 
L 937.19952 27.780214 
" clip-path="url(#p3511d2c0d1)" style="fill: none; stroke: #d9d9d9; stroke-opacity: 0.8; stroke-width: 0.8; stroke-linecap: square"/>
     </g>
     <g id="line2d_28">
      <g>
       <use xlink:href="#md75ec6f35a" x="48.4875" y="27.780214" style="stroke: #000000; stroke-width: 0.8"/>
      </g>
     </g>
     <g id="text_19">
      <!-- 400 -->
      <g transform="translate(22.4 31.579433) scale(0.1 -0.1)">
       <use xlink:href="#DejaVuSans-34"/>
       <use xlink:href="#DejaVuSans-30" transform="translate(63.623047 0)"/>
       <use xlink:href="#DejaVuSans-30" transform="translate(127.246094 0)"/>
      </g>
     </g>
    </g>
    <g id="text_20">
     <!-- Mean daytime flux (W m$^{-2}$) -->
     <g transform="translate(16.3 291.466608) rotate(-90) scale(0.1 -0.1)">
      <defs>
       <path id="DejaVuSans-79" d="M 2059 -325 
Q 1816 -950 1584 -1140 
Q 1353 -1331 966 -1331 
L 506 -1331 
L 506 -850 
L 844 -850 
Q 1081 -850 1212 -737 
Q 1344 -625 1503 -206 
L 1606 56 
L 191 3500 
L 800 3500 
L 1894 763 
L 2988 3500 
L 3597 3500 
L 2059 -325 
z
" transform="scale(0.015625)"/>
       <path id="DejaVuSans-28" d="M 1984 4856 
Q 1566 4138 1362 3434 
Q 1159 2731 1159 2009 
Q 1159 1288 1364 580 
Q 1569 -128 1984 -844 
L 1484 -844 
Q 1016 -109 783 600 
Q 550 1309 550 2009 
Q 550 2706 781 3412 
Q 1013 4119 1484 4856 
L 1984 4856 
z
" transform="scale(0.015625)"/>
       <path id="DejaVuSans-57" d="M 213 4666 
L 850 4666 
L 1831 722 
L 2809 4666 
L 3519 4666 
L 4500 722 
L 5478 4666 
L 6119 4666 
L 4947 0 
L 4153 0 
L 3169 4050 
L 2175 0 
L 1381 0 
L 213 4666 
z
" transform="scale(0.015625)"/>
       <path id="DejaVuSans-2212" d="M 678 2272 
L 4684 2272 
L 4684 1741 
L 678 1741 
L 678 2272 
z
" transform="scale(0.015625)"/>
       <path id="DejaVuSans-29" d="M 513 4856 
L 1013 4856 
Q 1481 4119 1714 3412 
Q 1947 2706 1947 2009 
Q 1947 1309 1714 600 
Q 1481 -109 1013 -844 
L 513 -844 
Q 928 -128 1133 580 
Q 1338 1288 1338 2009 
Q 1338 2731 1133 3434 
Q 928 4138 513 4856 
z
" transform="scale(0.015625)"/>
      </defs>
      <use xlink:href="#DejaVuSans-4d" transform="translate(0 0.765625)"/>
      <use xlink:href="#DejaVuSans-65" transform="translate(86.279297 0.765625)"/>
      <use xlink:href="#DejaVuSans-61" transform="translate(147.802734 0.765625)"/>
      <use xlink:href="#DejaVuSans-6e" transform="translate(209.082031 0.765625)"/>
      <use xlink:href="#DejaVuSans-20" transform="translate(272.460938 0.765625)"/>
      <use xlink:href="#DejaVuSans-64" transform="translate(304.248047 0.765625)"/>
      <use xlink:href="#DejaVuSans-61" transform="translate(367.724609 0.765625)"/>
      <use xlink:href="#DejaVuSans-79" transform="translate(429.003906 0.765625)"/>
      <use xlink:href="#DejaVuSans-74" transform="translate(488.183594 0.765625)"/>
      <use xlink:href="#DejaVuSans-69" transform="translate(527.392578 0.765625)"/>
      <use xlink:href="#DejaVuSans-6d" transform="translate(555.175781 0.765625)"/>
      <use xlink:href="#DejaVuSans-65" transform="translate(652.587891 0.765625)"/>
      <use xlink:href="#DejaVuSans-20" transform="translate(714.111328 0.765625)"/>
      <use xlink:href="#DejaVuSans-66" transform="translate(745.898438 0.765625)"/>
      <use xlink:href="#DejaVuSans-6c" transform="translate(781.103516 0.765625)"/>
      <use xlink:href="#DejaVuSans-75" transform="translate(808.886719 0.765625)"/>
      <use xlink:href="#DejaVuSans-78" transform="translate(872.265625 0.765625)"/>
      <use xlink:href="#DejaVuSans-20" transform="translate(931.445312 0.765625)"/>
      <use xlink:href="#DejaVuSans-28" transform="translate(963.232422 0.765625)"/>
      <use xlink:href="#DejaVuSans-57" transform="translate(1002.246094 0.765625)"/>
      <use xlink:href="#DejaVuSans-20" transform="translate(1101.123047 0.765625)"/>
      <use xlink:href="#DejaVuSans-6d" transform="translate(1132.910156 0.765625)"/>
      <use xlink:href="#DejaVuSans-2212" transform="translate(1231.279297 39.046875) scale(0.7)"/>
      <use xlink:href="#DejaVuSans-32" transform="translate(1289.931641 39.046875) scale(0.7)"/>
      <use xlink:href="#DejaVuSans-29" transform="translate(1337.202148 0.765625)"/>
     </g>
    </g>
   </g>
   <g id="patch_35">
    <path d="M 48.4875 421.395403 
L 48.4875 23.837812 
" style="fill: none; stroke: #000000; stroke-width: 0.8; stroke-linejoin: miter; stroke-linecap: square"/>
   </g>
   <g id="patch_36">
    <path d="M 48.4875 421.395403 
L 937.19952 421.395403 
" style="fill: none; stroke: #000000; stroke-width: 0.8; stroke-linejoin: miter; stroke-linecap: square"/>
   </g>
   <g id="text_21">
    <!-- Present-day surface energy balance by land-cover zone -->
    <g transform="translate(48.4875 17.837812) scale(0.14 -0.14)">
     <defs>
      <path id="DejaVuSans-Bold-50" d="M 588 4666 
L 2584 4666 
Q 3475 4666 3951 4270 
Q 4428 3875 4428 3144 
Q 4428 2409 3951 2014 
Q 3475 1619 2584 1619 
L 1791 1619 
L 1791 0 
L 588 0 
L 588 4666 
z
M 1791 3794 
L 1791 2491 
L 2456 2491 
Q 2806 2491 2997 2661 
Q 3188 2831 3188 3144 
Q 3188 3456 2997 3625 
Q 2806 3794 2456 3794 
L 1791 3794 
z
" transform="scale(0.015625)"/>
      <path id="DejaVuSans-Bold-72" d="M 3138 2547 
Q 2991 2616 2845 2648 
Q 2700 2681 2553 2681 
Q 2122 2681 1889 2404 
Q 1656 2128 1656 1613 
L 1656 0 
L 538 0 
L 538 3500 
L 1656 3500 
L 1656 2925 
Q 1872 3269 2151 3426 
Q 2431 3584 2822 3584 
Q 2878 3584 2943 3579 
Q 3009 3575 3134 3559 
L 3138 2547 
z
" transform="scale(0.015625)"/>
      <path id="DejaVuSans-Bold-65" d="M 4031 1759 
L 4031 1441 
L 1416 1441 
Q 1456 1047 1700 850 
Q 1944 653 2381 653 
Q 2734 653 3104 758 
Q 3475 863 3866 1075 
L 3866 213 
Q 3469 63 3072 -14 
Q 2675 -91 2278 -91 
Q 1328 -91 801 392 
Q 275 875 275 1747 
Q 275 2603 792 3093 
Q 1309 3584 2216 3584 
Q 3041 3584 3536 3087 
Q 4031 2591 4031 1759 
z
M 2881 2131 
Q 2881 2450 2695 2645 
Q 2509 2841 2209 2841 
Q 1884 2841 1681 2658 
Q 1478 2475 1428 2131 
L 2881 2131 
z
" transform="scale(0.015625)"/>
      <path id="DejaVuSans-Bold-73" d="M 3272 3391 
L 3272 2541 
Q 2913 2691 2578 2766 
Q 2244 2841 1947 2841 
Q 1628 2841 1473 2761 
Q 1319 2681 1319 2516 
Q 1319 2381 1436 2309 
Q 1553 2238 1856 2203 
L 2053 2175 
Q 2913 2066 3209 1816 
Q 3506 1566 3506 1031 
Q 3506 472 3093 190 
Q 2681 -91 1863 -91 
Q 1516 -91 1145 -36 
Q 775 19 384 128 
L 384 978 
Q 719 816 1070 734 
Q 1422 653 1784 653 
Q 2113 653 2278 743 
Q 2444 834 2444 1013 
Q 2444 1163 2330 1236 
Q 2216 1309 1875 1350 
L 1678 1375 
Q 931 1469 631 1722 
Q 331 1975 331 2491 
Q 331 3047 712 3315 
Q 1094 3584 1881 3584 
Q 2191 3584 2531 3537 
Q 2872 3491 3272 3391 
z
" transform="scale(0.015625)"/>
      <path id="DejaVuSans-Bold-6e" d="M 4056 2131 
L 4056 0 
L 2931 0 
L 2931 347 
L 2931 1631 
Q 2931 2084 2911 2256 
Q 2891 2428 2841 2509 
Q 2775 2619 2662 2680 
Q 2550 2741 2406 2741 
Q 2056 2741 1856 2470 
Q 1656 2200 1656 1722 
L 1656 0 
L 538 0 
L 538 3500 
L 1656 3500 
L 1656 2988 
Q 1909 3294 2193 3439 
Q 2478 3584 2822 3584 
Q 3428 3584 3742 3212 
Q 4056 2841 4056 2131 
z
" transform="scale(0.015625)"/>
      <path id="DejaVuSans-Bold-74" d="M 1759 4494 
L 1759 3500 
L 2913 3500 
L 2913 2700 
L 1759 2700 
L 1759 1216 
Q 1759 972 1856 886 
Q 1953 800 2241 800 
L 2816 800 
L 2816 0 
L 1856 0 
Q 1194 0 917 276 
Q 641 553 641 1216 
L 641 2700 
L 84 2700 
L 84 3500 
L 641 3500 
L 641 4494 
L 1759 4494 
z
" transform="scale(0.015625)"/>
      <path id="DejaVuSans-Bold-2d" d="M 347 2297 
L 2309 2297 
L 2309 1388 
L 347 1388 
L 347 2297 
z
" transform="scale(0.015625)"/>
      <path id="DejaVuSans-Bold-64" d="M 2919 2988 
L 2919 4863 
L 4044 4863 
L 4044 0 
L 2919 0 
L 2919 506 
Q 2688 197 2409 53 
Q 2131 -91 1766 -91 
Q 1119 -91 703 423 
Q 288 938 288 1747 
Q 288 2556 703 3070 
Q 1119 3584 1766 3584 
Q 2128 3584 2408 3439 
Q 2688 3294 2919 2988 
z
M 2181 722 
Q 2541 722 2730 984 
Q 2919 1247 2919 1747 
Q 2919 2247 2730 2509 
Q 2541 2772 2181 2772 
Q 1825 2772 1636 2509 
Q 1447 2247 1447 1747 
Q 1447 1247 1636 984 
Q 1825 722 2181 722 
z
" transform="scale(0.015625)"/>
      <path id="DejaVuSans-Bold-61" d="M 2106 1575 
Q 1756 1575 1579 1456 
Q 1403 1338 1403 1106 
Q 1403 894 1545 773 
Q 1688 653 1941 653 
Q 2256 653 2472 879 
Q 2688 1106 2688 1447 
L 2688 1575 
L 2106 1575 
z
M 3816 1997 
L 3816 0 
L 2688 0 
L 2688 519 
Q 2463 200 2181 54 
Q 1900 -91 1497 -91 
Q 953 -91 614 226 
Q 275 544 275 1050 
Q 275 1666 698 1953 
Q 1122 2241 2028 2241 
L 2688 2241 
L 2688 2328 
Q 2688 2594 2478 2717 
Q 2269 2841 1825 2841 
Q 1466 2841 1156 2769 
Q 847 2697 581 2553 
L 581 3406 
Q 941 3494 1303 3539 
Q 1666 3584 2028 3584 
Q 2975 3584 3395 3211 
Q 3816 2838 3816 1997 
z
" transform="scale(0.015625)"/>
      <path id="DejaVuSans-Bold-79" d="M 78 3500 
L 1197 3500 
L 2138 1125 
L 2938 3500 
L 4056 3500 
L 2584 -331 
Q 2363 -916 2067 -1148 
Q 1772 -1381 1288 -1381 
L 641 -1381 
L 641 -647 
L 991 -647 
Q 1275 -647 1404 -556 
Q 1534 -466 1606 -231 
L 1638 -134 
L 78 3500 
z
" transform="scale(0.015625)"/>
      <path id="DejaVuSans-Bold-20" transform="scale(0.015625)"/>
      <path id="DejaVuSans-Bold-75" d="M 500 1363 
L 500 3500 
L 1625 3500 
L 1625 3150 
Q 1625 2866 1622 2436 
Q 1619 2006 1619 1863 
Q 1619 1441 1641 1255 
Q 1663 1069 1716 984 
Q 1784 875 1895 815 
Q 2006 756 2150 756 
Q 2500 756 2700 1025 
Q 2900 1294 2900 1772 
L 2900 3500 
L 4019 3500 
L 4019 0 
L 2900 0 
L 2900 506 
Q 2647 200 2364 54 
Q 2081 -91 1741 -91 
Q 1134 -91 817 281 
Q 500 653 500 1363 
z
" transform="scale(0.015625)"/>
      <path id="DejaVuSans-Bold-66" d="M 2841 4863 
L 2841 4128 
L 2222 4128 
Q 1984 4128 1890 4042 
Q 1797 3956 1797 3744 
L 1797 3500 
L 2753 3500 
L 2753 2700 
L 1797 2700 
L 1797 0 
L 678 0 
L 678 2700 
L 122 2700 
L 122 3500 
L 678 3500 
L 678 3744 
Q 678 4316 997 4589 
Q 1316 4863 1984 4863 
L 2841 4863 
z
" transform="scale(0.015625)"/>
      <path id="DejaVuSans-Bold-63" d="M 3366 3391 
L 3366 2478 
Q 3138 2634 2908 2709 
Q 2678 2784 2431 2784 
Q 1963 2784 1702 2511 
Q 1441 2238 1441 1747 
Q 1441 1256 1702 982 
Q 1963 709 2431 709 
Q 2694 709 2930 787 
Q 3166 866 3366 1019 
L 3366 103 
Q 3103 6 2833 -42 
Q 2563 -91 2291 -91 
Q 1344 -91 809 395 
Q 275 881 275 1747 
Q 275 2613 809 3098 
Q 1344 3584 2291 3584 
Q 2566 3584 2833 3536 
Q 3100 3488 3366 3391 
z
" transform="scale(0.015625)"/>
      <path id="DejaVuSans-Bold-67" d="M 2919 594 
Q 2688 288 2409 144 
Q 2131 0 1766 0 
Q 1125 0 706 504 
Q 288 1009 288 1791 
Q 288 2575 706 3076 
Q 1125 3578 1766 3578 
Q 2131 3578 2409 3434 
Q 2688 3291 2919 2981 
L 2919 3500 
L 4044 3500 
L 4044 353 
Q 4044 -491 3511 -936 
Q 2978 -1381 1966 -1381 
Q 1638 -1381 1331 -1331 
Q 1025 -1281 716 -1178 
L 716 -306 
Q 1009 -475 1290 -558 
Q 1572 -641 1856 -641 
Q 2406 -641 2662 -400 
Q 2919 -159 2919 353 
L 2919 594 
z
M 2181 2772 
Q 1834 2772 1640 2515 
Q 1447 2259 1447 1791 
Q 1447 1309 1634 1061 
Q 1822 813 2181 813 
Q 2531 813 2725 1069 
Q 2919 1325 2919 1791 
Q 2919 2259 2725 2515 
Q 2531 2772 2181 2772 
z
" transform="scale(0.015625)"/>
      <path id="DejaVuSans-Bold-62" d="M 2400 722 
Q 2759 722 2948 984 
Q 3138 1247 3138 1747 
Q 3138 2247 2948 2509 
Q 2759 2772 2400 2772 
Q 2041 2772 1848 2508 
Q 1656 2244 1656 1747 
Q 1656 1250 1848 986 
Q 2041 722 2400 722 
z
M 1656 2988 
Q 1888 3294 2169 3439 
Q 2450 3584 2816 3584 
Q 3463 3584 3878 3070 
Q 4294 2556 4294 1747 
Q 4294 938 3878 423 
Q 3463 -91 2816 -91 
Q 2450 -91 2169 54 
Q 1888 200 1656 506 
L 1656 0 
L 538 0 
L 538 4863 
L 1656 4863 
L 1656 2988 
z
" transform="scale(0.015625)"/>
      <path id="DejaVuSans-Bold-6c" d="M 538 4863 
L 1656 4863 
L 1656 0 
L 538 0 
L 538 4863 
z
" transform="scale(0.015625)"/>
      <path id="DejaVuSans-Bold-6f" d="M 2203 2784 
Q 1831 2784 1636 2517 
Q 1441 2250 1441 1747 
Q 1441 1244 1636 976 
Q 1831 709 2203 709 
Q 2569 709 2762 976 
Q 2956 1244 2956 1747 
Q 2956 2250 2762 2517 
Q 2569 2784 2203 2784 
z
M 2203 3584 
Q 3106 3584 3614 3096 
Q 4122 2609 4122 1747 
Q 4122 884 3614 396 
Q 3106 -91 2203 -91 
Q 1297 -91 786 396 
Q 275 884 275 1747 
Q 275 2609 786 3096 
Q 1297 3584 2203 3584 
z
" transform="scale(0.015625)"/>
      <path id="DejaVuSans-Bold-76" d="M 97 3500 
L 1216 3500 
L 2088 1081 
L 2956 3500 
L 4078 3500 
L 2700 0 
L 1472 0 
L 97 3500 
z
" transform="scale(0.015625)"/>
      <path id="DejaVuSans-Bold-7a" d="M 366 3500 
L 3419 3500 
L 3419 2719 
L 1575 800 
L 3419 800 
L 3419 0 
L 288 0 
L 288 781 
L 2131 2700 
L 366 2700 
L 366 3500 
z
" transform="scale(0.015625)"/>
     </defs>
     <use xlink:href="#DejaVuSans-Bold-50"/>
     <use xlink:href="#DejaVuSans-Bold-72" transform="translate(73.291016 0)"/>
     <use xlink:href="#DejaVuSans-Bold-65" transform="translate(122.607422 0)"/>
     <use xlink:href="#DejaVuSans-Bold-73" transform="translate(190.429688 0)"/>
     <use xlink:href="#DejaVuSans-Bold-65" transform="translate(249.951172 0)"/>
     <use xlink:href="#DejaVuSans-Bold-6e" transform="translate(317.773438 0)"/>
     <use xlink:href="#DejaVuSans-Bold-74" transform="translate(388.964844 0)"/>
     <use xlink:href="#DejaVuSans-Bold-2d" transform="translate(436.767578 0)"/>
     <use xlink:href="#DejaVuSans-Bold-64" transform="translate(478.271484 0)"/>
     <use xlink:href="#DejaVuSans-Bold-61" transform="translate(549.853516 0)"/>
     <use xlink:href="#DejaVuSans-Bold-79" transform="translate(614.208984 0)"/>
     <use xlink:href="#DejaVuSans-Bold-20" transform="translate(679.394531 0)"/>
     <use xlink:href="#DejaVuSans-Bold-73" transform="translate(714.208984 0)"/>
     <use xlink:href="#DejaVuSans-Bold-75" transform="translate(773.730469 0)"/>
     <use xlink:href="#DejaVuSans-Bold-72" transform="translate(844.921875 0)"/>
     <use xlink:href="#DejaVuSans-Bold-66" transform="translate(894.238281 0)"/>
     <use xlink:href="#DejaVuSans-Bold-61" transform="translate(937.744141 0)"/>
     <use xlink:href="#DejaVuSans-Bold-63" transform="translate(1005.224609 0)"/>
     <use xlink:href="#DejaVuSans-Bold-65" transform="translate(1064.501953 0)"/>
     <use xlink:href="#DejaVuSans-Bold-20" transform="translate(1132.324219 0)"/>
     <use xlink:href="#DejaVuSans-Bold-65" transform="translate(1167.138672 0)"/>
     <use xlink:href="#DejaVuSans-Bold-6e" transform="translate(1234.960938 0)"/>
     <use xlink:href="#DejaVuSans-Bold-65" transform="translate(1306.152344 0)"/>
     <use xlink:href="#DejaVuSans-Bold-72" transform="translate(1373.974609 0)"/>
     <use xlink:href="#DejaVuSans-Bold-67" transform="translate(1423.291016 0)"/>
     <use xlink:href="#DejaVuSans-Bold-79" transform="translate(1494.873047 0)"/>
     <use xlink:href="#DejaVuSans-Bold-20" transform="translate(1560.058594 0)"/>
     <use xlink:href="#DejaVuSans-Bold-62" transform="translate(1594.873047 0)"/>
     <use xlink:href="#DejaVuSans-Bold-61" transform="translate(1666.455078 0)"/>
     <use xlink:href="#DejaVuSans-Bold-6c" transform="translate(1733.935547 0)"/>
     <use xlink:href="#DejaVuSans-Bold-61" transform="translate(1768.212891 0)"/>
     <use xlink:href="#DejaVuSans-Bold-6e" transform="translate(1835.693359 0)"/>
     <use xlink:href="#DejaVuSans-Bold-63" transform="translate(1906.884766 0)"/>
     <use xlink:href="#DejaVuSans-Bold-65" transform="translate(1966.162109 0)"/>
     <use xlink:href="#DejaVuSans-Bold-20" transform="translate(2033.984375 0)"/>
     <use xlink:href="#DejaVuSans-Bold-62" transform="translate(2068.798828 0)"/>
     <use xlink:href="#DejaVuSans-Bold-79" transform="translate(2140.380859 0)"/>
     <use xlink:href="#DejaVuSans-Bold-20" transform="translate(2205.566406 0)"/>
     <use xlink:href="#DejaVuSans-Bold-6c" transform="translate(2240.380859 0)"/>
     <use xlink:href="#DejaVuSans-Bold-61" transform="translate(2274.658203 0)"/>
     <use xlink:href="#DejaVuSans-Bold-6e" transform="translate(2342.138672 0)"/>
     <use xlink:href="#DejaVuSans-Bold-64" transform="translate(2413.330078 0)"/>
     <use xlink:href="#DejaVuSans-Bold-2d" transform="translate(2484.912109 0)"/>
     <use xlink:href="#DejaVuSans-Bold-63" transform="translate(2526.416016 0)"/>
     <use xlink:href="#DejaVuSans-Bold-6f" transform="translate(2585.693359 0)"/>
     <use xlink:href="#DejaVuSans-Bold-76" transform="translate(2654.394531 0)"/>
     <use xlink:href="#DejaVuSans-Bold-65" transform="translate(2719.580078 0)"/>
     <use xlink:href="#DejaVuSans-Bold-72" transform="translate(2787.402344 0)"/>
     <use xlink:href="#DejaVuSans-Bold-20" transform="translate(2836.71875 0)"/>
     <use xlink:href="#DejaVuSans-Bold-7a" transform="translate(2871.533203 0)"/>
     <use xlink:href="#DejaVuSans-Bold-6f" transform="translate(2929.736328 0)"/>
     <use xlink:href="#DejaVuSans-Bold-6e" transform="translate(2998.4375 0)"/>
     <use xlink:href="#DejaVuSans-Bold-65" transform="translate(3069.628906 0)"/>
    </g>
   </g>
   <g id="PathCollection_1">
    <defs>
     <path id="m1d3e0ef323" d="M 0 4.690416 
L 4.690416 0 
L 0 -4.690416 
L -4.690416 0 
z
" style="stroke: #252525"/>
    </defs>
    <g clip-path="url(#p3511d2c0d1)">
     <use xlink:href="#m1d3e0ef323" x="123.367892" y="42.798296" style="fill: #252525; stroke: #252525"/>
     <use xlink:href="#m1d3e0ef323" x="205.473585" y="42.798296" style="fill: #252525; stroke: #252525"/>
     <use xlink:href="#m1d3e0ef323" x="287.579278" y="42.798296" style="fill: #252525; stroke: #252525"/>
     <use xlink:href="#m1d3e0ef323" x="369.684971" y="44.608399" style="fill: #252525; stroke: #252525"/>
     <use xlink:href="#m1d3e0ef323" x="451.790664" y="44.608399" style="fill: #252525; stroke: #252525"/>
     <use xlink:href="#m1d3e0ef323" x="533.896356" y="42.769126" style="fill: #252525; stroke: #252525"/>
     <use xlink:href="#m1d3e0ef323" x="616.002049" y="44.608399" style="fill: #252525; stroke: #252525"/>
     <use xlink:href="#m1d3e0ef323" x="698.107742" y="42.769126" style="fill: #252525; stroke: #252525"/>
     <use xlink:href="#m1d3e0ef323" x="780.213435" y="44.608399" style="fill: #252525; stroke: #252525"/>
     <use xlink:href="#m1d3e0ef323" x="862.319128" y="42.769126" style="fill: #252525; stroke: #252525"/>
    </g>
   </g>
   <g id="legend_1">
    <g id="PathCollection_2">
     <g>
      <use xlink:href="#m1d3e0ef323" x="67.4875" y="37.81125" style="fill: #252525; stroke: #252525"/>
     </g>
    </g>
    <g id="text_22">
     <!-- QN net radiation -->
     <g transform="translate(85.4875 40.43625) scale(0.1 -0.1)">
      <defs>
       <path id="DejaVuSans-51" d="M 2522 4238 
Q 1834 4238 1429 3725 
Q 1025 3213 1025 2328 
Q 1025 1447 1429 934 
Q 1834 422 2522 422 
Q 3209 422 3611 934 
Q 4013 1447 4013 2328 
Q 4013 3213 3611 3725 
Q 3209 4238 2522 4238 
z
M 3406 84 
L 4238 -825 
L 3475 -825 
L 2784 -78 
Q 2681 -84 2626 -87 
Q 2572 -91 2522 -91 
Q 1538 -91 948 567 
Q 359 1225 359 2328 
Q 359 3434 948 4092 
Q 1538 4750 2522 4750 
Q 3503 4750 4090 4092 
Q 4678 3434 4678 2328 
Q 4678 1516 4351 937 
Q 4025 359 3406 84 
z
" transform="scale(0.015625)"/>
       <path id="DejaVuSans-4e" d="M 628 4666 
L 1478 4666 
L 3547 763 
L 3547 4666 
L 4159 4666 
L 4159 0 
L 3309 0 
L 1241 3903 
L 1241 0 
L 628 0 
L 628 4666 
z
" transform="scale(0.015625)"/>
      </defs>
      <use xlink:href="#DejaVuSans-51"/>
      <use xlink:href="#DejaVuSans-4e" transform="translate(78.710938 0)"/>
      <use xlink:href="#DejaVuSans-20" transform="translate(153.515625 0)"/>
      <use xlink:href="#DejaVuSans-6e" transform="translate(185.302734 0)"/>
      <use xlink:href="#DejaVuSans-65" transform="translate(248.681641 0)"/>
      <use xlink:href="#DejaVuSans-74" transform="translate(310.205078 0)"/>
      <use xlink:href="#DejaVuSans-20" transform="translate(349.414062 0)"/>
      <use xlink:href="#DejaVuSans-72" transform="translate(381.201172 0)"/>
      <use xlink:href="#DejaVuSans-61" transform="translate(422.314453 0)"/>
      <use xlink:href="#DejaVuSans-64" transform="translate(483.59375 0)"/>
      <use xlink:href="#DejaVuSans-69" transform="translate(547.070312 0)"/>
      <use xlink:href="#DejaVuSans-61" transform="translate(574.853516 0)"/>
      <use xlink:href="#DejaVuSans-74" transform="translate(636.132812 0)"/>
      <use xlink:href="#DejaVuSans-69" transform="translate(675.341797 0)"/>
      <use xlink:href="#DejaVuSans-6f" transform="translate(703.125 0)"/>
      <use xlink:href="#DejaVuSans-6e" transform="translate(764.306641 0)"/>
     </g>
    </g>
    <g id="patch_37">
     <path d="M 188.25625 40.43625 
L 208.25625 40.43625 
L 208.25625 33.43625 
L 188.25625 33.43625 
z
" style="fill: #d73027"/>
    </g>
    <g id="text_23">
     <!-- QH sensible -->
     <g transform="translate(216.25625 40.43625) scale(0.1 -0.1)">
      <use xlink:href="#DejaVuSans-51"/>
      <use xlink:href="#DejaVuSans-48" transform="translate(78.710938 0)"/>
      <use xlink:href="#DejaVuSans-20" transform="translate(153.90625 0)"/>
      <use xlink:href="#DejaVuSans-73" transform="translate(185.693359 0)"/>
      <use xlink:href="#DejaVuSans-65" transform="translate(237.792969 0)"/>
      <use xlink:href="#DejaVuSans-6e" transform="translate(299.316406 0)"/>
      <use xlink:href="#DejaVuSans-73" transform="translate(362.695312 0)"/>
      <use xlink:href="#DejaVuSans-69" transform="translate(414.794922 0)"/>
      <use xlink:href="#DejaVuSans-62" transform="translate(442.578125 0)"/>
      <use xlink:href="#DejaVuSans-6c" transform="translate(506.054688 0)"/>
      <use xlink:href="#DejaVuSans-65" transform="translate(533.837891 0)"/>
     </g>
    </g>
    <g id="patch_38">
     <path d="M 295.79375 40.43625 
L 315.79375 40.43625 
L 315.79375 33.43625 
L 295.79375 33.43625 
z
" style="fill: #1a9850"/>
    </g>
    <g id="text_24">
     <!-- QE latent -->
     <g transform="translate(323.79375 40.43625) scale(0.1 -0.1)">
      <use xlink:href="#DejaVuSans-51"/>
      <use xlink:href="#DejaVuSans-45" transform="translate(78.710938 0)"/>
      <use xlink:href="#DejaVuSans-20" transform="translate(141.894531 0)"/>
      <use xlink:href="#DejaVuSans-6c" transform="translate(173.681641 0)"/>
      <use xlink:href="#DejaVuSans-61" transform="translate(201.464844 0)"/>
      <use xlink:href="#DejaVuSans-74" transform="translate(262.744141 0)"/>
      <use xlink:href="#DejaVuSans-65" transform="translate(301.953125 0)"/>
      <use xlink:href="#DejaVuSans-6e" transform="translate(363.476562 0)"/>
      <use xlink:href="#DejaVuSans-74" transform="translate(426.855469 0)"/>
     </g>
    </g>
    <g id="patch_39">
     <path d="M 390.4 40.43625 
L 410.4 40.43625 
L 410.4 33.43625 
L 390.4 33.43625 
z
" style="fill: #fdae61"/>
    </g>
    <g id="text_25">
     <!-- QS storage -->
     <g transform="translate(418.4 40.43625) scale(0.1 -0.1)">
      <use xlink:href="#DejaVuSans-51"/>
      <use xlink:href="#DejaVuSans-53" transform="translate(78.710938 0)"/>
      <use xlink:href="#DejaVuSans-20" transform="translate(142.1875 0)"/>
      <use xlink:href="#DejaVuSans-73" transform="translate(173.974609 0)"/>
      <use xlink:href="#DejaVuSans-74" transform="translate(226.074219 0)"/>
      <use xlink:href="#DejaVuSans-6f" transform="translate(265.283203 0)"/>
      <use xlink:href="#DejaVuSans-72" transform="translate(326.464844 0)"/>
      <use xlink:href="#DejaVuSans-61" transform="translate(367.578125 0)"/>
      <use xlink:href="#DejaVuSans-67" transform="translate(428.857422 0)"/>
      <use xlink:href="#DejaVuSans-65" transform="translate(492.333984 0)"/>
     </g>
    </g>
   </g>
  </g>
 </g>
 <defs>
  <clipPath id="p3511d2c0d1">
   <rect x="48.4875" y="23.837812" width="888.71202" height="397.55759"/>
  </clipPath>
 </defs>
</svg>
