<?xml version="1.0" encoding="utf-8" standalone="no"?>
<!DOCTYPE svg PUBLIC "-//W3C//DTD SVG 1.1//EN"
  "http://www.w3.org/Graphics/SVG/1.1/DTD/svg11.dtd">
<svg xmlns:xlink="http://www.w3.org/1999/xlink" width="728.923125pt" height="478.19625pt" viewBox="0 0 728.923125 478.19625" xmlns="http://www.w3.org/2000/svg" version="1.1">
 <metadata>
  <rdf:RDF xmlns:dc="http://purl.org/dc/elements/1.1/" xmlns:cc="http://creativecommons.org/ns#" xmlns:rdf="http://www.w3.org/1999/02/22-rdf-syntax-ns#">
   <cc:Work>
    <dc:type rdf:resource="http://purl.org/dc/dcmitype/StillImage"/>
    <dc:date>2026-06-24T15:50:52.583761</dc:date>
    <dc:format>image/svg+xml</dc:format>
    <dc:creator>
     <cc:Agent>
      <dc:title>Matplotlib v3.10.9, https://matplotlib.org/</dc:title>
     </cc:Agent>
    </dc:creator>
   </cc:Work>
  </rdf:RDF>
 </metadata>
 <defs>
  <style type="text/css">*{stroke-linejoin: round; stroke-linecap: butt}</style>
 </defs>
 <g id="figure_1">
  <g id="patch_1">
   <path d="M 0 478.19625 
L 728.923125 478.19625 
L 728.923125 0 
L 0 0 
z
" style="fill: #ffffff"/>
  </g>
  <g id="axes_1">
   <g id="patch_2">
    <path d="M 62.64 440.64 
L 688.32 440.64 
L 688.32 108 
L 62.64 108 
z
" style="fill: #ffffff"/>
   </g>
   <g id="matplotlib.axis_1">
    <g id="xtick_1">
     <g id="line2d_1">
      <path d="M 62.64 440.64 
L 62.64 108 
" clip-path="url(#p966c669316)" style="fill: none; stroke: #d9d9d9; stroke-opacity: 0.8; stroke-width: 0.8; stroke-linecap: square"/>
     </g>
     <g id="line2d_2">
      <defs>
       <path id="mbac7a0e0c8" d="M 0 0 
L 0 3.5 
" style="stroke: #000000; stroke-width: 0.8"/>
      </defs>
      <g>
       <use xlink:href="#mbac7a0e0c8" x="62.64" y="440.64" style="stroke: #000000; stroke-width: 0.8"/>
      </g>
     </g>
     <g id="text_1">
      <!-- 0 -->
      <g transform="translate(59.45875 455.238437) scale(0.1 -0.1)">
       <defs>
        <path id="DejaVuSans-30" d="M 2034 4250 
Q 1547 4250 1301 3770 
Q 1056 3291 1056 2328 
Q 1056 1369 1301 889 
Q 1547 409 2034 409 
Q 2525 409 2770 889 
Q 3016 1369 3016 2328 
Q 3016 3291 2770 3770 
Q 2525 4250 2034 4250 
z
M 2034 4750 
Q 2819 4750 3233 4129 
Q 3647 3509 3647 2328 
Q 3647 1150 3233 529 
Q 2819 -91 2034 -91 
Q 1250 -91 836 529 
Q 422 1150 422 2328 
Q 422 3509 836 4129 
Q 1250 4750 2034 4750 
z
" transform="scale(0.015625)"/>
       </defs>
       <use xlink:href="#DejaVuSans-30"/>
      </g>
     </g>
    </g>
    <g id="xtick_2">
     <g id="line2d_3">
      <path d="M 117.046957 440.64 
L 117.046957 108 
" clip-path="url(#p966c669316)" style="fill: none; stroke: #d9d9d9; stroke-opacity: 0.8; stroke-width: 0.8; stroke-linecap: square"/>
     </g>
     <g id="line2d_4">
      <g>
       <use xlink:href="#mbac7a0e0c8" x="117.046957" y="440.64" style="stroke: #000000; stroke-width: 0.8"/>
      </g>
     </g>
     <g id="text_2">
      <!-- 2 -->
      <g transform="translate(113.865707 455.238437) scale(0.1 -0.1)">
       <defs>
        <path id="DejaVuSans-32" d="M 1228 531 
L 3431 531 
L 3431 0 
L 469 0 
L 469 531 
Q 828 903 1448 1529 
Q 2069 2156 2228 2338 
Q 2531 2678 2651 2914 
Q 2772 3150 2772 3378 
Q 2772 3750 2511 3984 
Q 2250 4219 1831 4219 
Q 1534 4219 1204 4116 
Q 875 4013 500 3803 
L 500 4441 
Q 881 4594 1212 4672 
Q 1544 4750 1819 4750 
Q 2544 4750 2975 4387 
Q 3406 4025 3406 3419 
Q 3406 3131 3298 2873 
Q 3191 2616 2906 2266 
Q 2828 2175 2409 1742 
Q 1991 1309 1228 531 
z
" transform="scale(0.015625)"/>
       </defs>
       <use xlink:href="#DejaVuSans-32"/>
      </g>
     </g>
    </g>
    <g id="xtick_3">
     <g id="line2d_5">
      <path d="M 171.453913 440.64 
L 171.453913 108 
" clip-path="url(#p966c669316)" style="fill: none; stroke: #d9d9d9; stroke-opacity: 0.8; stroke-width: 0.8; stroke-linecap: square"/>
     </g>
     <g id="line2d_6">
      <g>
       <use xlink:href="#mbac7a0e0c8" x="171.453913" y="440.64" style="stroke: #000000; stroke-width: 0.8"/>
      </g>
     </g>
     <g id="text_3">
      <!-- 4 -->
      <g transform="translate(168.272663 455.238437) scale(0.1 -0.1)">
       <defs>
        <path id="DejaVuSans-34" d="M 2419 4116 
L 825 1625 
L 2419 1625 
L 2419 4116 
z
M 2253 4666 
L 3047 4666 
L 3047 1625 
L 3713 1625 
L 3713 1100 
L 3047 1100 
L 3047 0 
L 2419 0 
L 2419 1100 
L 313 1100 
L 313 1709 
L 2253 4666 
z
" transform="scale(0.015625)"/>
       </defs>
       <use xlink:href="#DejaVuSans-34"/>
      </g>
     </g>
    </g>
    <g id="xtick_4">
     <g id="line2d_7">
      <path d="M 225.86087 440.64 
L 225.86087 108 
" clip-path="url(#p966c669316)" style="fill: none; stroke: #d9d9d9; stroke-opacity: 0.8; stroke-width: 0.8; stroke-linecap: square"/>
     </g>
     <g id="line2d_8">
      <g>
       <use xlink:href="#mbac7a0e0c8" x="225.86087" y="440.64" style="stroke: #000000; stroke-width: 0.8"/>
      </g>
     </g>
     <g id="text_4">
      <!-- 6 -->
      <g transform="translate(222.67962 455.238437) scale(0.1 -0.1)">
       <defs>
        <path id="DejaVuSans-36" d="M 2113 2584 
Q 1688 2584 1439 2293 
Q 1191 2003 1191 1497 
Q 1191 994 1439 701 
Q 1688 409 2113 409 
Q 2538 409 2786 701 
Q 3034 994 3034 1497 
Q 3034 2003 2786 2293 
Q 2538 2584 2113 2584 
z
M 3366 4563 
L 3366 3988 
Q 3128 4100 2886 4159 
Q 2644 4219 2406 4219 
Q 1781 4219 1451 3797 
Q 1122 3375 1075 2522 
Q 1259 2794 1537 2939 
Q 1816 3084 2150 3084 
Q 2853 3084 3261 2657 
Q 3669 2231 3669 1497 
Q 3669 778 3244 343 
Q 2819 -91 2113 -91 
Q 1303 -91 875 529 
Q 447 1150 447 2328 
Q 447 3434 972 4092 
Q 1497 4750 2381 4750 
Q 2619 4750 2861 4703 
Q 3103 4656 3366 4563 
z
" transform="scale(0.015625)"/>
       </defs>
       <use xlink:href="#DejaVuSans-36"/>
      </g>
     </g>
    </g>
    <g id="xtick_5">
     <g id="line2d_9">
      <path d="M 280.267826 440.64 
L 280.267826 108 
" clip-path="url(#p966c669316)" style="fill: none; stroke: #d9d9d9; stroke-opacity: 0.8; stroke-width: 0.8; stroke-linecap: square"/>
     </g>
     <g id="line2d_10">
      <g>
       <use xlink:href="#mbac7a0e0c8" x="280.267826" y="440.64" style="stroke: #000000; stroke-width: 0.8"/>
      </g>
     </g>
     <g id="text_5">
      <!-- 8 -->
      <g transform="translate(277.086576 455.238437) scale(0.1 -0.1)">
       <defs>
        <path id="DejaVuSans-38" d="M 2034 2216 
Q 1584 2216 1326 1975 
Q 1069 1734 1069 1313 
Q 1069 891 1326 650 
Q 1584 409 2034 409 
Q 2484 409 2743 651 
Q 3003 894 3003 1313 
Q 3003 1734 2745 1975 
Q 2488 2216 2034 2216 
z
M 1403 2484 
Q 997 2584 770 2862 
Q 544 3141 544 3541 
Q 544 4100 942 4425 
Q 1341 4750 2034 4750 
Q 2731 4750 3128 4425 
Q 3525 4100 3525 3541 
Q 3525 3141 3298 2862 
Q 3072 2584 2669 2484 
Q 3125 2378 3379 2068 
Q 3634 1759 3634 1313 
Q 3634 634 3220 271 
Q 2806 -91 2034 -91 
Q 1263 -91 848 271 
Q 434 634 434 1313 
Q 434 1759 690 2068 
Q 947 2378 1403 2484 
z
M 1172 3481 
Q 1172 3119 1398 2916 
Q 1625 2713 2034 2713 
Q 2441 2713 2670 2916 
Q 2900 3119 2900 3481 
Q 2900 3844 2670 4047 
Q 2441 4250 2034 4250 
Q 1625 4250 1398 4047 
Q 1172 3844 1172 3481 
z
" transform="scale(0.015625)"/>
       </defs>
       <use xlink:href="#DejaVuSans-38"/>
      </g>
     </g>
    </g>
    <g id="xtick_6">
     <g id="line2d_11">
      <path d="M 334.674783 440.64 
L 334.674783 108 
" clip-path="url(#p966c669316)" style="fill: none; stroke: #d9d9d9; stroke-opacity: 0.8; stroke-width: 0.8; stroke-linecap: square"/>
     </g>
     <g id="line2d_12">
      <g>
       <use xlink:href="#mbac7a0e0c8" x="334.674783" y="440.64" style="stroke: #000000; stroke-width: 0.8"/>
      </g>
     </g>
     <g id="text_6">
      <!-- 10 -->
      <g transform="translate(328.312283 455.238437) scale(0.1 -0.1)">
       <defs>
        <path id="DejaVuSans-31" d="M 794 531 
L 1825 531 
L 1825 4091 
L 703 3866 
L 703 4441 
L 1819 4666 
L 2450 4666 
L 2450 531 
L 3481 531 
L 3481 0 
L 794 0 
L 794 531 
z
" transform="scale(0.015625)"/>
       </defs>
       <use xlink:href="#DejaVuSans-31"/>
       <use xlink:href="#DejaVuSans-30" transform="translate(63.623047 0)"/>
      </g>
     </g>
    </g>
    <g id="xtick_7">
     <g id="line2d_13">
      <path d="M 389.081739 440.64 
L 389.081739 108 
" clip-path="url(#p966c669316)" style="fill: none; stroke: #d9d9d9; stroke-opacity: 0.8; stroke-width: 0.8; stroke-linecap: square"/>
     </g>
     <g id="line2d_14">
      <g>
       <use xlink:href="#mbac7a0e0c8" x="389.081739" y="440.64" style="stroke: #000000; stroke-width: 0.8"/>
      </g>
     </g>
     <g id="text_7">
      <!-- 12 -->
      <g transform="translate(382.719239 455.238437) scale(0.1 -0.1)">
       <use xlink:href="#DejaVuSans-31"/>
       <use xlink:href="#DejaVuSans-32" transform="translate(63.623047 0)"/>
      </g>
     </g>
    </g>
    <g id="xtick_8">
     <g id="line2d_15">
      <path d="M 443.488696 440.64 
L 443.488696 108 
" clip-path="url(#p966c669316)" style="fill: none; stroke: #d9d9d9; stroke-opacity: 0.8; stroke-width: 0.8; stroke-linecap: square"/>
     </g>
     <g id="line2d_16">
      <g>
       <use xlink:href="#mbac7a0e0c8" x="443.488696" y="440.64" style="stroke: #000000; stroke-width: 0.8"/>
      </g>
     </g>
     <g id="text_8">
      <!-- 14 -->
      <g transform="translate(437.126196 455.238437) scale(0.1 -0.1)">
       <use xlink:href="#DejaVuSans-31"/>
       <use xlink:href="#DejaVuSans-34" transform="translate(63.623047 0)"/>
      </g>
     </g>
    </g>
    <g id="xtick_9">
     <g id="line2d_17">
      <path d="M 497.895652 440.64 
L 497.895652 108 
" clip-path="url(#p966c669316)" style="fill: none; stroke: #d9d9d9; stroke-opacity: 0.8; stroke-width: 0.8; stroke-linecap: square"/>
     </g>
     <g id="line2d_18">
      <g>
       <use xlink:href="#mbac7a0e0c8" x="497.895652" y="440.64" style="stroke: #000000; stroke-width: 0.8"/>
      </g>
     </g>
     <g id="text_9">
      <!-- 16 -->
      <g transform="translate(491.533152 455.238437) scale(0.1 -0.1)">
       <use xlink:href="#DejaVuSans-31"/>
       <use xlink:href="#DejaVuSans-36" transform="translate(63.623047 0)"/>
      </g>
     </g>
    </g>
    <g id="xtick_10">
     <g id="line2d_19">
      <path d="M 552.302609 440.64 
L 552.302609 108 
" clip-path="url(#p966c669316)" style="fill: none; stroke: #d9d9d9; stroke-opacity: 0.8; stroke-width: 0.8; stroke-linecap: square"/>
     </g>
     <g id="line2d_20">
      <g>
       <use xlink:href="#mbac7a0e0c8" x="552.302609" y="440.64" style="stroke: #000000; stroke-width: 0.8"/>
      </g>
     </g>
     <g id="text_10">
      <!-- 18 -->
      <g transform="translate(545.940109 455.238437) scale(0.1 -0.1)">
       <use xlink:href="#DejaVuSans-31"/>
       <use xlink:href="#DejaVuSans-38" transform="translate(63.623047 0)"/>
      </g>
     </g>
    </g>
    <g id="xtick_11">
     <g id="line2d_21">
      <path d="M 606.709565 440.64 
L 606.709565 108 
" clip-path="url(#p966c669316)" style="fill: none; stroke: #d9d9d9; stroke-opacity: 0.8; stroke-width: 0.8; stroke-linecap: square"/>
     </g>
     <g id="line2d_22">
      <g>
       <use xlink:href="#mbac7a0e0c8" x="606.709565" y="440.64" style="stroke: #000000; stroke-width: 0.8"/>
      </g>
     </g>
     <g id="text_11">
      <!-- 20 -->
      <g transform="translate(600.347065 455.238437) scale(0.1 -0.1)">
       <use xlink:href="#DejaVuSans-32"/>
       <use xlink:href="#DejaVuSans-30" transform="translate(63.623047 0)"/>
      </g>
     </g>
    </g>
    <g id="xtick_12">
     <g id="line2d_23">
      <path d="M 661.116522 440.64 
L 661.116522 108 
" clip-path="url(#p966c669316)" style="fill: none; stroke: #d9d9d9; stroke-opacity: 0.8; stroke-width: 0.8; stroke-linecap: square"/>
     </g>
     <g id="line2d_24">
      <g>
       <use xlink:href="#mbac7a0e0c8" x="661.116522" y="440.64" style="stroke: #000000; stroke-width: 0.8"/>
      </g>
     </g>
     <g id="text_12">
      <!-- 22 -->
      <g transform="translate(654.754022 455.238437) scale(0.1 -0.1)">
       <use xlink:href="#DejaVuSans-32"/>
       <use xlink:href="#DejaVuSans-32" transform="translate(63.623047 0)"/>
      </g>
     </g>
    </g>
    <g id="text_13">
     <!-- Local hour -->
     <g transform="translate(349.478438 468.916562) scale(0.1 -0.1)">
      <defs>
       <path id="DejaVuSans-4c" d="M 628 4666 
L 1259 4666 
L 1259 531 
L 3531 531 
L 3531 0 
L 628 0 
L 628 4666 
z
" transform="scale(0.015625)"/>
       <path id="DejaVuSans-6f" d="M 1959 3097 
Q 1497 3097 1228 2736 
Q 959 2375 959 1747 
Q 959 1119 1226 758 
Q 1494 397 1959 397 
Q 2419 397 2687 759 
Q 2956 1122 2956 1747 
Q 2956 2369 2687 2733 
Q 2419 3097 1959 3097 
z
M 1959 3584 
Q 2709 3584 3137 3096 
Q 3566 2609 3566 1747 
Q 3566 888 3137 398 
Q 2709 -91 1959 -91 
Q 1206 -91 779 398 
Q 353 888 353 1747 
Q 353 2609 779 3096 
Q 1206 3584 1959 3584 
z
" transform="scale(0.015625)"/>
       <path id="DejaVuSans-63" d="M 3122 3366 
L 3122 2828 
Q 2878 2963 2633 3030 
Q 2388 3097 2138 3097 
Q 1578 3097 1268 2742 
Q 959 2388 959 1747 
Q 959 1106 1268 751 
Q 1578 397 2138 397 
Q 2388 397 2633 464 
Q 2878 531 3122 666 
L 3122 134 
Q 2881 22 2623 -34 
Q 2366 -91 2075 -91 
Q 1284 -91 818 406 
Q 353 903 353 1747 
Q 353 2603 823 3093 
Q 1294 3584 2113 3584 
Q 2378 3584 2631 3529 
Q 2884 3475 3122 3366 
z
" transform="scale(0.015625)"/>
       <path id="DejaVuSans-61" d="M 2194 1759 
Q 1497 1759 1228 1600 
Q 959 1441 959 1056 
Q 959 750 1161 570 
Q 1363 391 1709 391 
Q 2188 391 2477 730 
Q 2766 1069 2766 1631 
L 2766 1759 
L 2194 1759 
z
M 3341 1997 
L 3341 0 
L 2766 0 
L 2766 531 
Q 2569 213 2275 61 
Q 1981 -91 1556 -91 
Q 1019 -91 701 211 
Q 384 513 384 1019 
Q 384 1609 779 1909 
Q 1175 2209 1959 2209 
L 2766 2209 
L 2766 2266 
Q 2766 2663 2505 2880 
Q 2244 3097 1772 3097 
Q 1472 3097 1187 3025 
Q 903 2953 641 2809 
L 641 3341 
Q 956 3463 1253 3523 
Q 1550 3584 1831 3584 
Q 2591 3584 2966 3190 
Q 3341 2797 3341 1997 
z
" transform="scale(0.015625)"/>
       <path id="DejaVuSans-6c" d="M 603 4863 
L 1178 4863 
L 1178 0 
L 603 0 
L 603 4863 
z
" transform="scale(0.015625)"/>
       <path id="DejaVuSans-20" transform="scale(0.015625)"/>
       <path id="DejaVuSans-68" d="M 3513 2113 
L 3513 0 
L 2938 0 
L 2938 2094 
Q 2938 2591 2744 2837 
Q 2550 3084 2163 3084 
Q 1697 3084 1428 2787 
Q 1159 2491 1159 1978 
L 1159 0 
L 581 0 
L 581 4863 
L 1159 4863 
L 1159 2956 
Q 1366 3272 1645 3428 
Q 1925 3584 2291 3584 
Q 2894 3584 3203 3211 
Q 3513 2838 3513 2113 
z
" transform="scale(0.015625)"/>
       <path id="DejaVuSans-75" d="M 544 1381 
L 544 3500 
L 1119 3500 
L 1119 1403 
Q 1119 906 1312 657 
Q 1506 409 1894 409 
Q 2359 409 2629 706 
Q 2900 1003 2900 1516 
L 2900 3500 
L 3475 3500 
L 3475 0 
L 2900 0 
L 2900 538 
Q 2691 219 2414 64 
Q 2138 -91 1772 -91 
Q 1169 -91 856 284 
Q 544 659 544 1381 
z
M 1991 3584 
L 1991 3584 
z
" transform="scale(0.015625)"/>
       <path id="DejaVuSans-72" d="M 2631 2963 
Q 2534 3019 2420 3045 
Q 2306 3072 2169 3072 
Q 1681 3072 1420 2755 
Q 1159 2438 1159 1844 
L 1159 0 
L 581 0 
L 581 3500 
L 1159 3500 
L 1159 2956 
Q 1341 3275 1631 3429 
Q 1922 3584 2338 3584 
Q 2397 3584 2469 3576 
Q 2541 3569 2628 3553 
L 2631 2963 
z
" transform="scale(0.015625)"/>
      </defs>
      <use xlink:href="#DejaVuSans-4c"/>
      <use xlink:href="#DejaVuSans-6f" transform="translate(53.962891 0)"/>
      <use xlink:href="#DejaVuSans-63" transform="translate(115.144531 0)"/>
      <use xlink:href="#DejaVuSans-61" transform="translate(170.125 0)"/>
      <use xlink:href="#DejaVuSans-6c" transform="translate(231.404297 0)"/>
      <use xlink:href="#DejaVuSans-20" transform="translate(259.1875 0)"/>
      <use xlink:href="#DejaVuSans-68" transform="translate(290.974609 0)"/>
      <use xlink:href="#DejaVuSans-6f" transform="translate(354.353516 0)"/>
      <use xlink:href="#DejaVuSans-75" transform="translate(415.535156 0)"/>
      <use xlink:href="#DejaVuSans-72" transform="translate(478.914062 0)"/>
     </g>
    </g>
   </g>
   <g id="matplotlib.axis_2">
    <g id="ytick_1">
     <g id="line2d_25">
      <path d="M 62.64 431.890093 
L 688.32 431.890093 
" clip-path="url(#p966c669316)" style="fill: none; stroke: #d9d9d9; stroke-opacity: 0.8; stroke-width: 0.8; stroke-linecap: square"/>
     </g>
     <g id="line2d_26">
      <defs>
       <path id="m20c5716a21" d="M 0 0 
L -3.5 0 
" style="stroke: #000000; stroke-width: 0.8"/>
      </defs>
      <g>
       <use xlink:href="#m20c5716a21" x="62.64" y="431.890093" style="stroke: #000000; stroke-width: 0.8"/>
      </g>
     </g>
     <g id="text_14">
      <!-- 0.0 -->
      <g transform="translate(39.736875 435.689312) scale(0.1 -0.1)">
       <defs>
        <path id="DejaVuSans-2e" d="M 684 794 
L 1344 794 
L 1344 0 
L 684 0 
L 684 794 
z
" transform="scale(0.015625)"/>
       </defs>
       <use xlink:href="#DejaVuSans-30"/>
       <use xlink:href="#DejaVuSans-2e" transform="translate(63.623047 0)"/>
       <use xlink:href="#DejaVuSans-30" transform="translate(95.410156 0)"/>
      </g>
     </g>
    </g>
    <g id="ytick_2">
     <g id="line2d_27">
      <path d="M 62.64 384.583668 
L 688.32 384.583668 
" clip-path="url(#p966c669316)" style="fill: none; stroke: #d9d9d9; stroke-opacity: 0.8; stroke-width: 0.8; stroke-linecap: square"/>
     </g>
     <g id="line2d_28">
      <g>
       <use xlink:href="#m20c5716a21" x="62.64" y="384.583668" style="stroke: #000000; stroke-width: 0.8"/>
      </g>
     </g>
     <g id="text_15">
      <!-- 0.5 -->
      <g transform="translate(39.736875 388.382887) scale(0.1 -0.1)">
       <defs>
        <path id="DejaVuSans-35" d="M 691 4666 
L 3169 4666 
L 3169 4134 
L 1269 4134 
L 1269 2991 
Q 1406 3038 1543 3061 
Q 1681 3084 1819 3084 
Q 2600 3084 3056 2656 
Q 3513 2228 3513 1497 
Q 3513 744 3044 326 
Q 2575 -91 1722 -91 
Q 1428 -91 1123 -41 
Q 819 9 494 109 
L 494 744 
Q 775 591 1075 516 
Q 1375 441 1709 441 
Q 2250 441 2565 725 
Q 2881 1009 2881 1497 
Q 2881 1984 2565 2268 
Q 2250 2553 1709 2553 
Q 1456 2553 1204 2497 
Q 953 2441 691 2322 
L 691 4666 
z
" transform="scale(0.015625)"/>
       </defs>
       <use xlink:href="#DejaVuSans-30"/>
       <use xlink:href="#DejaVuSans-2e" transform="translate(63.623047 0)"/>
       <use xlink:href="#DejaVuSans-35" transform="translate(95.410156 0)"/>
      </g>
     </g>
    </g>
    <g id="ytick_3">
     <g id="line2d_29">
      <path d="M 62.64 337.277244 
L 688.32 337.277244 
" clip-path="url(#p966c669316)" style="fill: none; stroke: #d9d9d9; stroke-opacity: 0.8; stroke-width: 0.8; stroke-linecap: square"/>
     </g>
     <g id="line2d_30">
      <g>
       <use xlink:href="#m20c5716a21" x="62.64" y="337.277244" style="stroke: #000000; stroke-width: 0.8"/>
      </g>
     </g>
     <g id="text_16">
      <!-- 1.0 -->
      <g transform="translate(39.736875 341.076462) scale(0.1 -0.1)">
       <use xlink:href="#DejaVuSans-31"/>
       <use xlink:href="#DejaVuSans-2e" transform="translate(63.623047 0)"/>
       <use xlink:href="#DejaVuSans-30" transform="translate(95.410156 0)"/>
      </g>
     </g>
    </g>
    <g id="ytick_4">
     <g id="line2d_31">
      <path d="M 62.64 289.970819 
L 688.32 289.970819 
" clip-path="url(#p966c669316)" style="fill: none; stroke: #d9d9d9; stroke-opacity: 0.8; stroke-width: 0.8; stroke-linecap: square"/>
     </g>
     <g id="line2d_32">
      <g>
       <use xlink:href="#m20c5716a21" x="62.64" y="289.970819" style="stroke: #000000; stroke-width: 0.8"/>
      </g>
     </g>
     <g id="text_17">
      <!-- 1.5 -->
      <g transform="translate(39.736875 293.770038) scale(0.1 -0.1)">
       <use xlink:href="#DejaVuSans-31"/>
       <use xlink:href="#DejaVuSans-2e" transform="translate(63.623047 0)"/>
       <use xlink:href="#DejaVuSans-35" transform="translate(95.410156 0)"/>
      </g>
     </g>
    </g>
    <g id="ytick_5">
     <g id="line2d_33">
      <path d="M 62.64 242.664394 
L 688.32 242.664394 
" clip-path="url(#p966c669316)" style="fill: none; stroke: #d9d9d9; stroke-opacity: 0.8; stroke-width: 0.8; stroke-linecap: square"/>
     </g>
     <g id="line2d_34">
      <g>
       <use xlink:href="#m20c5716a21" x="62.64" y="242.664394" style="stroke: #000000; stroke-width: 0.8"/>
      </g>
     </g>
     <g id="text_18">
      <!-- 2.0 -->
      <g transform="translate(39.736875 246.463613) scale(0.1 -0.1)">
       <use xlink:href="#DejaVuSans-32"/>
       <use xlink:href="#DejaVuSans-2e" transform="translate(63.623047 0)"/>
       <use xlink:href="#DejaVuSans-30" transform="translate(95.410156 0)"/>
      </g>
     </g>
    </g>
    <g id="ytick_6">
     <g id="line2d_35">
      <path d="M 62.64 195.357969 
L 688.32 195.357969 
" clip-path="url(#p966c669316)" style="fill: none; stroke: #d9d9d9; stroke-opacity: 0.8; stroke-width: 0.8; stroke-linecap: square"/>
     </g>
     <g id="line2d_36">
      <g>
       <use xlink:href="#m20c5716a21" x="62.64" y="195.357969" style="stroke: #000000; stroke-width: 0.8"/>
      </g>
     </g>
     <g id="text_19">
      <!-- 2.5 -->
      <g transform="translate(39.736875 199.157188) scale(0.1 -0.1)">
       <use xlink:href="#DejaVuSans-32"/>
       <use xlink:href="#DejaVuSans-2e" transform="translate(63.623047 0)"/>
       <use xlink:href="#DejaVuSans-35" transform="translate(95.410156 0)"/>
      </g>
     </g>
    </g>
    <g id="ytick_7">
     <g id="line2d_37">
      <path d="M 62.64 148.051545 
L 688.32 148.051545 
" clip-path="url(#p966c669316)" style="fill: none; stroke: #d9d9d9; stroke-opacity: 0.8; stroke-width: 0.8; stroke-linecap: square"/>
     </g>
     <g id="line2d_38">
      <g>
       <use xlink:href="#m20c5716a21" x="62.64" y="148.051545" style="stroke: #000000; stroke-width: 0.8"/>
      </g>
     </g>
     <g id="text_20">
      <!-- 3.0 -->
      <g transform="translate(39.736875 151.850763) scale(0.1 -0.1)">
       <defs>
        <path id="DejaVuSans-33" d="M 2597 2516 
Q 3050 2419 3304 2112 
Q 3559 1806 3559 1356 
Q 3559 666 3084 287 
Q 2609 -91 1734 -91 
Q 1441 -91 1130 -33 
Q 819 25 488 141 
L 488 750 
Q 750 597 1062 519 
Q 1375 441 1716 441 
Q 2309 441 2620 675 
Q 2931 909 2931 1356 
Q 2931 1769 2642 2001 
Q 2353 2234 1838 2234 
L 1294 2234 
L 1294 2753 
L 1863 2753 
Q 2328 2753 2575 2939 
Q 2822 3125 2822 3475 
Q 2822 3834 2567 4026 
Q 2313 4219 1838 4219 
Q 1578 4219 1281 4162 
Q 984 4106 628 3988 
L 628 4550 
Q 988 4650 1302 4700 
Q 1616 4750 1894 4750 
Q 2613 4750 3031 4423 
Q 3450 4097 3450 3541 
Q 3450 3153 3228 2886 
Q 3006 2619 2597 2516 
z
" transform="scale(0.015625)"/>
       </defs>
       <use xlink:href="#DejaVuSans-33"/>
       <use xlink:href="#DejaVuSans-2e" transform="translate(63.623047 0)"/>
       <use xlink:href="#DejaVuSans-30" transform="translate(95.410156 0)"/>
      </g>
     </g>
    </g>
    <g id="text_21">
     <!-- Flux change (W m$^{-2}$) -->
     <g transform="translate(33.636875 326.97) rotate(-90) scale(0.1 -0.1)">
      <defs>
       <path id="DejaVuSans-46" d="M 628 4666 
L 3309 4666 
L 3309 4134 
L 1259 4134 
L 1259 2759 
L 3109 2759 
L 3109 2228 
L 1259 2228 
L 1259 0 
L 628 0 
L 628 4666 
z
" transform="scale(0.015625)"/>
       <path id="DejaVuSans-78" d="M 3513 3500 
L 2247 1797 
L 3578 0 
L 2900 0 
L 1881 1375 
L 863 0 
L 184 0 
L 1544 1831 
L 300 3500 
L 978 3500 
L 1906 2253 
L 2834 3500 
L 3513 3500 
z
" transform="scale(0.015625)"/>
       <path id="DejaVuSans-6e" d="M 3513 2113 
L 3513 0 
L 2938 0 
L 2938 2094 
Q 2938 2591 2744 2837 
Q 2550 3084 2163 3084 
Q 1697 3084 1428 2787 
Q 1159 2491 1159 1978 
L 1159 0 
L 581 0 
L 581 3500 
L 1159 3500 
L 1159 2956 
Q 1366 3272 1645 3428 
Q 1925 3584 2291 3584 
Q 2894 3584 3203 3211 
Q 3513 2838 3513 2113 
z
" transform="scale(0.015625)"/>
       <path id="DejaVuSans-67" d="M 2906 1791 
Q 2906 2416 2648 2759 
Q 2391 3103 1925 3103 
Q 1463 3103 1205 2759 
Q 947 2416 947 1791 
Q 947 1169 1205 825 
Q 1463 481 1925 481 
Q 2391 481 2648 825 
Q 2906 1169 2906 1791 
z
M 3481 434 
Q 3481 -459 3084 -895 
Q 2688 -1331 1869 -1331 
Q 1566 -1331 1297 -1286 
Q 1028 -1241 775 -1147 
L 775 -588 
Q 1028 -725 1275 -790 
Q 1522 -856 1778 -856 
Q 2344 -856 2625 -561 
Q 2906 -266 2906 331 
L 2906 616 
Q 2728 306 2450 153 
Q 2172 0 1784 0 
Q 1141 0 747 490 
Q 353 981 353 1791 
Q 353 2603 747 3093 
Q 1141 3584 1784 3584 
Q 2172 3584 2450 3431 
Q 2728 3278 2906 2969 
L 2906 3500 
L 3481 3500 
L 3481 434 
z
" transform="scale(0.015625)"/>
       <path id="DejaVuSans-65" d="M 3597 1894 
L 3597 1613 
L 953 1613 
Q 991 1019 1311 708 
Q 1631 397 2203 397 
Q 2534 397 2845 478 
Q 3156 559 3463 722 
L 3463 178 
Q 3153 47 2828 -22 
Q 2503 -91 2169 -91 
Q 1331 -91 842 396 
Q 353 884 353 1716 
Q 353 2575 817 3079 
Q 1281 3584 2069 3584 
Q 2775 3584 3186 3129 
Q 3597 2675 3597 1894 
z
M 3022 2063 
Q 3016 2534 2758 2815 
Q 2500 3097 2075 3097 
Q 1594 3097 1305 2825 
Q 1016 2553 972 2059 
L 3022 2063 
z
" transform="scale(0.015625)"/>
       <path id="DejaVuSans-28" d="M 1984 4856 
Q 1566 4138 1362 3434 
Q 1159 2731 1159 2009 
Q 1159 1288 1364 580 
Q 1569 -128 1984 -844 
L 1484 -844 
Q 1016 -109 783 600 
Q 550 1309 550 2009 
Q 550 2706 781 3412 
Q 1013 4119 1484 4856 
L 1984 4856 
z
" transform="scale(0.015625)"/>
       <path id="DejaVuSans-57" d="M 213 4666 
L 850 4666 
L 1831 722 
L 2809 4666 
L 3519 4666 
L 4500 722 
L 5478 4666 
L 6119 4666 
L 4947 0 
L 4153 0 
L 3169 4050 
L 2175 0 
L 1381 0 
L 213 4666 
z
" transform="scale(0.015625)"/>
       <path id="DejaVuSans-6d" d="M 3328 2828 
Q 3544 3216 3844 3400 
Q 4144 3584 4550 3584 
Q 5097 3584 5394 3201 
Q 5691 2819 5691 2113 
L 5691 0 
L 5113 0 
L 5113 2094 
Q 5113 2597 4934 2840 
Q 4756 3084 4391 3084 
Q 3944 3084 3684 2787 
Q 3425 2491 3425 1978 
L 3425 0 
L 2847 0 
L 2847 2094 
Q 2847 2600 2669 2842 
Q 2491 3084 2119 3084 
Q 1678 3084 1418 2786 
Q 1159 2488 1159 1978 
L 1159 0 
L 581 0 
L 581 3500 
L 1159 3500 
L 1159 2956 
Q 1356 3278 1631 3431 
Q 1906 3584 2284 3584 
Q 2666 3584 2933 3390 
Q 3200 3197 3328 2828 
z
" transform="scale(0.015625)"/>
       <path id="DejaVuSans-2212" d="M 678 2272 
L 4684 2272 
L 4684 1741 
L 678 1741 
L 678 2272 
z
" transform="scale(0.015625)"/>
       <path id="DejaVuSans-29" d="M 513 4856 
L 1013 4856 
Q 1481 4119 1714 3412 
Q 1947 2706 1947 2009 
Q 1947 1309 1714 600 
Q 1481 -109 1013 -844 
L 513 -844 
Q 928 -128 1133 580 
Q 1338 1288 1338 2009 
Q 1338 2731 1133 3434 
Q 928 4138 513 4856 
z
" transform="scale(0.015625)"/>
      </defs>
      <use xlink:href="#DejaVuSans-46" transform="translate(0 0.765625)"/>
      <use xlink:href="#DejaVuSans-6c" transform="translate(57.519531 0.765625)"/>
      <use xlink:href="#DejaVuSans-75" transform="translate(85.302734 0.765625)"/>
      <use xlink:href="#DejaVuSans-78" transform="translate(148.681641 0.765625)"/>
      <use xlink:href="#DejaVuSans-20" transform="translate(207.861328 0.765625)"/>
      <use xlink:href="#DejaVuSans-63" transform="translate(239.648438 0.765625)"/>
      <use xlink:href="#DejaVuSans-68" transform="translate(294.628906 0.765625)"/>
      <use xlink:href="#DejaVuSans-61" transform="translate(358.007812 0.765625)"/>
      <use xlink:href="#DejaVuSans-6e" transform="translate(419.287109 0.765625)"/>
      <use xlink:href="#DejaVuSans-67" transform="translate(482.666016 0.765625)"/>
      <use xlink:href="#DejaVuSans-65" transform="translate(546.142578 0.765625)"/>
      <use xlink:href="#DejaVuSans-20" transform="translate(607.666016 0.765625)"/>
      <use xlink:href="#DejaVuSans-28" transform="translate(639.453125 0.765625)"/>
      <use xlink:href="#DejaVuSans-57" transform="translate(678.466797 0.765625)"/>
      <use xlink:href="#DejaVuSans-20" transform="translate(777.34375 0.765625)"/>
      <use xlink:href="#DejaVuSans-6d" transform="translate(809.130859 0.765625)"/>
      <use xlink:href="#DejaVuSans-2212" transform="translate(907.5 39.046875) scale(0.7)"/>
      <use xlink:href="#DejaVuSans-32" transform="translate(966.152344 39.046875) scale(0.7)"/>
      <use xlink:href="#DejaVuSans-29" transform="translate(1013.422852 0.765625)"/>
     </g>
    </g>
   </g>
   <g id="line2d_39">
    <path d="M 62.64 192.164647 
L 89.843478 191.974951 
L 117.046957 192.689747 
L 144.250435 192.208422 
L 171.453913 191.890615 
L 198.657391 191.039886 
L 225.86087 185.706672 
L 253.064348 176.630269 
L 280.267826 168.640995 
L 307.471304 155.344585 
L 334.674783 135.693739 
L 361.878261 124.842266 
L 389.081739 123.172133 
L 416.285217 123.12 
L 443.488696 127.000492 
L 470.692174 135.321986 
L 497.895652 143.301986 
L 525.09913 148.732411 
L 552.302609 155.719313 
L 579.506087 166.825869 
L 606.709565 177.694798 
L 633.913043 185.07844 
L 661.116522 188.666153 
L 688.32 191.033931 
" clip-path="url(#p966c669316)" style="fill: none; stroke: #252525; stroke-width: 2.5; stroke-linecap: square"/>
   </g>
   <g id="line2d_40">
    <path d="M 62.64 279.727883 
L 89.843478 279.573866 
L 117.046957 280.007898 
L 144.250435 279.505907 
L 171.453913 279.160689 
L 198.657391 278.463302 
L 225.86087 276.102044 
L 253.064348 270.236498 
L 280.267826 266.252178 
L 307.471304 255.226221 
L 334.674783 246.461076 
L 361.878261 234.975504 
L 389.081739 235.017557 
L 416.285217 235.140177 
L 443.488696 233.195533 
L 470.692174 239.891212 
L 497.895652 244.703134 
L 525.09913 247.228272 
L 552.302609 252.558512 
L 579.506087 259.570249 
L 606.709565 268.757356 
L 633.913043 274.616272 
L 661.116522 277.347722 
L 688.32 279.002049 
" clip-path="url(#p966c669316)" style="fill: none; stroke: #fdae61; stroke-width: 2.5; stroke-linecap: square"/>
   </g>
   <g id="line2d_41">
    <path d="M 62.64 372.233519 
L 89.843478 375.894391 
L 117.046957 377.849046 
L 144.250435 378.538558 
L 171.453913 377.891816 
L 198.657391 376.120227 
L 225.86087 385.243363 
L 253.064348 390.959974 
L 280.267826 409.383333 
L 307.471304 422.671563 
L 334.674783 424.772311 
L 361.878261 425.52 
L 389.081739 425.271546 
L 416.285217 395.508455 
L 443.488696 362.678182 
L 470.692174 350.612912 
L 497.895652 341.854254 
L 525.09913 349.671995 
L 552.302609 342.638784 
L 579.506087 354.11391 
L 606.709565 362.285328 
L 633.913043 366.257331 
L 661.116522 368.523865 
L 688.32 367.97252 
" clip-path="url(#p966c669316)" style="fill: none; stroke: #1a9850; stroke-width: 2.5; stroke-linecap: square"/>
   </g>
   <g id="line2d_42">
    <path d="M 62.64 403.98343 
L 89.843478 400.286881 
L 117.046957 398.612989 
L 144.250435 397.944143 
L 171.453913 398.618296 
L 198.657391 400.236542 
L 225.86087 388.141452 
L 253.064348 379.213983 
L 280.267826 356.78567 
L 307.471304 341.226986 
L 334.674783 328.240538 
L 361.878261 328.126948 
L 389.081739 326.663216 
L 416.285217 356.251554 
L 443.488696 394.906963 
L 470.692174 408.598048 
L 497.895652 420.524784 
L 525.09913 415.612329 
L 552.302609 424.302204 
L 579.506087 416.921895 
L 606.709565 410.4323 
L 633.913043 407.985023 
L 661.116522 406.574752 
L 688.32 407.839548 
" clip-path="url(#p966c669316)" style="fill: none; stroke: #d73027; stroke-width: 2.5; stroke-linecap: square"/>
   </g>
   <g id="line2d_43">
    <path d="M 62.64 431.890093 
L 688.32 431.890093 
" clip-path="url(#p966c669316)" style="fill: none; stroke: #777777; stroke-opacity: 0.7; stroke-linecap: square"/>
   </g>
   <g id="patch_3">
    <path d="M 62.64 440.64 
L 62.64 108 
" style="fill: none; stroke: #000000; stroke-width: 0.8; stroke-linejoin: miter; stroke-linecap: square"/>
   </g>
   <g id="patch_4">
    <path d="M 62.64 440.64 
L 688.32 440.64 
" style="fill: none; stroke: #000000; stroke-width: 0.8; stroke-linejoin: miter; stroke-linecap: square"/>
   </g>
   <g id="text_22">
    <g id="patch_5">
     <path d="M 69.1536 159.37935 
L 309.961412 159.37935 
L 309.961412 115.3056 
L 69.1536 115.3056 
z
" style="fill: #ffffff; opacity: 0.86; stroke: #dddddd; stroke-linejoin: miter"/>
    </g>
    <!-- Spring only -->
    <g style="fill: #444444" transform="translate(75.1536 128.904038) scale(0.1 -0.1)">
     <defs>
      <path id="DejaVuSans-53" d="M 3425 4513 
L 3425 3897 
Q 3066 4069 2747 4153 
Q 2428 4238 2131 4238 
Q 1616 4238 1336 4038 
Q 1056 3838 1056 3469 
Q 1056 3159 1242 3001 
Q 1428 2844 1947 2747 
L 2328 2669 
Q 3034 2534 3370 2195 
Q 3706 1856 3706 1288 
Q 3706 609 3251 259 
Q 2797 -91 1919 -91 
Q 1588 -91 1214 -16 
Q 841 59 441 206 
L 441 856 
Q 825 641 1194 531 
Q 1563 422 1919 422 
Q 2459 422 2753 634 
Q 3047 847 3047 1241 
Q 3047 1584 2836 1778 
Q 2625 1972 2144 2069 
L 1759 2144 
Q 1053 2284 737 2584 
Q 422 2884 422 3419 
Q 422 4038 858 4394 
Q 1294 4750 2059 4750 
Q 2388 4750 2728 4690 
Q 3069 4631 3425 4513 
z
" transform="scale(0.015625)"/>
      <path id="DejaVuSans-70" d="M 1159 525 
L 1159 -1331 
L 581 -1331 
L 581 3500 
L 1159 3500 
L 1159 2969 
Q 1341 3281 1617 3432 
Q 1894 3584 2278 3584 
Q 2916 3584 3314 3078 
Q 3713 2572 3713 1747 
Q 3713 922 3314 415 
Q 2916 -91 2278 -91 
Q 1894 -91 1617 61 
Q 1341 213 1159 525 
z
M 3116 1747 
Q 3116 2381 2855 2742 
Q 2594 3103 2138 3103 
Q 1681 3103 1420 2742 
Q 1159 2381 1159 1747 
Q 1159 1113 1420 752 
Q 1681 391 2138 391 
Q 2594 391 2855 752 
Q 3116 1113 3116 1747 
z
" transform="scale(0.015625)"/>
      <path id="DejaVuSans-69" d="M 603 3500 
L 1178 3500 
L 1178 0 
L 603 0 
L 603 3500 
z
M 603 4863 
L 1178 4863 
L 1178 4134 
L 603 4134 
L 603 4863 
z
" transform="scale(0.015625)"/>
      <path id="DejaVuSans-79" d="M 2059 -325 
Q 1816 -950 1584 -1140 
Q 1353 -1331 966 -1331 
L 506 -1331 
L 506 -850 
L 844 -850 
Q 1081 -850 1212 -737 
Q 1344 -625 1503 -206 
L 1606 56 
L 191 3500 
L 800 3500 
L 1894 763 
L 2988 3500 
L 3597 3500 
L 2059 -325 
z
" transform="scale(0.015625)"/>
     </defs>
     <use xlink:href="#DejaVuSans-53"/>
     <use xlink:href="#DejaVuSans-70" transform="translate(63.476562 0)"/>
     <use xlink:href="#DejaVuSans-72" transform="translate(126.953125 0)"/>
     <use xlink:href="#DejaVuSans-69" transform="translate(168.066406 0)"/>
     <use xlink:href="#DejaVuSans-6e" transform="translate(195.849609 0)"/>
     <use xlink:href="#DejaVuSans-67" transform="translate(259.228516 0)"/>
     <use xlink:href="#DejaVuSans-20" transform="translate(322.705078 0)"/>
     <use xlink:href="#DejaVuSans-6f" transform="translate(354.492188 0)"/>
     <use xlink:href="#DejaVuSans-6e" transform="translate(415.673828 0)"/>
     <use xlink:href="#DejaVuSans-6c" transform="translate(479.052734 0)"/>
     <use xlink:href="#DejaVuSans-79" transform="translate(506.835938 0)"/>
    </g>
    <!-- 2024-03-16 00:00:00 to 2024-04-15 00:00:00 -->
    <g style="fill: #444444" transform="translate(75.1536 140.10185) scale(0.1 -0.1)">
     <defs>
      <path id="DejaVuSans-2d" d="M 313 2009 
L 1997 2009 
L 1997 1497 
L 313 1497 
L 313 2009 
z
" transform="scale(0.015625)"/>
      <path id="DejaVuSans-3a" d="M 750 794 
L 1409 794 
L 1409 0 
L 750 0 
L 750 794 
z
M 750 3309 
L 1409 3309 
L 1409 2516 
L 750 2516 
L 750 3309 
z
" transform="scale(0.015625)"/>
      <path id="DejaVuSans-74" d="M 1172 4494 
L 1172 3500 
L 2356 3500 
L 2356 3053 
L 1172 3053 
L 1172 1153 
Q 1172 725 1289 603 
Q 1406 481 1766 481 
L 2356 481 
L 2356 0 
L 1766 0 
Q 1100 0 847 248 
Q 594 497 594 1153 
L 594 3053 
L 172 3053 
L 172 3500 
L 594 3500 
L 594 4494 
L 1172 4494 
z
" transform="scale(0.015625)"/>
     </defs>
     <use xlink:href="#DejaVuSans-32"/>
     <use xlink:href="#DejaVuSans-30" transform="translate(63.623047 0)"/>
     <use xlink:href="#DejaVuSans-32" transform="translate(127.246094 0)"/>
     <use xlink:href="#DejaVuSans-34" transform="translate(190.869141 0)"/>
     <use xlink:href="#DejaVuSans-2d" transform="translate(254.492188 0)"/>
     <use xlink:href="#DejaVuSans-30" transform="translate(290.576172 0)"/>
     <use xlink:href="#DejaVuSans-33" transform="translate(354.199219 0)"/>
     <use xlink:href="#DejaVuSans-2d" transform="translate(417.822266 0)"/>
     <use xlink:href="#DejaVuSans-31" transform="translate(453.90625 0)"/>
     <use xlink:href="#DejaVuSans-36" transform="translate(517.529297 0)"/>
     <use xlink:href="#DejaVuSans-20" transform="translate(581.152344 0)"/>
     <use xlink:href="#DejaVuSans-30" transform="translate(612.939453 0)"/>
     <use xlink:href="#DejaVuSans-30" transform="translate(676.5625 0)"/>
     <use xlink:href="#DejaVuSans-3a" transform="translate(740.185547 0)"/>
     <use xlink:href="#DejaVuSans-30" transform="translate(773.876953 0)"/>
     <use xlink:href="#DejaVuSans-30" transform="translate(837.5 0)"/>
     <use xlink:href="#DejaVuSans-3a" transform="translate(901.123047 0)"/>
     <use xlink:href="#DejaVuSans-30" transform="translate(934.814453 0)"/>
     <use xlink:href="#DejaVuSans-30" transform="translate(998.4375 0)"/>
     <use xlink:href="#DejaVuSans-20" transform="translate(1062.060547 0)"/>
     <use xlink:href="#DejaVuSans-74" transform="translate(1093.847656 0)"/>
     <use xlink:href="#DejaVuSans-6f" transform="translate(1133.056641 0)"/>
     <use xlink:href="#DejaVuSans-20" transform="translate(1194.238281 0)"/>
     <use xlink:href="#DejaVuSans-32" transform="translate(1226.025391 0)"/>
     <use xlink:href="#DejaVuSans-30" transform="translate(1289.648438 0)"/>
     <use xlink:href="#DejaVuSans-32" transform="translate(1353.271484 0)"/>
     <use xlink:href="#DejaVuSans-34" transform="translate(1416.894531 0)"/>
     <use xlink:href="#DejaVuSans-2d" transform="translate(1480.517578 0)"/>
     <use xlink:href="#DejaVuSans-30" transform="translate(1516.601562 0)"/>
     <use xlink:href="#DejaVuSans-34" transform="translate(1580.224609 0)"/>
     <use xlink:href="#DejaVuSans-2d" transform="translate(1643.847656 0)"/>
     <use xlink:href="#DejaVuSans-31" transform="translate(1679.931641 0)"/>
     <use xlink:href="#DejaVuSans-35" transform="translate(1743.554688 0)"/>
     <use xlink:href="#DejaVuSans-20" transform="translate(1807.177734 0)"/>
     <use xlink:href="#DejaVuSans-30" transform="translate(1838.964844 0)"/>
     <use xlink:href="#DejaVuSans-30" transform="translate(1902.587891 0)"/>
     <use xlink:href="#DejaVuSans-3a" transform="translate(1966.210938 0)"/>
     <use xlink:href="#DejaVuSans-30" transform="translate(1999.902344 0)"/>
     <use xlink:href="#DejaVuSans-30" transform="translate(2063.525391 0)"/>
     <use xlink:href="#DejaVuSans-3a" transform="translate(2127.148438 0)"/>
     <use xlink:href="#DejaVuSans-30" transform="translate(2160.839844 0)"/>
     <use xlink:href="#DejaVuSans-30" transform="translate(2224.462891 0)"/>
    </g>
    <!-- 721 hourly values after spin-up -->
    <g style="fill: #444444" transform="translate(75.1536 151.299663) scale(0.1 -0.1)">
     <defs>
      <path id="DejaVuSans-37" d="M 525 4666 
L 3525 4666 
L 3525 4397 
L 1831 0 
L 1172 0 
L 2766 4134 
L 525 4134 
L 525 4666 
z
" transform="scale(0.015625)"/>
      <path id="DejaVuSans-76" d="M 191 3500 
L 800 3500 
L 1894 563 
L 2988 3500 
L 3597 3500 
L 2284 0 
L 1503 0 
L 191 3500 
z
" transform="scale(0.015625)"/>
      <path id="DejaVuSans-73" d="M 2834 3397 
L 2834 2853 
Q 2591 2978 2328 3040 
Q 2066 3103 1784 3103 
Q 1356 3103 1142 2972 
Q 928 2841 928 2578 
Q 928 2378 1081 2264 
Q 1234 2150 1697 2047 
L 1894 2003 
Q 2506 1872 2764 1633 
Q 3022 1394 3022 966 
Q 3022 478 2636 193 
Q 2250 -91 1575 -91 
Q 1294 -91 989 -36 
Q 684 19 347 128 
L 347 722 
Q 666 556 975 473 
Q 1284 391 1588 391 
Q 1994 391 2212 530 
Q 2431 669 2431 922 
Q 2431 1156 2273 1281 
Q 2116 1406 1581 1522 
L 1381 1569 
Q 847 1681 609 1914 
Q 372 2147 372 2553 
Q 372 3047 722 3315 
Q 1072 3584 1716 3584 
Q 2034 3584 2315 3537 
Q 2597 3491 2834 3397 
z
" transform="scale(0.015625)"/>
      <path id="DejaVuSans-66" d="M 2375 4863 
L 2375 4384 
L 1825 4384 
Q 1516 4384 1395 4259 
Q 1275 4134 1275 3809 
L 1275 3500 
L 2222 3500 
L 2222 3053 
L 1275 3053 
L 1275 0 
L 697 0 
L 697 3053 
L 147 3053 
L 147 3500 
L 697 3500 
L 697 3744 
Q 697 4328 969 4595 
Q 1241 4863 1831 4863 
L 2375 4863 
z
" transform="scale(0.015625)"/>
     </defs>
     <use xlink:href="#DejaVuSans-37"/>
     <use xlink:href="#DejaVuSans-32" transform="translate(63.623047 0)"/>
     <use xlink:href="#DejaVuSans-31" transform="translate(127.246094 0)"/>
     <use xlink:href="#DejaVuSans-20" transform="translate(190.869141 0)"/>
     <use xlink:href="#DejaVuSans-68" transform="translate(222.65625 0)"/>
     <use xlink:href="#DejaVuSans-6f" transform="translate(286.035156 0)"/>
     <use xlink:href="#DejaVuSans-75" transform="translate(347.216797 0)"/>
     <use xlink:href="#DejaVuSans-72" transform="translate(410.595703 0)"/>
     <use xlink:href="#DejaVuSans-6c" transform="translate(451.708984 0)"/>
     <use xlink:href="#DejaVuSans-79" transform="translate(479.492188 0)"/>
     <use xlink:href="#DejaVuSans-20" transform="translate(538.671875 0)"/>
     <use xlink:href="#DejaVuSans-76" transform="translate(570.458984 0)"/>
     <use xlink:href="#DejaVuSans-61" transform="translate(629.638672 0)"/>
     <use xlink:href="#DejaVuSans-6c" transform="translate(690.917969 0)"/>
     <use xlink:href="#DejaVuSans-75" transform="translate(718.701172 0)"/>
     <use xlink:href="#DejaVuSans-65" transform="translate(782.080078 0)"/>
     <use xlink:href="#DejaVuSans-73" transform="translate(843.603516 0)"/>
     <use xlink:href="#DejaVuSans-20" transform="translate(895.703125 0)"/>
     <use xlink:href="#DejaVuSans-61" transform="translate(927.490234 0)"/>
     <use xlink:href="#DejaVuSans-66" transform="translate(988.769531 0)"/>
     <use xlink:href="#DejaVuSans-74" transform="translate(1022.224609 0)"/>
     <use xlink:href="#DejaVuSans-65" transform="translate(1061.433594 0)"/>
     <use xlink:href="#DejaVuSans-72" transform="translate(1122.957031 0)"/>
     <use xlink:href="#DejaVuSans-20" transform="translate(1164.070312 0)"/>
     <use xlink:href="#DejaVuSans-73" transform="translate(1195.857422 0)"/>
     <use xlink:href="#DejaVuSans-70" transform="translate(1247.957031 0)"/>
     <use xlink:href="#DejaVuSans-69" transform="translate(1311.433594 0)"/>
     <use xlink:href="#DejaVuSans-6e" transform="translate(1339.216797 0)"/>
     <use xlink:href="#DejaVuSans-2d" transform="translate(1402.595703 0)"/>
     <use xlink:href="#DejaVuSans-75" transform="translate(1438.679688 0)"/>
     <use xlink:href="#DejaVuSans-70" transform="translate(1502.058594 0)"/>
    </g>
   </g>
   <g id="text_23">
    <!-- Spring diurnal response -->
    <g transform="translate(62.64 102) scale(0.14 -0.14)">
     <defs>
      <path id="DejaVuSans-Bold-53" d="M 3834 4519 
L 3834 3531 
Q 3450 3703 3084 3790 
Q 2719 3878 2394 3878 
Q 1963 3878 1756 3759 
Q 1550 3641 1550 3391 
Q 1550 3203 1689 3098 
Q 1828 2994 2194 2919 
L 2706 2816 
Q 3484 2659 3812 2340 
Q 4141 2022 4141 1434 
Q 4141 663 3683 286 
Q 3225 -91 2284 -91 
Q 1841 -91 1394 -6 
Q 947 78 500 244 
L 500 1259 
Q 947 1022 1364 901 
Q 1781 781 2169 781 
Q 2563 781 2772 912 
Q 2981 1044 2981 1288 
Q 2981 1506 2839 1625 
Q 2697 1744 2272 1838 
L 1806 1941 
Q 1106 2091 782 2419 
Q 459 2747 459 3303 
Q 459 4000 909 4375 
Q 1359 4750 2203 4750 
Q 2588 4750 2994 4692 
Q 3400 4634 3834 4519 
z
" transform="scale(0.015625)"/>
      <path id="DejaVuSans-Bold-70" d="M 1656 506 
L 1656 -1331 
L 538 -1331 
L 538 3500 
L 1656 3500 
L 1656 2988 
Q 1888 3294 2169 3439 
Q 2450 3584 2816 3584 
Q 3463 3584 3878 3070 
Q 4294 2556 4294 1747 
Q 4294 938 3878 423 
Q 3463 -91 2816 -91 
Q 2450 -91 2169 54 
Q 1888 200 1656 506 
z
M 2400 2772 
Q 2041 2772 1848 2508 
Q 1656 2244 1656 1747 
Q 1656 1250 1848 986 
Q 2041 722 2400 722 
Q 2759 722 2948 984 
Q 3138 1247 3138 1747 
Q 3138 2247 2948 2509 
Q 2759 2772 2400 2772 
z
" transform="scale(0.015625)"/>
      <path id="DejaVuSans-Bold-72" d="M 3138 2547 
Q 2991 2616 2845 2648 
Q 2700 2681 2553 2681 
Q 2122 2681 1889 2404 
Q 1656 2128 1656 1613 
L 1656 0 
L 538 0 
L 538 3500 
L 1656 3500 
L 1656 2925 
Q 1872 3269 2151 3426 
Q 2431 3584 2822 3584 
Q 2878 3584 2943 3579 
Q 3009 3575 3134 3559 
L 3138 2547 
z
" transform="scale(0.015625)"/>
      <path id="DejaVuSans-Bold-69" d="M 538 3500 
L 1656 3500 
L 1656 0 
L 538 0 
L 538 3500 
z
M 538 4863 
L 1656 4863 
L 1656 3950 
L 538 3950 
L 538 4863 
z
" transform="scale(0.015625)"/>
      <path id="DejaVuSans-Bold-6e" d="M 4056 2131 
L 4056 0 
L 2931 0 
L 2931 347 
L 2931 1631 
Q 2931 2084 2911 2256 
Q 2891 2428 2841 2509 
Q 2775 2619 2662 2680 
Q 2550 2741 2406 2741 
Q 2056 2741 1856 2470 
Q 1656 2200 1656 1722 
L 1656 0 
L 538 0 
L 538 3500 
L 1656 3500 
L 1656 2988 
Q 1909 3294 2193 3439 
Q 2478 3584 2822 3584 
Q 3428 3584 3742 3212 
Q 4056 2841 4056 2131 
z
" transform="scale(0.015625)"/>
      <path id="DejaVuSans-Bold-67" d="M 2919 594 
Q 2688 288 2409 144 
Q 2131 0 1766 0 
Q 1125 0 706 504 
Q 288 1009 288 1791 
Q 288 2575 706 3076 
Q 1125 3578 1766 3578 
Q 2131 3578 2409 3434 
Q 2688 3291 2919 2981 
L 2919 3500 
L 4044 3500 
L 4044 353 
Q 4044 -491 3511 -936 
Q 2978 -1381 1966 -1381 
Q 1638 -1381 1331 -1331 
Q 1025 -1281 716 -1178 
L 716 -306 
Q 1009 -475 1290 -558 
Q 1572 -641 1856 -641 
Q 2406 -641 2662 -400 
Q 2919 -159 2919 353 
L 2919 594 
z
M 2181 2772 
Q 1834 2772 1640 2515 
Q 1447 2259 1447 1791 
Q 1447 1309 1634 1061 
Q 1822 813 2181 813 
Q 2531 813 2725 1069 
Q 2919 1325 2919 1791 
Q 2919 2259 2725 2515 
Q 2531 2772 2181 2772 
z
" transform="scale(0.015625)"/>
      <path id="DejaVuSans-Bold-20" transform="scale(0.015625)"/>
      <path id="DejaVuSans-Bold-64" d="M 2919 2988 
L 2919 4863 
L 4044 4863 
L 4044 0 
L 2919 0 
L 2919 506 
Q 2688 197 2409 53 
Q 2131 -91 1766 -91 
Q 1119 -91 703 423 
Q 288 938 288 1747 
Q 288 2556 703 3070 
Q 1119 3584 1766 3584 
Q 2128 3584 2408 3439 
Q 2688 3294 2919 2988 
z
M 2181 722 
Q 2541 722 2730 984 
Q 2919 1247 2919 1747 
Q 2919 2247 2730 2509 
Q 2541 2772 2181 2772 
Q 1825 2772 1636 2509 
Q 1447 2247 1447 1747 
Q 1447 1247 1636 984 
Q 1825 722 2181 722 
z
" transform="scale(0.015625)"/>
      <path id="DejaVuSans-Bold-75" d="M 500 1363 
L 500 3500 
L 1625 3500 
L 1625 3150 
Q 1625 2866 1622 2436 
Q 1619 2006 1619 1863 
Q 1619 1441 1641 1255 
Q 1663 1069 1716 984 
Q 1784 875 1895 815 
Q 2006 756 2150 756 
Q 2500 756 2700 1025 
Q 2900 1294 2900 1772 
L 2900 3500 
L 4019 3500 
L 4019 0 
L 2900 0 
L 2900 506 
Q 2647 200 2364 54 
Q 2081 -91 1741 -91 
Q 1134 -91 817 281 
Q 500 653 500 1363 
z
" transform="scale(0.015625)"/>
      <path id="DejaVuSans-Bold-61" d="M 2106 1575 
Q 1756 1575 1579 1456 
Q 1403 1338 1403 1106 
Q 1403 894 1545 773 
Q 1688 653 1941 653 
Q 2256 653 2472 879 
Q 2688 1106 2688 1447 
L 2688 1575 
L 2106 1575 
z
M 3816 1997 
L 3816 0 
L 2688 0 
L 2688 519 
Q 2463 200 2181 54 
Q 1900 -91 1497 -91 
Q 953 -91 614 226 
Q 275 544 275 1050 
Q 275 1666 698 1953 
Q 1122 2241 2028 2241 
L 2688 2241 
L 2688 2328 
Q 2688 2594 2478 2717 
Q 2269 2841 1825 2841 
Q 1466 2841 1156 2769 
Q 847 2697 581 2553 
L 581 3406 
Q 941 3494 1303 3539 
Q 1666 3584 2028 3584 
Q 2975 3584 3395 3211 
Q 3816 2838 3816 1997 
z
" transform="scale(0.015625)"/>
      <path id="DejaVuSans-Bold-6c" d="M 538 4863 
L 1656 4863 
L 1656 0 
L 538 0 
L 538 4863 
z
" transform="scale(0.015625)"/>
      <path id="DejaVuSans-Bold-65" d="M 4031 1759 
L 4031 1441 
L 1416 1441 
Q 1456 1047 1700 850 
Q 1944 653 2381 653 
Q 2734 653 3104 758 
Q 3475 863 3866 1075 
L 3866 213 
Q 3469 63 3072 -14 
Q 2675 -91 2278 -91 
Q 1328 -91 801 392 
Q 275 875 275 1747 
Q 275 2603 792 3093 
Q 1309 3584 2216 3584 
Q 3041 3584 3536 3087 
Q 4031 2591 4031 1759 
z
M 2881 2131 
Q 2881 2450 2695 2645 
Q 2509 2841 2209 2841 
Q 1884 2841 1681 2658 
Q 1478 2475 1428 2131 
L 2881 2131 
z
" transform="scale(0.015625)"/>
      <path id="DejaVuSans-Bold-73" d="M 3272 3391 
L 3272 2541 
Q 2913 2691 2578 2766 
Q 2244 2841 1947 2841 
Q 1628 2841 1473 2761 
Q 1319 2681 1319 2516 
Q 1319 2381 1436 2309 
Q 1553 2238 1856 2203 
L 2053 2175 
Q 2913 2066 3209 1816 
Q 3506 1566 3506 1031 
Q 3506 472 3093 190 
Q 2681 -91 1863 -91 
Q 1516 -91 1145 -36 
Q 775 19 384 128 
L 384 978 
Q 719 816 1070 734 
Q 1422 653 1784 653 
Q 2113 653 2278 743 
Q 2444 834 2444 1013 
Q 2444 1163 2330 1236 
Q 2216 1309 1875 1350 
L 1678 1375 
Q 931 1469 631 1722 
Q 331 1975 331 2491 
Q 331 3047 712 3315 
Q 1094 3584 1881 3584 
Q 2191 3584 2531 3537 
Q 2872 3491 3272 3391 
z
" transform="scale(0.015625)"/>
      <path id="DejaVuSans-Bold-6f" d="M 2203 2784 
Q 1831 2784 1636 2517 
Q 1441 2250 1441 1747 
Q 1441 1244 1636 976 
Q 1831 709 2203 709 
Q 2569 709 2762 976 
Q 2956 1244 2956 1747 
Q 2956 2250 2762 2517 
Q 2569 2784 2203 2784 
z
M 2203 3584 
Q 3106 3584 3614 3096 
Q 4122 2609 4122 1747 
Q 4122 884 3614 396 
Q 3106 -91 2203 -91 
Q 1297 -91 786 396 
Q 275 884 275 1747 
Q 275 2609 786 3096 
Q 1297 3584 2203 3584 
z
" transform="scale(0.015625)"/>
     </defs>
     <use xlink:href="#DejaVuSans-Bold-53"/>
     <use xlink:href="#DejaVuSans-Bold-70" transform="translate(72.021484 0)"/>
     <use xlink:href="#DejaVuSans-Bold-72" transform="translate(143.603516 0)"/>
     <use xlink:href="#DejaVuSans-Bold-69" transform="translate(192.919922 0)"/>
     <use xlink:href="#DejaVuSans-Bold-6e" transform="translate(227.197266 0)"/>
     <use xlink:href="#DejaVuSans-Bold-67" transform="translate(298.388672 0)"/>
     <use xlink:href="#DejaVuSans-Bold-20" transform="translate(369.970703 0)"/>
     <use xlink:href="#DejaVuSans-Bold-64" transform="translate(404.785156 0)"/>
     <use xlink:href="#DejaVuSans-Bold-69" transform="translate(476.367188 0)"/>
     <use xlink:href="#DejaVuSans-Bold-75" transform="translate(510.644531 0)"/>
     <use xlink:href="#DejaVuSans-Bold-72" transform="translate(581.835938 0)"/>
     <use xlink:href="#DejaVuSans-Bold-6e" transform="translate(631.152344 0)"/>
     <use xlink:href="#DejaVuSans-Bold-61" transform="translate(702.34375 0)"/>
     <use xlink:href="#DejaVuSans-Bold-6c" transform="translate(769.824219 0)"/>
     <use xlink:href="#DejaVuSans-Bold-20" transform="translate(804.101562 0)"/>
     <use xlink:href="#DejaVuSans-Bold-72" transform="translate(838.916016 0)"/>
     <use xlink:href="#DejaVuSans-Bold-65" transform="translate(888.232422 0)"/>
     <use xlink:href="#DejaVuSans-Bold-73" transform="translate(956.054688 0)"/>
     <use xlink:href="#DejaVuSans-Bold-70" transform="translate(1015.576172 0)"/>
     <use xlink:href="#DejaVuSans-Bold-6f" transform="translate(1087.158203 0)"/>
     <use xlink:href="#DejaVuSans-Bold-6e" transform="translate(1155.859375 0)"/>
     <use xlink:href="#DejaVuSans-Bold-73" transform="translate(1227.050781 0)"/>
     <use xlink:href="#DejaVuSans-Bold-65" transform="translate(1286.572266 0)"/>
    </g>
   </g>
  </g>
  <g id="axes_2">
   <g id="matplotlib.axis_3">
    <g id="ytick_8">
     <g id="line2d_44">
      <defs>
       <path id="mb1d9b4079c" d="M 0 0 
L 3.5 0 
" style="stroke: #000000; stroke-width: 0.8"/>
      </defs>
      <g>
       <use xlink:href="#mb1d9b4079c" x="688.32" y="414.418214" style="stroke: #000000; stroke-width: 0.8"/>
      </g>
     </g>
     <g id="text_24">
      <!-- 28 -->
      <g transform="translate(695.32 418.217432) scale(0.1 -0.1)">
       <use xlink:href="#DejaVuSans-32"/>
       <use xlink:href="#DejaVuSans-38" transform="translate(63.623047 0)"/>
      </g>
     </g>
    </g>
    <g id="ytick_9">
     <g id="line2d_45">
      <g>
       <use xlink:href="#mb1d9b4079c" x="688.32" y="351.897666" style="stroke: #000000; stroke-width: 0.8"/>
      </g>
     </g>
     <g id="text_25">
      <!-- 30 -->
      <g transform="translate(695.32 355.696885) scale(0.1 -0.1)">
       <use xlink:href="#DejaVuSans-33"/>
       <use xlink:href="#DejaVuSans-30" transform="translate(63.623047 0)"/>
      </g>
     </g>
    </g>
    <g id="ytick_10">
     <g id="line2d_46">
      <g>
       <use xlink:href="#mb1d9b4079c" x="688.32" y="289.377119" style="stroke: #000000; stroke-width: 0.8"/>
      </g>
     </g>
     <g id="text_26">
      <!-- 32 -->
      <g transform="translate(695.32 293.176338) scale(0.1 -0.1)">
       <use xlink:href="#DejaVuSans-33"/>
       <use xlink:href="#DejaVuSans-32" transform="translate(63.623047 0)"/>
      </g>
     </g>
    </g>
    <g id="ytick_11">
     <g id="line2d_47">
      <g>
       <use xlink:href="#mb1d9b4079c" x="688.32" y="226.856572" style="stroke: #000000; stroke-width: 0.8"/>
      </g>
     </g>
     <g id="text_27">
      <!-- 34 -->
      <g transform="translate(695.32 230.65579) scale(0.1 -0.1)">
       <use xlink:href="#DejaVuSans-33"/>
       <use xlink:href="#DejaVuSans-34" transform="translate(63.623047 0)"/>
      </g>
     </g>
    </g>
    <g id="ytick_12">
     <g id="line2d_48">
      <g>
       <use xlink:href="#mb1d9b4079c" x="688.32" y="164.336024" style="stroke: #000000; stroke-width: 0.8"/>
      </g>
     </g>
     <g id="text_28">
      <!-- 36 -->
      <g transform="translate(695.32 168.135243) scale(0.1 -0.1)">
       <use xlink:href="#DejaVuSans-33"/>
       <use xlink:href="#DejaVuSans-36" transform="translate(63.623047 0)"/>
      </g>
     </g>
    </g>
    <g id="text_29">
     <!-- T2 air temperature (deg C) -->
     <g transform="translate(719.643438 341.66375) rotate(-90) scale(0.1 -0.1)">
      <defs>
       <path id="DejaVuSans-54" d="M -19 4666 
L 3928 4666 
L 3928 4134 
L 2272 4134 
L 2272 0 
L 1638 0 
L 1638 4134 
L -19 4134 
L -19 4666 
z
" transform="scale(0.015625)"/>
       <path id="DejaVuSans-64" d="M 2906 2969 
L 2906 4863 
L 3481 4863 
L 3481 0 
L 2906 0 
L 2906 525 
Q 2725 213 2448 61 
Q 2172 -91 1784 -91 
Q 1150 -91 751 415 
Q 353 922 353 1747 
Q 353 2572 751 3078 
Q 1150 3584 1784 3584 
Q 2172 3584 2448 3432 
Q 2725 3281 2906 2969 
z
M 947 1747 
Q 947 1113 1208 752 
Q 1469 391 1925 391 
Q 2381 391 2643 752 
Q 2906 1113 2906 1747 
Q 2906 2381 2643 2742 
Q 2381 3103 1925 3103 
Q 1469 3103 1208 2742 
Q 947 2381 947 1747 
z
" transform="scale(0.015625)"/>
       <path id="DejaVuSans-43" d="M 4122 4306 
L 4122 3641 
Q 3803 3938 3442 4084 
Q 3081 4231 2675 4231 
Q 1875 4231 1450 3742 
Q 1025 3253 1025 2328 
Q 1025 1406 1450 917 
Q 1875 428 2675 428 
Q 3081 428 3442 575 
Q 3803 722 4122 1019 
L 4122 359 
Q 3791 134 3420 21 
Q 3050 -91 2638 -91 
Q 1578 -91 968 557 
Q 359 1206 359 2328 
Q 359 3453 968 4101 
Q 1578 4750 2638 4750 
Q 3056 4750 3426 4639 
Q 3797 4528 4122 4306 
z
" transform="scale(0.015625)"/>
      </defs>
      <use xlink:href="#DejaVuSans-54"/>
      <use xlink:href="#DejaVuSans-32" transform="translate(61.083984 0)"/>
      <use xlink:href="#DejaVuSans-20" transform="translate(124.707031 0)"/>
      <use xlink:href="#DejaVuSans-61" transform="translate(156.494141 0)"/>
      <use xlink:href="#DejaVuSans-69" transform="translate(217.773438 0)"/>
      <use xlink:href="#DejaVuSans-72" transform="translate(245.556641 0)"/>
      <use xlink:href="#DejaVuSans-20" transform="translate(286.669922 0)"/>
      <use xlink:href="#DejaVuSans-74" transform="translate(318.457031 0)"/>
      <use xlink:href="#DejaVuSans-65" transform="translate(357.666016 0)"/>
      <use xlink:href="#DejaVuSans-6d" transform="translate(419.189453 0)"/>
      <use xlink:href="#DejaVuSans-70" transform="translate(516.601562 0)"/>
      <use xlink:href="#DejaVuSans-65" transform="translate(580.078125 0)"/>
      <use xlink:href="#DejaVuSans-72" transform="translate(641.601562 0)"/>
      <use xlink:href="#DejaVuSans-61" transform="translate(682.714844 0)"/>
      <use xlink:href="#DejaVuSans-74" transform="translate(743.994141 0)"/>
      <use xlink:href="#DejaVuSans-75" transform="translate(783.203125 0)"/>
      <use xlink:href="#DejaVuSans-72" transform="translate(846.582031 0)"/>
      <use xlink:href="#DejaVuSans-65" transform="translate(885.445312 0)"/>
      <use xlink:href="#DejaVuSans-20" transform="translate(946.96875 0)"/>
      <use xlink:href="#DejaVuSans-28" transform="translate(978.755859 0)"/>
      <use xlink:href="#DejaVuSans-64" transform="translate(1017.769531 0)"/>
      <use xlink:href="#DejaVuSans-65" transform="translate(1081.246094 0)"/>
      <use xlink:href="#DejaVuSans-67" transform="translate(1142.769531 0)"/>
      <use xlink:href="#DejaVuSans-20" transform="translate(1206.246094 0)"/>
      <use xlink:href="#DejaVuSans-43" transform="translate(1238.033203 0)"/>
      <use xlink:href="#DejaVuSans-29" transform="translate(1307.857422 0)"/>
     </g>
    </g>
   </g>
   <g id="line2d_49">
    <path d="M 62.64 409.726439 
L 89.843478 415.118184 
L 117.046957 419.971259 
L 144.250435 423.890642 
L 171.453913 425.52 
L 198.657391 423.444899 
L 225.86087 410.231917 
L 253.064348 376.059628 
L 280.267826 332.298983 
L 307.471304 281.430676 
L 334.674783 227.634099 
L 361.878261 202.561145 
L 389.081739 211.016415 
L 416.285217 232.244675 
L 443.488696 261.260947 
L 470.692174 294.340516 
L 497.895652 321.293133 
L 525.09913 340.087142 
L 552.302609 357.707792 
L 579.506087 375.379319 
L 606.709565 386.836628 
L 633.913043 392.766655 
L 661.116522 399.927805 
L 688.32 406.046872 
" clip-path="url(#p966c669316)" style="fill: none; stroke-dasharray: 9.62,4.16; stroke-dashoffset: 0; stroke: #225ea8; stroke-width: 2.6"/>
   </g>
   <g id="line2d_50">
    <path d="M 62.64 331.409828 
L 89.843478 336.761866 
L 117.046957 341.562266 
L 144.250435 345.454632 
L 171.453913 347.076014 
L 198.657391 344.99692 
L 225.86087 331.675112 
L 253.064348 297.360084 
L 280.267826 253.302572 
L 307.471304 202.161161 
L 334.674783 148.160515 
L 361.878261 123.12 
L 389.081739 131.747131 
L 416.285217 153.340798 
L 443.488696 182.642195 
L 470.692174 215.905417 
L 497.895652 243.183194 
L 525.09913 261.987521 
L 552.302609 279.639191 
L 579.506087 297.241946 
L 606.709565 308.582686 
L 633.913043 314.466818 
L 661.116522 321.615467 
L 688.32 327.776568 
" clip-path="url(#p966c669316)" style="fill: none; stroke-dasharray: 9.62,4.16; stroke-dashoffset: 0; stroke: #c51b7d; stroke-width: 2.6"/>
   </g>
   <g id="patch_6">
    <path d="M 62.64 440.64 
L 62.64 108 
" style="fill: none; stroke: #000000; stroke-width: 0.8; stroke-linejoin: miter; stroke-linecap: square"/>
   </g>
   <g id="patch_7">
    <path d="M 688.32 440.64 
L 688.32 108 
" style="fill: none; stroke: #000000; stroke-width: 0.8; stroke-linejoin: miter; stroke-linecap: square"/>
   </g>
   <g id="patch_8">
    <path d="M 62.64 440.64 
L 688.32 440.64 
" style="fill: none; stroke: #000000; stroke-width: 0.8; stroke-linejoin: miter; stroke-linecap: square"/>
   </g>
  </g>
  <g id="text_30">
   <!-- Spring-only diurnal response: Kampong Lama (gridiv 4) -->
   <g transform="translate(7.2 19.3575) scale(0.16 -0.16)">
    <defs>
     <path id="DejaVuSans-Bold-2d" d="M 347 2297 
L 2309 2297 
L 2309 1388 
L 347 1388 
L 347 2297 
z
" transform="scale(0.015625)"/>
     <path id="DejaVuSans-Bold-79" d="M 78 3500 
L 1197 3500 
L 2138 1125 
L 2938 3500 
L 4056 3500 
L 2584 -331 
Q 2363 -916 2067 -1148 
Q 1772 -1381 1288 -1381 
L 641 -1381 
L 641 -647 
L 991 -647 
Q 1275 -647 1404 -556 
Q 1534 -466 1606 -231 
L 1638 -134 
L 78 3500 
z
" transform="scale(0.015625)"/>
     <path id="DejaVuSans-Bold-3a" d="M 716 3500 
L 1844 3500 
L 1844 2291 
L 716 2291 
L 716 3500 
z
M 716 1209 
L 1844 1209 
L 1844 0 
L 716 0 
L 716 1209 
z
" transform="scale(0.015625)"/>
     <path id="DejaVuSans-Bold-4b" d="M 588 4666 
L 1791 4666 
L 1791 2963 
L 3525 4666 
L 4922 4666 
L 2675 2456 
L 5153 0 
L 3647 0 
L 1791 1838 
L 1791 0 
L 588 0 
L 588 4666 
z
" transform="scale(0.015625)"/>
     <path id="DejaVuSans-Bold-6d" d="M 3781 2919 
Q 3994 3244 4286 3414 
Q 4578 3584 4928 3584 
Q 5531 3584 5847 3212 
Q 6163 2841 6163 2131 
L 6163 0 
L 5038 0 
L 5038 1825 
Q 5041 1866 5042 1909 
Q 5044 1953 5044 2034 
Q 5044 2406 4934 2573 
Q 4825 2741 4581 2741 
Q 4263 2741 4089 2478 
Q 3916 2216 3909 1719 
L 3909 0 
L 2784 0 
L 2784 1825 
Q 2784 2406 2684 2573 
Q 2584 2741 2328 2741 
Q 2006 2741 1831 2477 
Q 1656 2213 1656 1722 
L 1656 0 
L 531 0 
L 531 3500 
L 1656 3500 
L 1656 2988 
Q 1863 3284 2130 3434 
Q 2397 3584 2719 3584 
Q 3081 3584 3359 3409 
Q 3638 3234 3781 2919 
z
" transform="scale(0.015625)"/>
     <path id="DejaVuSans-Bold-4c" d="M 588 4666 
L 1791 4666 
L 1791 909 
L 3903 909 
L 3903 0 
L 588 0 
L 588 4666 
z
" transform="scale(0.015625)"/>
     <path id="DejaVuSans-Bold-28" d="M 2413 -844 
L 1484 -844 
Q 1006 -72 778 623 
Q 550 1319 550 2003 
Q 550 2688 779 3389 
Q 1009 4091 1484 4856 
L 2413 4856 
Q 2013 4116 1813 3408 
Q 1613 2700 1613 2009 
Q 1613 1319 1811 609 
Q 2009 -100 2413 -844 
z
" transform="scale(0.015625)"/>
     <path id="DejaVuSans-Bold-76" d="M 97 3500 
L 1216 3500 
L 2088 1081 
L 2956 3500 
L 4078 3500 
L 2700 0 
L 1472 0 
L 97 3500 
z
" transform="scale(0.015625)"/>
     <path id="DejaVuSans-Bold-34" d="M 2356 3675 
L 1038 1722 
L 2356 1722 
L 2356 3675 
z
M 2156 4666 
L 3494 4666 
L 3494 1722 
L 4159 1722 
L 4159 850 
L 3494 850 
L 3494 0 
L 2356 0 
L 2356 850 
L 288 850 
L 288 1881 
L 2156 4666 
z
" transform="scale(0.015625)"/>
     <path id="DejaVuSans-Bold-29" d="M 513 -844 
Q 913 -100 1113 609 
Q 1313 1319 1313 2009 
Q 1313 2700 1113 3408 
Q 913 4116 513 4856 
L 1441 4856 
Q 1916 4091 2145 3389 
Q 2375 2688 2375 2003 
Q 2375 1319 2147 623 
Q 1919 -72 1441 -844 
L 513 -844 
z
" transform="scale(0.015625)"/>
    </defs>
    <use xlink:href="#DejaVuSans-Bold-53"/>
    <use xlink:href="#DejaVuSans-Bold-70" transform="translate(72.021484 0)"/>
    <use xlink:href="#DejaVuSans-Bold-72" transform="translate(143.603516 0)"/>
    <use xlink:href="#DejaVuSans-Bold-69" transform="translate(192.919922 0)"/>
    <use xlink:href="#DejaVuSans-Bold-6e" transform="translate(227.197266 0)"/>
    <use xlink:href="#DejaVuSans-Bold-67" transform="translate(298.388672 0)"/>
    <use xlink:href="#DejaVuSans-Bold-2d" transform="translate(369.970703 0)"/>
    <use xlink:href="#DejaVuSans-Bold-6f" transform="translate(411.474609 0)"/>
    <use xlink:href="#DejaVuSans-Bold-6e" transform="translate(480.175781 0)"/>
    <use xlink:href="#DejaVuSans-Bold-6c" transform="translate(551.367188 0)"/>
    <use xlink:href="#DejaVuSans-Bold-79" transform="translate(585.644531 0)"/>
    <use xlink:href="#DejaVuSans-Bold-20" transform="translate(650.830078 0)"/>
    <use xlink:href="#DejaVuSans-Bold-64" transform="translate(685.644531 0)"/>
    <use xlink:href="#DejaVuSans-Bold-69" transform="translate(757.226562 0)"/>
    <use xlink:href="#DejaVuSans-Bold-75" transform="translate(791.503906 0)"/>
    <use xlink:href="#DejaVuSans-Bold-72" transform="translate(862.695312 0)"/>
    <use xlink:href="#DejaVuSans-Bold-6e" transform="translate(912.011719 0)"/>
    <use xlink:href="#DejaVuSans-Bold-61" transform="translate(983.203125 0)"/>
    <use xlink:href="#DejaVuSans-Bold-6c" transform="translate(1050.683594 0)"/>
    <use xlink:href="#DejaVuSans-Bold-20" transform="translate(1084.960938 0)"/>
    <use xlink:href="#DejaVuSans-Bold-72" transform="translate(1119.775391 0)"/>
    <use xlink:href="#DejaVuSans-Bold-65" transform="translate(1169.091797 0)"/>
    <use xlink:href="#DejaVuSans-Bold-73" transform="translate(1236.914062 0)"/>
    <use xlink:href="#DejaVuSans-Bold-70" transform="translate(1296.435547 0)"/>
    <use xlink:href="#DejaVuSans-Bold-6f" transform="translate(1368.017578 0)"/>
    <use xlink:href="#DejaVuSans-Bold-6e" transform="translate(1436.71875 0)"/>
    <use xlink:href="#DejaVuSans-Bold-73" transform="translate(1507.910156 0)"/>
    <use xlink:href="#DejaVuSans-Bold-65" transform="translate(1567.431641 0)"/>
    <use xlink:href="#DejaVuSans-Bold-3a" transform="translate(1635.253906 0)"/>
    <use xlink:href="#DejaVuSans-Bold-20" transform="translate(1675.244141 0)"/>
    <use xlink:href="#DejaVuSans-Bold-4b" transform="translate(1710.058594 0)"/>
    <use xlink:href="#DejaVuSans-Bold-61" transform="translate(1787.548828 0)"/>
    <use xlink:href="#DejaVuSans-Bold-6d" transform="translate(1855.029297 0)"/>
    <use xlink:href="#DejaVuSans-Bold-70" transform="translate(1959.228516 0)"/>
    <use xlink:href="#DejaVuSans-Bold-6f" transform="translate(2030.810547 0)"/>
    <use xlink:href="#DejaVuSans-Bold-6e" transform="translate(2099.511719 0)"/>
    <use xlink:href="#DejaVuSans-Bold-67" transform="translate(2170.703125 0)"/>
    <use xlink:href="#DejaVuSans-Bold-20" transform="translate(2242.285156 0)"/>
    <use xlink:href="#DejaVuSans-Bold-4c" transform="translate(2277.099609 0)"/>
    <use xlink:href="#DejaVuSans-Bold-61" transform="translate(2340.820312 0)"/>
    <use xlink:href="#DejaVuSans-Bold-6d" transform="translate(2408.300781 0)"/>
    <use xlink:href="#DejaVuSans-Bold-61" transform="translate(2512.5 0)"/>
    <use xlink:href="#DejaVuSans-Bold-20" transform="translate(2579.980469 0)"/>
    <use xlink:href="#DejaVuSans-Bold-28" transform="translate(2614.794922 0)"/>
    <use xlink:href="#DejaVuSans-Bold-67" transform="translate(2660.498047 0)"/>
    <use xlink:href="#DejaVuSans-Bold-72" transform="translate(2732.080078 0)"/>
    <use xlink:href="#DejaVuSans-Bold-69" transform="translate(2781.396484 0)"/>
    <use xlink:href="#DejaVuSans-Bold-64" transform="translate(2815.673828 0)"/>
    <use xlink:href="#DejaVuSans-Bold-69" transform="translate(2887.255859 0)"/>
    <use xlink:href="#DejaVuSans-Bold-76" transform="translate(2921.533203 0)"/>
    <use xlink:href="#DejaVuSans-Bold-20" transform="translate(2986.71875 0)"/>
    <use xlink:href="#DejaVuSans-Bold-34" transform="translate(3021.533203 0)"/>
    <use xlink:href="#DejaVuSans-Bold-29" transform="translate(3091.113281 0)"/>
   </g>
  </g>
  <g id="legend_1">
   <g id="line2d_51">
    <path d="M 152.038906 65.658437 
L 162.038906 65.658437 
L 172.038906 65.658437 
" style="fill: none; stroke: #252525; stroke-width: 2.4; stroke-linecap: square"/>
   </g>
   <g id="text_31">
    <!-- Delta QN -->
    <g transform="translate(180.038906 69.158437) scale(0.1 -0.1)">
     <defs>
      <path id="DejaVuSans-44" d="M 1259 4147 
L 1259 519 
L 2022 519 
Q 2988 519 3436 956 
Q 3884 1394 3884 2338 
Q 3884 3275 3436 3711 
Q 2988 4147 2022 4147 
L 1259 4147 
z
M 628 4666 
L 1925 4666 
Q 3281 4666 3915 4102 
Q 4550 3538 4550 2338 
Q 4550 1131 3912 565 
Q 3275 0 1925 0 
L 628 0 
L 628 4666 
z
" transform="scale(0.015625)"/>
      <path id="DejaVuSans-51" d="M 2522 4238 
Q 1834 4238 1429 3725 
Q 1025 3213 1025 2328 
Q 1025 1447 1429 934 
Q 1834 422 2522 422 
Q 3209 422 3611 934 
Q 4013 1447 4013 2328 
Q 4013 3213 3611 3725 
Q 3209 4238 2522 4238 
z
M 3406 84 
L 4238 -825 
L 3475 -825 
L 2784 -78 
Q 2681 -84 2626 -87 
Q 2572 -91 2522 -91 
Q 1538 -91 948 567 
Q 359 1225 359 2328 
Q 359 3434 948 4092 
Q 1538 4750 2522 4750 
Q 3503 4750 4090 4092 
Q 4678 3434 4678 2328 
Q 4678 1516 4351 937 
Q 4025 359 3406 84 
z
" transform="scale(0.015625)"/>
      <path id="DejaVuSans-4e" d="M 628 4666 
L 1478 4666 
L 3547 763 
L 3547 4666 
L 4159 4666 
L 4159 0 
L 3309 0 
L 1241 3903 
L 1241 0 
L 628 0 
L 628 4666 
z
" transform="scale(0.015625)"/>
     </defs>
     <use xlink:href="#DejaVuSans-44"/>
     <use xlink:href="#DejaVuSans-65" transform="translate(77.001953 0)"/>
     <use xlink:href="#DejaVuSans-6c" transform="translate(138.525391 0)"/>
     <use xlink:href="#DejaVuSans-74" transform="translate(166.308594 0)"/>
     <use xlink:href="#DejaVuSans-61" transform="translate(205.517578 0)"/>
     <use xlink:href="#DejaVuSans-20" transform="translate(266.796875 0)"/>
     <use xlink:href="#DejaVuSans-51" transform="translate(298.583984 0)"/>
     <use xlink:href="#DejaVuSans-4e" transform="translate(377.294922 0)"/>
    </g>
   </g>
   <g id="line2d_52">
    <path d="M 245.249844 65.658437 
L 255.249844 65.658437 
L 265.249844 65.658437 
" style="fill: none; stroke: #fdae61; stroke-width: 2.4; stroke-linecap: square"/>
   </g>
   <g id="text_32">
    <!-- Delta QS -->
    <g transform="translate(273.249844 69.158437) scale(0.1 -0.1)">
     <use xlink:href="#DejaVuSans-44"/>
     <use xlink:href="#DejaVuSans-65" transform="translate(77.001953 0)"/>
     <use xlink:href="#DejaVuSans-6c" transform="translate(138.525391 0)"/>
     <use xlink:href="#DejaVuSans-74" transform="translate(166.308594 0)"/>
     <use xlink:href="#DejaVuSans-61" transform="translate(205.517578 0)"/>
     <use xlink:href="#DejaVuSans-20" transform="translate(266.796875 0)"/>
     <use xlink:href="#DejaVuSans-51" transform="translate(298.583984 0)"/>
     <use xlink:href="#DejaVuSans-53" transform="translate(377.294922 0)"/>
    </g>
   </g>
   <g id="line2d_53">
    <path d="M 337.327969 65.658437 
L 347.327969 65.658437 
L 357.327969 65.658437 
" style="fill: none; stroke: #1a9850; stroke-width: 2.4; stroke-linecap: square"/>
   </g>
   <g id="text_33">
    <!-- Delta QE -->
    <g transform="translate(365.327969 69.158437) scale(0.1 -0.1)">
     <defs>
      <path id="DejaVuSans-45" d="M 628 4666 
L 3578 4666 
L 3578 4134 
L 1259 4134 
L 1259 2753 
L 3481 2753 
L 3481 2222 
L 1259 2222 
L 1259 531 
L 3634 531 
L 3634 0 
L 628 0 
L 628 4666 
z
" transform="scale(0.015625)"/>
     </defs>
     <use xlink:href="#DejaVuSans-44"/>
     <use xlink:href="#DejaVuSans-65" transform="translate(77.001953 0)"/>
     <use xlink:href="#DejaVuSans-6c" transform="translate(138.525391 0)"/>
     <use xlink:href="#DejaVuSans-74" transform="translate(166.308594 0)"/>
     <use xlink:href="#DejaVuSans-61" transform="translate(205.517578 0)"/>
     <use xlink:href="#DejaVuSans-20" transform="translate(266.796875 0)"/>
     <use xlink:href="#DejaVuSans-51" transform="translate(298.583984 0)"/>
     <use xlink:href="#DejaVuSans-45" transform="translate(377.294922 0)"/>
    </g>
   </g>
   <g id="line2d_54">
    <path d="M 429.376406 65.658437 
L 439.376406 65.658437 
L 449.376406 65.658437 
" style="fill: none; stroke: #d73027; stroke-width: 2.4; stroke-linecap: square"/>
   </g>
   <g id="text_34">
    <!-- Delta QH -->
    <g transform="translate(457.376406 69.158437) scale(0.1 -0.1)">
     <defs>
      <path id="DejaVuSans-48" d="M 628 4666 
L 1259 4666 
L 1259 2753 
L 3553 2753 
L 3553 4666 
L 4184 4666 
L 4184 0 
L 3553 0 
L 3553 2222 
L 1259 2222 
L 1259 0 
L 628 0 
L 628 4666 
z
" transform="scale(0.015625)"/>
     </defs>
     <use xlink:href="#DejaVuSans-44"/>
     <use xlink:href="#DejaVuSans-65" transform="translate(77.001953 0)"/>
     <use xlink:href="#DejaVuSans-6c" transform="translate(138.525391 0)"/>
     <use xlink:href="#DejaVuSans-74" transform="translate(166.308594 0)"/>
     <use xlink:href="#DejaVuSans-61" transform="translate(205.517578 0)"/>
     <use xlink:href="#DejaVuSans-20" transform="translate(266.796875 0)"/>
     <use xlink:href="#DejaVuSans-51" transform="translate(298.583984 0)"/>
     <use xlink:href="#DejaVuSans-48" transform="translate(377.294922 0)"/>
    </g>
   </g>
   <g id="line2d_55">
    <path d="M 522.626406 65.658437 
L 532.626406 65.658437 
L 542.626406 65.658437 
" style="fill: none; stroke-dasharray: 8.88,3.84; stroke-dashoffset: 0; stroke: #225ea8; stroke-width: 2.4"/>
   </g>
   <g id="text_35">
    <!-- Present T2 -->
    <g transform="translate(550.626406 69.158437) scale(0.1 -0.1)">
     <defs>
      <path id="DejaVuSans-50" d="M 1259 4147 
L 1259 2394 
L 2053 2394 
Q 2494 2394 2734 2622 
Q 2975 2850 2975 3272 
Q 2975 3691 2734 3919 
Q 2494 4147 2053 4147 
L 1259 4147 
z
M 628 4666 
L 2053 4666 
Q 2838 4666 3239 4311 
Q 3641 3956 3641 3272 
Q 3641 2581 3239 2228 
Q 2838 1875 2053 1875 
L 1259 1875 
L 1259 0 
L 628 0 
L 628 4666 
z
" transform="scale(0.015625)"/>
     </defs>
     <use xlink:href="#DejaVuSans-50"/>
     <use xlink:href="#DejaVuSans-72" transform="translate(58.552734 0)"/>
     <use xlink:href="#DejaVuSans-65" transform="translate(97.416016 0)"/>
     <use xlink:href="#DejaVuSans-73" transform="translate(158.939453 0)"/>
     <use xlink:href="#DejaVuSans-65" transform="translate(211.039062 0)"/>
     <use xlink:href="#DejaVuSans-6e" transform="translate(272.5625 0)"/>
     <use xlink:href="#DejaVuSans-74" transform="translate(335.941406 0)"/>
     <use xlink:href="#DejaVuSans-20" transform="translate(375.150391 0)"/>
     <use xlink:href="#DejaVuSans-54" transform="translate(406.9375 0)"/>
     <use xlink:href="#DejaVuSans-32" transform="translate(468.021484 0)"/>
    </g>
   </g>
   <g id="line2d_56">
    <path d="M 623.788906 65.658437 
L 633.788906 65.658437 
L 643.788906 65.658437 
" style="fill: none; stroke-dasharray: 8.88,3.84; stroke-dashoffset: 0; stroke: #c51b7d; stroke-width: 2.4"/>
   </g>
   <g id="text_36">
    <!-- +2.5 C T2 -->
    <g transform="translate(651.788906 69.158437) scale(0.1 -0.1)">
     <defs>
      <path id="DejaVuSans-2b" d="M 2944 4013 
L 2944 2272 
L 4684 2272 
L 4684 1741 
L 2944 1741 
L 2944 0 
L 2419 0 
L 2419 1741 
L 678 1741 
L 678 2272 
L 2419 2272 
L 2419 4013 
L 2944 4013 
z
" transform="scale(0.015625)"/>
     </defs>
     <use xlink:href="#DejaVuSans-2b"/>
     <use xlink:href="#DejaVuSans-32" transform="translate(83.789062 0)"/>
     <use xlink:href="#DejaVuSans-2e" transform="translate(147.412109 0)"/>
     <use xlink:href="#DejaVuSans-35" transform="translate(179.199219 0)"/>
     <use xlink:href="#DejaVuSans-20" transform="translate(242.822266 0)"/>
     <use xlink:href="#DejaVuSans-43" transform="translate(274.609375 0)"/>
     <use xlink:href="#DejaVuSans-20" transform="translate(344.433594 0)"/>
     <use xlink:href="#DejaVuSans-54" transform="translate(376.220703 0)"/>
     <use xlink:href="#DejaVuSans-32" transform="translate(437.304688 0)"/>
    </g>
   </g>
  </g>
 </g>
 <defs>
  <clipPath id="p966c669316">
   <rect x="62.64" y="108" width="625.68" height="332.64"/>
  </clipPath>
 </defs>
</svg>
